<?xml version="1.0" encoding="UTF-8" standalone="no"?>
<svg
   width="129mm"
   height="89.99999999999999mm"
   viewBox="-64.5 -44.99999999999999 129 89.99999999999999"
   version="1.1"
   id="svg8"
   sodipodi:docname="Rotary main Carriage_p00.svg"
   inkscape:version="1.1.2 (0a00cf5339, 2022-02-04, custom)"
   xmlns:inkscape="http://www.inkscape.org/namespaces/inkscape"
   xmlns:sodipodi="http://sodipodi.sourceforge.net/DTD/sodipodi-0.dtd"
   xmlns="http://www.w3.org/2000/svg"
   xmlns:svg="http://www.w3.org/2000/svg"
   xmlns:rdf="http://www.w3.org/1999/02/22-rdf-syntax-ns#"
   xmlns:cc="http://creativecommons.org/ns#"
   xmlns:dc="http://purl.org/dc/elements/1.1/">
  <defs
     id="defs12" />
  <sodipodi:namedview
     id="namedview10"
     pagecolor="#ffffff"
     bordercolor="#666666"
     borderopacity="1.0"
     inkscape:pageshadow="2"
     inkscape:pageopacity="0.0"
     inkscape:pagecheckerboard="0"
     inkscape:document-units="mm"
     showgrid="false"
     inkscape:zoom="1.0568634"
     inkscape:cx="167.9498"
     inkscape:cy="79.480468"
     inkscape:window-width="1920"
     inkscape:window-height="1027"
     inkscape:window-x="-8"
     inkscape:window-y="-8"
     inkscape:window-maximized="1"
     inkscape:current-layer="svg8"
     inkscape:snap-global="false"
     showguides="true"
     inkscape:guide-bbox="true" />
  <title
     id="title2">svgOutput</title>
  <desc
     id="desc4">made with tinkercad</desc>
  <metadata
     id="metadata829">
    <rdf:RDF>
      <cc:Work
         rdf:about="">
        <dc:title>svgOutput</dc:title>
      </cc:Work>
    </rdf:RDF>
  </metadata>
  <g
     id="g8130"
     style="stroke:#ff0000"
     transform="translate(-7.5104311,16.022253)">
    <path
       style="fill:none;stroke:#ff0000;stroke-width:0.2;stroke-miterlimit:4;stroke-dasharray:none"
       d="m -19.85,-3.55 -0.300999,0.013 -0.329001,0.056495 -0.265001,0.045505 -0.566999,0.2 -0.525999,0.294 -0.468001,0.378 -0.398,0.4519999 L -23.02,-1.598 -23.243999,-1.04 -23.371,-0.45100001 -23.390478,0 l -0.0065,0.15099999 0.077,0.59700004 0.176001,0.57599997 0.271,0.5369999 0.358,0.4840001 0.434999,0.4170001 0.499001,0.3369999 0.547998,0.2479999 0.553001,0.1441784 0.03,0.00782 0.600001,0.051 0.6,-0.051 0.583,-0.1520002 L -18.118999,3.099 -17.620001,2.7620001 -17.184999,2.345 -16.827,1.8609999 -16.556,1.324 l 0.171999,-0.56290907 0.004,-0.0130909 0.077,-0.59700004 L -16.309521,0 -16.329,-0.45100001 -16.384001,-0.70607877 -16.455999,-1.04 -16.68,-1.598 -16.996,-2.1110001 -17.393999,-2.563 -17.862,-2.941 l -0.526,-0.2939999 -0.567,-0.2 -0.594,-0.102 -0.301,-0.013"
       id="path1355" />
    <path
       style="fill:none;stroke:#ff0000;stroke-width:0.2;stroke-miterlimit:4;stroke-dasharray:none"
       d="m -19.85,-33.869999 -0.300999,0.013 -0.329001,0.05649 -0.265001,0.04551 -0.566999,0.200001 -0.525999,0.293998 -0.468001,0.378003 -0.101261,0.114997 -0.296739,0.337002 -0.316,0.513001 -0.223999,0.557998 -0.127001,0.589001 -0.026,0.601999 0.077,0.597 0.176001,0.576001 0.163507,0.323999 0.107493,0.213001 0.358,0.484 0.434999,0.416999 0.499001,0.337 0.547998,0.248001 0.583,0.152001 0.600001,0.051 0.6,-0.051 0.583,-0.152001 0.548001,-0.248001 0.498998,-0.337 0.435002,-0.416999 0.357999,-0.484 0.107491,-0.213001 0.163509,-0.323999 0.171999,-0.562908 0.004,-0.01309 0.077,-0.597 -0.026,-0.601999 -0.055,-0.255079 -0.072,-0.333922 -0.224001,-0.557998 -0.316,-0.513001 -0.29674,-0.337002 -0.101259,-0.114997 -0.468001,-0.378003 -0.526,-0.293998 -0.567,-0.200001 -0.594,-0.101997 -0.301,-0.013"
       id="path1337" />
    <path
       style="fill:none;stroke:#ff0000;stroke-width:0.2;stroke-miterlimit:4;stroke-dasharray:none"
       d="m 19.85,-39.220003 -0.215999,0.009 -0.427,0.073 -0.05653,0.02 -0.350474,0.124001 -0.377998,0.211002 -0.336001,0.272 -0.286001,0.324999 -0.226999,0.368 -0.160999,0.401001 -0.091,0.423 -0.019,0.431999 0.055,0.428999 0.126999,0.414002 0.195002,0.385999 0.229675,0.310999 0.02733,0.037 0.311998,0.299 0.358002,0.242 0.393999,0.178 0.419001,0.109001 0.430999,0.037 0.431,-0.037 0.419001,-0.109001 0.393999,-0.178 0.358,-0.242 0.312,-0.299 0.02733,-0.037 0.229675,-0.310999 0.195,-0.385999 0.127,-0.414002 0.055,-0.428999 -0.019,-0.431999 -0.091,-0.423 -0.161008,-0.401004 -0.227001,-0.368 -0.286,-0.324999 -0.336,-0.272 -0.378,-0.211002 -0.350472,-0.124001 -0.05653,-0.02 -0.427,-0.073 -0.216,-0.009"
       id="path1273" />
    <path
       style="fill:none;stroke:#ff0000;stroke-width:0.2;stroke-miterlimit:4;stroke-dasharray:none"
       d="m 41.278,-2.1129999 -0.318001,-0.1775081 -0.06,-0.033492 -0.407002,-0.144 -0.426998,-0.073 -0.216004,-0.009 -0.215999,0.009 -0.426998,0.073 -0.407002,0.144 -0.377998,0.211 -0.336002,0.2719999 -0.286,0.325 -0.226997,0.368 -0.161003,0.40100002 -0.091,0.42299998 -0.01425,0.324 -0.0048,0.108 0.055,0.429 0.127003,0.41399998 0.195,0.38600002 0.257,0.3479999 0.312,0.2990001 L 38.605947,2.226 39,2.404 l 0.418999,0.109 0.430999,0.037 0.431,-0.037 0.419003,-0.109 0.259998,-0.1174619 0.134003,-0.060538 L 41.452,1.984 41.764,1.6849999 42.021,1.337 42.216,0.95099998 42.342999,0.537 42.397999,0.108 42.39325,0 42.379002,-0.324 42.287998,-0.74699998 42.126999,-1.148 41.900002,-1.516 41.613998,-1.841 41.278,-2.1129999"
       id="path1267" />
    <path
       style="fill:none;stroke:#ff0000;stroke-width:0.2;stroke-miterlimit:4;stroke-dasharray:none"
       d="m 39.849998,-32.869999 -0.215999,0.009 -0.426998,0.073 -0.05653,0.02 -0.350472,0.124001 -0.377998,0.211002 -0.336002,0.272 -0.286,0.324999 -0.226997,0.368 -0.161003,0.401001 -0.091,0.423 -0.019,0.431999 0.055,0.428999 0.127003,0.414002 0.195,0.385999 0.229675,0.310999 0.02732,0.037 0.312,0.299 0.357998,0.242 0.394001,0.178 0.418999,0.109001 0.430999,0.037 0.431,-0.037 0.419003,-0.109001 0.259998,-0.117463 0.134003,-0.06054 0.357998,-0.242 0.312,-0.299 0.02732,-0.037 0.229675,-0.310999 0.195,-0.385999 0.126999,-0.414002 0.055,-0.428999 -0.019,-0.431999 -0.091,-0.423 -0.160999,-0.401001 -0.226997,-0.368 -0.286004,-0.324999 -0.335998,-0.272 -0.318001,-0.177509 -0.06,-0.03349 -0.350476,-0.124001 -0.05653,-0.02 -0.426998,-0.073 -0.216004,-0.009"
       id="path1257" />
    <path
       style="fill:none;stroke:#ff0000;stroke-width:0.118823;stroke-miterlimit:4;stroke-dasharray:none"
       d="m 45.871808,-41.836988 0.02094,0.292495 v 1.967626 3.166259 5.10894 5.108941 10.217882 0.859508 9.3583709 5.10893977 5.10894183 5.1338842 l -0.02094,0.2924941 -0.06227,0.2856292 -0.101877,0.27129 -0.139236,0.250082 -0.173193,0.223265 -0.202626,0.190838 -0.226964,0.153419 -0.246208,0.112257 -0.259222,0.0686 -0.265452,0.02306 H 37.77187 28.498632 23.862012 19.225394 14.588774 9.9521608 5.3155415 0.67892184 -3.957696 h -4.6366203 -9.2732377 -4.63662 -1.786274 l -0.265451,-0.02306 -0.259223,-0.0686 -0.246208,-0.112255 -0.226964,-0.153421 -0.202626,-0.190837 -0.173192,-0.223265 -0.139238,-0.250082 -0.101876,-0.27129 -0.06227,-0.2856292 -0.02094,-0.2924933 v -5.133885 -5.10894182 -5.10893978 -7.2803309 -1.447181 -1.430124 -0.06024 -10.217884 -5.108937 -0.644701 -1.447178 -1.430125 -1.491519 -0.09543 -5.133886 l 0.02094,-0.292493 0.06227,-0.285628 0.101876,-0.271289 0.139238,-0.250085 0.173192,-0.223263 0.202626,-0.190839 0.226964,-0.153419 0.246208,-0.112257 0.259223,-0.06861 0.26545,-0.02307 h 1.786274 4.636621 4.636622 4.636615 4.6366203 4.63661788 4.63661962 4.63662 4.6366182 4.63662 4.636618 0.09565 0.582425 0.621346 0.759983 2.577211 9.273238 6.422895 l 0.265451,0.02307 0.259223,0.06861 0.246208,0.112257 0.226964,0.153419 0.202626,0.190838 0.173192,0.223264 0.139237,0.250084 0.101877,0.27129 0.06226,0.285628"
       id="path6" />
    <path
       style="fill:none;stroke:#ff0000;stroke-width:0.2;stroke-miterlimit:4;stroke-dasharray:none"
       d="m 0,-1.1418412 -0.21600001,0.009 -0.427,0.073 -0.40699999,0.144 -0.378,0.211 -0.3360001,0.2720003 -0.02904,0.033 -0.25696,0.2919998 -0.227,0.368 -0.161,0.4010001 -0.091,0.4229993 -0.019,0.4320007 0.055,0.429 0.1270001,0.414 0.1949999,0.386 0.257,0.348 0.312,0.299 0.358,0.242 0.39399998,0.178 0.41900003,0.109 L 0,3.958159 l 0.43099999,-0.037 0.41900003,-0.109 0.39399998,-0.178 0.358,-0.242 0.312,-0.299 0.257,-0.348 0.1949999,-0.386 L 2.493,1.945159 2.548,1.516159 2.529,1.0841586 2.438,0.6611593 2.277,0.2601592 l -0.227,-0.368 -0.25696,-0.2919998 -0.02904,-0.033 -0.336,-0.2720003 -0.378,-0.211 -0.40699999,-0.144 -0.427,-0.073 L 0,-1.1418412"
       id="path1315" />
    <path
       style="fill:none;stroke:#ff0000;stroke-width:0.2;stroke-miterlimit:4;stroke-dasharray:none"
       d="m 0,-11.141841 -0.21600001,0.009 -0.427,0.073 -0.40699999,0.144 -0.378,0.211 -0.3360001,0.272 -0.2859999,0.325 -0.227,0.368 -0.161,0.401 -0.091,0.423 -0.01425,0.324 -0.00475,0.108 0.055,0.429 0.1270001,0.414 0.1949999,0.386 0.257,0.3479999 0.312,0.2990001 0.358,0.2420001 0.39399998,0.1779999 0.41900003,0.109 L 0,-6.041841 l 0.43099999,-0.037 0.41900003,-0.109 L 1.244,-6.3658409 1.602,-6.607841 1.914,-6.9068411 2.171,-7.254841 l 0.1949999,-0.386 0.1270001,-0.414 0.055,-0.429 -0.00475,-0.108 -0.01425,-0.324 -0.091,-0.423 -0.161,-0.401 -0.227,-0.368 -0.2859999,-0.325 -0.3360001,-0.272 -0.378,-0.211 -0.40699999,-0.144 -0.427,-0.073 L 0,-11.141841"
       id="path1299" />
    <path
       style="fill:none;stroke:#ff0000;stroke-width:0.2;stroke-miterlimit:4;stroke-dasharray:none"
       d="m 0,-21.141841 -0.21600001,0.009 -0.427,0.073 -0.40699999,0.144 -0.378,0.211 -0.3360001,0.272 -0.2859999,0.325 -0.227,0.368 -0.161,0.401 -0.091,0.423 -0.019,0.432 0.055,0.429 0.1270001,0.414 0.1949999,0.386 0.257,0.348 0.1283478,0.123 0.1836522,0.176 0.358,0.242 0.39399998,0.178 0.41900003,0.109 0.43099999,0.037 0.43099999,-0.037 0.41900003,-0.109 0.39399998,-0.178 0.358,-0.242 0.1836522,-0.176 0.1283478,-0.123 0.257,-0.348 0.1949999,-0.386 0.1270001,-0.414 0.055,-0.429 -0.019,-0.432 -0.091,-0.423 -0.161,-0.401 -0.227,-0.368 -0.2859999,-0.325 -0.3360001,-0.272 -0.378,-0.211 -0.40699999,-0.144 -0.427,-0.073 L 0,-21.141841"
       id="path1295" />
    <path
       style="fill:none;stroke:#ff0000;stroke-width:0.2;stroke-miterlimit:4;stroke-dasharray:none"
       d="m 19.75809,-1.1418412 -0.216,0.009 -0.427,0.073 -0.407,0.144 -0.378,0.211 -0.336,0.2720003 -0.02904,0.033 -0.25696,0.2919998 -0.227,0.368 -0.161,0.4010001 -0.091,0.4229993 -0.019,0.4320007 0.055,0.429 0.127,0.414 0.195,0.386 0.257,0.348 0.312,0.299 0.358,0.242 0.394,0.178 0.419,0.109 0.431,0.037 0.431,-0.037 0.419,-0.109 0.394,-0.178 0.358,-0.242 0.312,-0.299 0.257,-0.348 0.195,-0.386 0.127,-0.414 0.055,-0.429 -0.019,-0.4320004 -0.091,-0.4229993 -0.161,-0.4010001 -0.227,-0.368 -0.25696,-0.2919998 -0.02904,-0.033 -0.336,-0.2720003 -0.378,-0.211 -0.407,-0.144 -0.427,-0.073 -0.216,-0.009"
       id="path4724" />
    <path
       style="fill:none;stroke:#ff0000;stroke-width:0.2;stroke-miterlimit:4;stroke-dasharray:none"
       d="m 19.75809,-11.141841 -0.216,0.009 -0.427,0.073 -0.407,0.144 -0.378,0.211 -0.336,0.272 -0.286,0.325 -0.227,0.368 -0.161,0.401 -0.091,0.423 -0.01425,0.324 -0.0047,0.108 0.055,0.429 0.127,0.414 0.195,0.386 0.257,0.3479999 0.312,0.2990001 0.358,0.2420001 0.394,0.1779999 0.419,0.109 0.431,0.037 0.431,-0.037 0.419,-0.109 0.394,-0.1779999 0.358,-0.2420001 0.312,-0.2990001 0.257,-0.3479999 0.195,-0.386 0.127,-0.414 0.055,-0.429 -0.0048,-0.108 -0.01425,-0.324 -0.091,-0.423 -0.161,-0.401 -0.227,-0.368 -0.286,-0.325 -0.336,-0.272 -0.378,-0.211 -0.407,-0.144 -0.427,-0.073 -0.216,-0.009"
       id="path4726" />
    <path
       style="fill:none;stroke:#ff0000;stroke-width:0.2;stroke-miterlimit:4;stroke-dasharray:none"
       d="m 19.75809,-21.141841 -0.216,0.009 -0.427,0.073 -0.407,0.144 -0.378,0.211 -0.336,0.272 -0.286,0.325 -0.227,0.368 -0.161,0.401 -0.091,0.423 -0.019,0.432 0.055,0.429 0.127,0.414 0.195,0.386 0.257,0.348 0.128348,0.123 0.183652,0.176 0.358,0.242 0.394,0.178 0.419,0.109 0.431,0.037 0.431,-0.037 0.419,-0.109 0.394,-0.178 0.358,-0.242 0.183652,-0.176 0.128348,-0.123 0.257,-0.348 0.195,-0.386 0.127,-0.414 0.055,-0.429 -0.019,-0.432 -0.091,-0.423 -0.161,-0.401 -0.227,-0.368 -0.286,-0.325 -0.336,-0.272 -0.378,-0.211 -0.407,-0.144 -0.427,-0.073 -0.216,-0.009"
       id="path4728" />
    <path
       style="fill:none;stroke:#ff0000;stroke-width:0.2;stroke-miterlimit:4;stroke-dasharray:none"
       d="m 0.0048385,-39.220003 -0.21599897,0.009 -0.427,0.073 -0.05653,0.02 -0.35047393,0.124001 -0.3779975,0.211002 -0.336001,0.272 -0.286001,0.324999 -0.226999,0.368 -0.160999,0.401001 -0.091,0.423 -0.019,0.431999 0.055,0.428999 0.126999,0.414002 0.195002,0.385999 0.229675,0.310999 0.02733,0.037 0.311998,0.299 0.3580019,0.242 0.39399856,0.178 0.41900097,0.109001 0.43099897,0.037 0.43100003,-0.037 0.41900087,-0.109001 0.3939993,-0.178 0.3580001,-0.242 0.312,-0.299 0.02733,-0.037 0.229675,-0.310999 0.195,-0.385999 0.127,-0.414002 0.055,-0.428999 -0.019,-0.431999 -0.091,-0.423 -0.161008,-0.401004 -0.227001,-0.368 -0.286,-0.324999 -0.336,-0.272 -0.3780001,-0.211002 -0.35047217,-0.124001 -0.05653,-0.02 -0.42700003,-0.073 -0.216,-0.009"
       id="path4904" />
  </g>
</svg>
