<?xml version="1.0" encoding="UTF-8" standalone="no"?>
<svg
   width="321.66214mm"
   height="139.74014mm"
   viewBox="-124.745 -55.099998 321.66215 139.74015"
   version="1.1"
   id="svg8"
   sodipodi:docname="Rotary plates_V2_P03.svg"
   inkscape:version="1.1.2 (0a00cf5339, 2022-02-04, custom)"
   xmlns:inkscape="http://www.inkscape.org/namespaces/inkscape"
   xmlns:sodipodi="http://sodipodi.sourceforge.net/DTD/sodipodi-0.dtd"
   xmlns="http://www.w3.org/2000/svg"
   xmlns:svg="http://www.w3.org/2000/svg"
   xmlns:rdf="http://www.w3.org/1999/02/22-rdf-syntax-ns#"
   xmlns:cc="http://creativecommons.org/ns#"
   xmlns:dc="http://purl.org/dc/elements/1.1/">
  <defs
     id="defs12" />
  <sodipodi:namedview
     id="namedview10"
     pagecolor="#ffffff"
     bordercolor="#666666"
     borderopacity="1.0"
     inkscape:pageshadow="2"
     inkscape:pageopacity="0.0"
     inkscape:pagecheckerboard="0"
     inkscape:document-units="mm"
     showgrid="false"
     inkscape:zoom="0.4308875"
     inkscape:cx="799.51263"
     inkscape:cy="215.8336"
     inkscape:window-width="1920"
     inkscape:window-height="1147"
     inkscape:window-x="1912"
     inkscape:window-y="-8"
     inkscape:window-maximized="1"
     inkscape:current-layer="svg8"
     fit-margin-top="0"
     fit-margin-left="0"
     fit-margin-right="0"
     fit-margin-bottom="0"
     inkscape:snap-global="false"
     showborder="true"
     inkscape:document-rotation="0" />
  <title
     id="title2">svgOutput</title>
  <desc
     id="desc4">made with tinkercad</desc>
  <metadata
     id="metadata847">
    <rdf:RDF>
      <cc:Work
         rdf:about="">
        <dc:title>svgOutput</dc:title>
        <dc:format>image/svg+xml</dc:format>
        <dc:type
           rdf:resource="http://purl.org/dc/dcmitype/StillImage" />
      </cc:Work>
    </rdf:RDF>
  </metadata>
  <circle
     inkscape:export-ydpi="95.599998"
     inkscape:export-xdpi="95.599998"
     style="fill:none;stroke:#000000;stroke-width:0.225127;stroke-linecap:square;stroke-miterlimit:4;stroke-dasharray:none"
     id="circle3010"
     cx="-183.93755"
     cy="-34.668224"
     r="4.8874369"
     transform="scale(-1)" />
  <circle
     inkscape:export-ydpi="95.599998"
     inkscape:export-xdpi="95.599998"
     style="fill:none;stroke:#000000;stroke-width:0.225127;stroke-linecap:square;stroke-miterlimit:4;stroke-dasharray:none"
     id="circle3012"
     cx="-144.23766"
     cy="-34.668468"
     r="4.8874369"
     transform="scale(-1)" />
  <circle
     inkscape:export-ydpi="95.599998"
     inkscape:export-xdpi="95.599998"
     style="fill:none;stroke:#000000;stroke-width:0.225127;stroke-linecap:square;stroke-miterlimit:4;stroke-dasharray:none"
     id="circle3014"
     cx="-183.93759"
     cy="5.332983"
     r="4.8874369"
     transform="scale(-1)" />
  <circle
     inkscape:export-ydpi="95.599998"
     inkscape:export-xdpi="95.599998"
     style="fill:none;stroke:#000000;stroke-width:0.225127;stroke-linecap:square;stroke-miterlimit:4;stroke-dasharray:none"
     id="circle3016"
     cx="-144.23097"
     cy="5.3331966"
     r="4.8874369"
     transform="scale(-1)" />
  <path
     inkscape:export-ydpi="95.599998"
     inkscape:export-xdpi="95.599998"
     style="fill:none;stroke:#000000;stroke-width:0.25;stroke-miterlimit:4;stroke-dasharray:none"
     d="m 185.45371,6.717022 0.27501,-0.242 0.05,-0.044 0.272,-0.336 0.211,-0.378 0.144,-0.407 0.073,-0.427 0.009,-0.216 -0.009,-0.216 -0.073,-0.427 -0.144,-0.407 -0.211,-0.378 -0.272,-0.336 -0.32501,-0.286 -0.36799,-0.227 -0.0274,-0.011 -0.3736,-0.15 -0.423,-0.091 -0.432,-0.019 -0.429,0.055 -0.414,0.127 -0.1544,0.078 -0.2316,0.117 -0.348,0.257 -0.299,0.312 -0.242,0.358 -0.178,0.394 -0.109,0.419 -0.037,0.431 0.037,0.431 0.109,0.419 0.178,0.394 0.242,0.358 0.19742,0.206 0.10158,0.106 0.348,0.257 0.386,0.195 0.414,0.127 0.429,0.055 0.432,-0.019 0.423,-0.091 0.40099,-0.161 0.368,-0.227"
     id="path3020" />
  <path
     inkscape:export-ydpi="95.599998"
     inkscape:export-xdpi="95.599998"
     style="fill:none;stroke:#000000;stroke-width:0.25;stroke-miterlimit:4;stroke-dasharray:none"
     d="m 155.8957,-2.832978 h 8.192 8.192 1.808 l 0.411,-0.034 0.401,-0.101 0.378,-0.166 0.346,-0.226 0.303,-0.28 0.254,-0.326 0.196,-0.363 0.135,-0.39 0.067,-0.408 v -0.412 l -0.045,-0.274 -0.022,-0.134 -0.135,-0.39 -0.196,-0.363 -0.254,-0.326 -0.303,-0.28 -0.346,-0.226 -0.378,-0.166 -0.401,-0.101 -0.411,-0.034 h -1.808 -8.192 -8.192 -1.808 l -0.411,0.034 -0.401,0.101 -0.378,0.166 -0.346,0.226 -0.303,0.28 -0.254,0.326 -0.196,0.363 -0.135,0.39 -0.022,0.134 -0.045,0.274 v 0.412 l 0.067,0.408 0.135,0.39 0.196,0.363 0.254,0.326 0.303,0.28 0.346,0.226 0.378,0.166 0.401,0.101 0.411,0.034 h 1.808"
     id="path3024" />
  <path
     inkscape:export-ydpi="95.599998"
     inkscape:export-xdpi="95.599998"
     style="fill:none;stroke:#000000;stroke-width:0.25;stroke-miterlimit:4;stroke-dasharray:none"
     d="m 162.4027,6.581622 0.348,0.257 0.386,0.195 0.414,0.127 0.429,0.055 0.108,-0.005 0.324,-0.0143 0.423,-0.091 0.401,-0.161 0.368,-0.227 0.275,-0.242 0.05,-0.044 0.272,-0.336 0.211,-0.378 0.144,-0.407 0.073,-0.427 v -0.432 l -0.073,-0.427 -0.144,-0.407 -0.211,-0.378 -0.272,-0.336 -0.325,-0.286 -0.368,-0.227 -0.401,-0.161 -0.423,-0.091 -0.324,-0.0143 -0.108,-0.005 -0.429,0.055 -0.414,0.127 -0.386,0.195 -0.348,0.257 -0.299,0.312 -0.242,0.358 -0.178,0.394 -0.109,0.419 -0.037,0.431 0.037,0.431 0.109,0.419 0.178,0.394 0.242,0.35795 0.19742,0.206 0.10158,0.106"
     id="path3028" />
  <path
     inkscape:export-ydpi="95.599998"
     inkscape:export-xdpi="95.599998"
     style="fill:none;stroke:#000000;stroke-width:0.25;stroke-miterlimit:4;stroke-dasharray:none"
     d="m 145.3857,6.944622 0.368,-0.227 0.275,-0.242 0.05,-0.044 0.272,-0.336 0.211,-0.378 0.144,-0.407 0.073,-0.427 v -0.432 l -0.073,-0.427 -0.144,-0.407 -0.211,-0.378 -0.272,-0.336 -0.325,-0.286 -0.368,-0.227 -0.0274,-0.011 -0.3736,-0.15 -0.423,-0.091 -0.432,-0.019 -0.429,0.055 -0.414,0.127 -0.1544,0.078 -0.2316,0.117 -0.348,0.257 -0.299,0.312 -0.242,0.358 -0.178,0.394 -0.109,0.419 -0.037,0.431 0.037,0.431 0.109,0.419 0.178,0.394 0.242,0.358 0.19742,0.206 0.10158,0.106 0.348,0.257 0.386,0.195 0.414,0.127 0.429,0.055 0.432,-0.019 0.423,-0.091 0.401,-0.161"
     id="path3030" />
  <path
     inkscape:export-ydpi="95.599998"
     inkscape:export-xdpi="95.599998"
     style="fill:none;stroke:#000000;stroke-width:0.25;stroke-miterlimit:4;stroke-dasharray:none"
     d="m 185.0857,16.944622 0.368,-0.227 0.325,-0.286 0.272,-0.336 0.211,-0.378 0.144,-0.407 0.073,-0.427 0.009,-0.216 -0.009,-0.216 -0.073,-0.427 -0.144,-0.407 -0.211,-0.378 -0.272,-0.336 -0.325,-0.286 -0.368,-0.227 -0.401,-0.161 -0.117,-0.0252 -0.306,-0.0658 -0.432,-0.019 -0.429,0.055 -0.414,0.127 -0.386,0.195 -0.348,0.257 -0.299,0.312 -0.242,0.358 -0.178,0.394 -0.109,0.419 -0.037,0.431 0.037,0.431 0.109,0.419 0.178,0.394 0.242,0.358 0.299,0.312 0.348,0.257 0.386,0.195 0.414,0.127 0.429,0.055 0.432,-0.019 0.306,-0.0658 0.117,-0.0252 0.401,-0.161"
     id="path3032" />
  <path
     inkscape:export-ydpi="95.599998"
     inkscape:export-xdpi="95.599998"
     style="fill:none;stroke:#000000;stroke-width:0.25;stroke-miterlimit:4;stroke-dasharray:none"
     d="m 184.6847,27.105622 0.3736,-0.15 0.0274,-0.011 0.368,-0.227 0.325,-0.286 0.272,-0.336 0.211,-0.378 0.144,-0.407 0.073,-0.427 0.009,-0.216 -0.009,-0.216 -0.073,-0.427 -0.144,-0.407 -0.211,-0.378 -0.272,-0.336 -0.05,-0.044 -0.275,-0.242 -0.368,-0.227 -0.401,-0.161 -0.423,-0.091 -0.432,-0.019 -0.429,0.055 -0.414,0.127 -0.386,0.195 -0.348,0.257 -0.10158,0.106 -0.19742,0.206 -0.242,0.358 -0.178,0.394 -0.109,0.419 -0.037,0.431 0.037,0.431 0.109,0.419 0.178,0.394 0.242,0.358 0.299,0.312 0.348,0.257 0.2316,0.117 0.1544,0.078 0.414,0.127 0.429,0.055 0.432,-0.019 0.423,-0.091"
     id="path3034" />
  <path
     inkscape:export-ydpi="95.599998"
     inkscape:export-xdpi="95.599998"
     style="fill:none;stroke:#000000;stroke-width:0.25;stroke-miterlimit:4;stroke-dasharray:none"
     d="m 172.40272,16.581622 0.348,0.257 0.386,0.195 0.414,0.127 0.429,0.055 0.432,-0.019 0.423,-0.091 0.401,-0.161 0.368,-0.227 0.325,-0.286 0.272,-0.336 0.211,-0.378 0.144,-0.407 0.073,-0.427 0.009,-0.216 -0.009,-0.216 -0.073,-0.427 -0.144,-0.407 -0.211,-0.378 -0.272,-0.336 -0.325,-0.286 -0.368,-0.227 -0.401,-0.161 -0.423,-0.091 -0.432,-0.019 -0.429,0.055 -0.414,0.127 -0.386,0.195 -0.348,0.257 -0.123,0.12835 -0.176,0.18365 -0.242,0.358 -0.13082,0.28958 -0.0472,0.10442 -0.109,0.419 -0.037,0.431 0.037,0.431 0.109,0.419 0.178,0.394 0.242,0.358 0.176,0.18365 0.123,0.12835"
     id="path3036" />
  <path
     inkscape:export-ydpi="95.599998"
     inkscape:export-xdpi="95.599998"
     style="fill:none;stroke:#000000;stroke-width:0.25;stroke-miterlimit:4;stroke-dasharray:none"
     d="m 164.83472,17.106222 0.401,-0.161 0.368,-0.227 0.325,-0.286 0.272,-0.336 0.211,-0.378 0.144,-0.407 0.073,-0.427 0.009,-0.216 -0.009,-0.216 -0.073,-0.427 -0.144,-0.407 -0.211,-0.378 -0.272,-0.336 -0.325,-0.286 -0.368,-0.227 -0.401,-0.161 -0.423,-0.091 -0.324,-0.0143 -0.108,-0.005 -0.429,0.055 -0.414,0.127 -0.386,0.195 -0.348,0.257 -0.299,0.312 -0.242,0.358 -0.178,0.394 -0.109,0.419 -0.037,0.431 0.037,0.431 0.109,0.419 0.178,0.394 0.242,0.358 0.299,0.312 0.348,0.257 0.386,0.195 0.414,0.127 0.429,0.055 0.108,-0.005 0.324,-0.0143 0.423,-0.091"
     id="path3038" />
  <path
     inkscape:export-ydpi="95.599998"
     inkscape:export-xdpi="95.599998"
     style="fill:none;stroke:#000000;stroke-width:0.25;stroke-miterlimit:4;stroke-dasharray:none"
     d="m 155.60382,16.718082 0.292,-0.25696 0.033,-0.029 0.272,-0.336 0.211,-0.378 0.144,-0.407 0.073,-0.427 0.009,-0.21605 -0.009,-0.216 -0.073,-0.427 -0.144,-0.407 -0.211,-0.378 -0.272,-0.336 -0.033,-0.029 -0.292,-0.25696 -0.368,-0.227 -0.401,-0.161 -0.423,-0.091 -0.432,-0.019 -0.429,0.055 -0.414,0.127 -0.386,0.195 -0.348,0.257 -0.299,0.312 -0.242,0.358 -0.062,0.13723 -0.116,0.25677 -0.109,0.419 -0.037,0.431 0.037,0.431 0.109,0.419 0.116,0.25676 0.062,0.13724 0.242,0.358 0.299,0.312 0.348,0.257 0.386,0.195 0.414,0.127 0.429,0.055 0.432,-0.019 0.423,-0.091 0.401,-0.161 0.368,-0.227"
     id="path3042" />
  <path
     inkscape:export-ydpi="95.599998"
     inkscape:export-xdpi="95.599998"
     style="fill:none;stroke:#000000;stroke-width:0.25;stroke-miterlimit:4;stroke-dasharray:none"
     d="m 161.57482,25.099682 0.109,0.419 0.178,0.394 0.242,0.358 0.299,0.312 0.348,0.257 0.386,0.195 0.414,0.127 0.429,0.055 0.108,-0.005 0.324,-0.0143 0.423,-0.091 0.401,-0.161 0.368,-0.227 0.325,-0.286 0.272,-0.336 0.211,-0.378 0.144,-0.407 0.073,-0.427 0.009,-0.216 -0.009,-0.216 -0.073,-0.427 -0.144,-0.407 -0.211,-0.378 -0.272,-0.336 -0.05,-0.044 -0.275,-0.242 -0.368,-0.227 -0.401,-0.161 -0.423,-0.091 -0.324,-0.0143 -0.108,-0.005 -0.429,0.055 -0.414,0.127 -0.386,0.195 -0.348,0.257 -0.10159,0.106 -0.19741,0.206 -0.242,0.358 -0.178,0.394 -0.109,0.419 -0.037,0.431 0.037,0.431"
     id="path3044" />
  <path
     inkscape:export-ydpi="95.599998"
     inkscape:export-xdpi="95.599998"
     style="fill:none;stroke:#000000;stroke-width:0.25;stroke-miterlimit:4;stroke-dasharray:none"
     d="m 144.69482,18.239632 0.597,-0.129 0.567,-0.227 0.52,-0.321 0.458,-0.403 0.384,-0.475 0.297,-0.533 0.186,-0.52518 0.018,-0.0508 0.103,-0.602 0.013,-0.305 -0.013,-0.305 -0.103,-0.602 -0.018,-0.0508 -0.186,-0.52517 -0.297,-0.533 -0.384,-0.475 -0.458,-0.403 -0.52,-0.321 -0.567,-0.227 -0.597,-0.129 -0.61,-0.026 -0.477,0.0615 -0.128,0.0165 -0.584,0.179 -0.546,0.274 -0.49,0.364 -0.423,0.44 -0.342,0.506 -0.251,0.557 -0.154,0.591 -0.052,0.608 0.052,0.608 0.154,0.591 0.251,0.557 0.342,0.506 0.423,0.44 0.49,0.364 0.546,0.274 0.584,0.179 0.128,0.0165 0.477,0.0615 0.61,-0.026"
     id="path3046" />
  <path
     inkscape:export-ydpi="95.599998"
     inkscape:export-xdpi="95.599998"
     style="fill:none;stroke:#000000;stroke-width:0.25;stroke-miterlimit:4;stroke-dasharray:none"
     d="m 141.72482,25.099632 0.109,0.419 0.178,0.394 0.242,0.358 0.299,0.312 0.348,0.257 0.2316,0.117 0.1544,0.078 0.414,0.127 0.429,0.055 0.432,-0.019 0.423,-0.091 0.3736,-0.15 0.0274,-0.011 0.368,-0.227 0.325,-0.286 0.272,-0.336 0.211,-0.378 0.144,-0.407 0.073,-0.427 0.009,-0.216 -0.009,-0.216 -0.073,-0.427 -0.144,-0.407 -0.211,-0.378 -0.272,-0.336 -0.05,-0.044 -0.275,-0.242 -0.368,-0.227 -0.401,-0.161 -0.423,-0.091 -0.432,-0.019 -0.429,0.055 -0.414,0.127 -0.386,0.195 -0.348,0.257 -0.10158,0.106 -0.19742,0.206 -0.242,0.358 -0.178,0.394 -0.109,0.419 -0.037,0.431 0.037,0.431"
     id="path3048" />
  <path
     inkscape:export-ydpi="95.599998"
     inkscape:export-xdpi="95.599998"
     style="fill:none;stroke:#000000;stroke-width:0.25;stroke-miterlimit:4;stroke-dasharray:none"
     d="m 155.89582,37.168532 h 8.192 8.192 1.808 l 0.411,-0.034 0.401,-0.101 0.378,-0.166 0.346,-0.226 0.303,-0.28 0.254,-0.326 0.196,-0.363 0.135,-0.39 0.022,-0.134 0.045,-0.274 v -0.412 l -0.067,-0.408 -0.135,-0.39 -0.196,-0.363 -0.254,-0.326 -0.303,-0.28 -0.346,-0.226 -0.378,-0.166 -0.401,-0.101 -0.411,-0.034 h -1.808 -8.192 -8.192 -1.808 l -0.411,0.034 -0.401,0.101 -0.378,0.166 -0.346,0.226 -0.303,0.28 -0.254,0.326 -0.195,0.36115 -0.001,0.002 -0.135,0.39 -0.067,0.408 v 0.412 l 0.045,0.274 0.022,0.134 0.135,0.39 0.196,0.363 0.254,0.326 0.303,0.28 0.346,0.226 0.378,0.166 0.401,0.101 0.411,0.034 h 1.808"
     id="path3052" />
  <ellipse
     ry="3.9099491"
     rx="3.9099493"
     cy="46.552887"
     cx="38.219967"
     id="ellipse2958"
     style="fill:none;stroke:#000000;stroke-width:0.180102;stroke-linecap:square;stroke-miterlimit:4;stroke-dasharray:none" />
  <path
     sodipodi:nodetypes="ccccccccccccccccccccccccccccccccccccccccccccccccccccccccccccccccccccccccccccccccccccccccccccccccccccccccccccccccccccccccccccccccccccccccccccccccccccccccccccccccccccccccccccccccccccccccccccccccccccccccccccccccccccccccccccccccccccccccccccccccccccccccccccccccccccccccccccccccccccccccccccccccccccccccccccccccccccccccccccccccccccccccccccccccccccccccccccccccccccccccccccccccccccccccccccccccccccccccccccccccccccccccccccccccccccccccccccccccccccccccccccccccccccccccccccccccccccccccccccccccccccccccccccccccccccccccccccccccccccccccccccccccccccccccccccccccccccccccccccccccccccccccccccccccccccccccccccccccccccccccccccccccccccccccccccccccccccccccccccccccccccccccccccccccccccccccccccccccccccccccccccccccccccccccccccccccccccccccccccccccccccccccccccccccccccccccccccccccccc"
     d="m -120.84147,-29.650198 -0.46922,0.0372 -0.45785,0.11007 -0.43512,0.17983 -0.40101,0.24598 -0.3576,0.30593 -0.30592,0.35812 -0.2465,0.40101 -0.17983,0.43511 -0.11007,0.45785 -0.0367,0.46923 v 5.17384 4.09588 4.09588 0.15141 0.82786 0.86919 0.93432 1.14928 1.36064 1.90324 0.99633 4.09586997 4.09588003 4.09639 0.64906 0.8692 0.93379 1.14981 0.49402 8.19175 4.0964 4.09587 5.17385 l 0.0367,0.46922 0.11007,0.45786 0.17983,0.43511 0.2465,0.40101 0.30592,0.35812 0.3576,0.30592 0.40101,0.24598 0.43512,0.17984 0.45785,0.11007 0.46922,0.0372 h 1.07797 0.74311 v 0.0966 h 0.86507 8.19226 16.383491 16.384012 8.192264 2.047939 0.230992 l 0.234095,-0.0966 h 5.129403 0.916739 l 0.15658,0.0801 0.278535,0.14159 0.193789,0.13746 0.06201,0.0444 0.424781,0.30179 0.141075,0.13488 0.03049,0.0294 0.43098,0.41341 0.145727,0.1881 0.304893,0.39326 0.06046,0.078 0.11679,0.20723 0.03824,0.0677 0.255281,0.45268 0.08372,0.21859 0.0016,0.003 0.01394,0.0372 0.199472,0.51935 v 5.3e-4 l 0.05219,0.23203 0.01707,0.076 0.11317,0.50643 0.01757,0.23719 0.03204,0.43615 0.01188,0.15968 v 0.004 1.88413 4.09587 16.38402 4.09588 2.04794 0.18552 0.003 l 0.02376,0.42426 0.06563,1.17771 0.04392,0.25838 0.02687,0.1602 0.197921,1.16272 0.117822,0.40772 0.09147,0.31729 0.235127,0.81598 0.162264,0.39222 0.347265,0.83975 0.103355,0.25011 h 5.29e-4 l 0.189135,0.3421 0.01603,0.0295 0.570508,1.03198 0.245981,0.34571 0.0341,0.0486 0.648023,0.91416 0.0021,0.003 0.280604,0.31367 0.250632,0.28009 0.480589,0.537434 0.05478,0.06098 5.3e-4,0.0011 0.316775,0.28267 0.879017,0.785482 0.316259,0.224793 0.02997,0.02119 0.946713,0.671793 0.01394,0.0098 0.0011,5.29e-4 0.371552,0.205155 0.684715,0.378791 0.347266,0.19172 0.392739,0.162779 1.088822,0.451652 0.0036,0.0011 0.215489,0.06201 0.189135,0.05426 1.132748,0.326077 0.418578,0.07131 0.783416,0.132811 0.379822,0.06459 0.423746,0.02376 0.76843,0.04341 0.409276,0.02326 h 0.0052 3.681947 4.095874 7.133416 32.7680238 16.3840132 16.384013 16.384013 16.384013 16.38246 4.095875 2.739884 0.01498 l 1.341003,-0.05168 0.581361,-0.02222 0.70435,-0.02687 0.46922,-0.05426 1.441257,-0.166399 0.699699,-0.08113 0.200503,-0.03876 1.687754,-0.32763 0.69144,-0.133842 1.71669,-0.471289 0.13798,-0.03824 c 9.27736,-12.943574 7.4355,-59.337286 8.8e-4,-65.782806 l -0.13798,-0.0377 -1.71669,-0.47129 -0.69144,-0.13436 -1.68775,-0.32711 -0.200504,-0.0388 -1.847432,-0.21394 -0.06305,-0.007 -0.699698,-0.0811 -0.703834,-0.0269 -0.581361,-0.0222 -1.341004,-0.0517 -2.755386,-0.004 -0.698148,-10e-4 -3.397727,-0.003 -4.095874,-0.004 -0.356566,-5.3e-4 -0.54312,0.87747 -0.343131,0.55449 -0.125058,0.20205 -0.03307,0.0532 -0.389638,0.63045 -0.430467,0.60772 -0.88315,1.24747 -0.05943,0.0842 -0.43098,0.60926 -0.472839,0.58756 -0.02842,0.0357 -0.923975,1.14774 -0.309025,0.38447 -0.223242,0.2775 -0.497129,0.54519 -1.034044,1.1343 -0.0832,0.0909 -0.489376,0.53692 -5.29e-4,5.2e-4 -0.519864,0.50385 -0.01603,0.0155 -1.02216,0.99116 -0.07338,0.0713 -0.07545,0.0729 -0.534334,0.51831 -0.0016,0.001 -1.615406,1.38441 -0.109037,0.0935 -0.643888,0.55191 -0.0011,10e-4 -0.01963,0.0145 -1.794209,1.35495 -0.04289,0.032 -0.635105,0.47956 -1.623672,1.07591 -0.271301,0.17983 -0.471807,0.31264 -0.236162,0.15658 -1.968354,1.13688 -0.08733,0.0501 -0.648023,0.37414 -0.413411,0.20567 -0.250114,0.12454 -1.371491,0.68316 -0.760161,0.37879 -0.684713,0.28939 -1.029393,0.43563 -0.379307,0.16072 -0.237712,0.10025 -0.544669,0.23099 -0.0031,10e-4 -2.140953,0.75448 -0.790133,0.27854 -0.01085,0.004 -0.817004,0.23203 -1.922881,0.54725 -0.263033,0.0744 -0.0011,5.3e-4 -1.081072,0.23668 -1.138433,0.24959 -0.829924,0.18139 -0.72967,0.11369 -1.397847,0.21704 -0.11834,0.0181 -0.830956,0.12919 -0.0083,0.002 h -5.29e-4 l -0.762227,0.0703 -0.328147,0.0305 -1.172538,0.10852 -0.09974,0.009 -0.0093,5.3e-4 -0.736905,0.0682 -0.02946,10e-4 -2.242759,0.0692 -0.849042,0.0258 -0.849043,-0.0258 -0.15503,-0.005 -2.116667,-0.0656 -0.746207,-0.0687 -0.09974,-0.009 -1.133263,-0.10491 -1.129647,-0.10438 -0.0072,-0.002 -0.832509,-0.12919 -2.126485,-0.33021 -0.119888,-0.0186 h -0.0011 l -0.828374,-0.18139 -2.220018,-0.48679 -0.263035,-0.0744 -0.461987,-0.13177 -0.09198,-0.0258 -0.109556,-0.0315 -2.076876,-0.59015 -0.8015,-0.28267 -1.218014,-0.42943 -0.213424,-0.0749 -0.712102,-0.25115 -0.544669,-0.23099 -0.237193,-0.10026 -1.409735,-0.59634 -0.683678,-0.28939 -0.01241,-0.006 -0.28267,-0.14108 -0.465087,-0.23151 -1.371492,-0.68316 -0.663527,-0.33021 -0.648023,-0.37414 -0.08733,-0.0501 -0.85962,-0.49723 -1.107943,-0.63976 -0.236159,-0.15657 -0.472324,-0.31265 -1.281575,-0.84956 -0.6128834,-0.40618 -0.3849899,-0.29094 -0.2501133,-0.18861 -0.042892,-0.032 -1.8117741,-1.36788 -0.00159,-0.002 -0.00672,-0.006 -0.6387201,-0.54723 -0.1090375,-0.0935 -1.235583,-1.05833 -0.3798199,-0.32556 -0.00159,-0.002 -0.6097826,-0.59118 -0.073382,-0.0713 -1.0226754,-0.99167 -0.5358844,-0.51935 -0.5725742,-0.62787 -0.90020508,-0.98702 -0.63096774,-0.69246 -0.22376075,-0.2775 -0.2444274,-0.30386 -0.064595,-0.0801 -1.33842123,-1.66399 -0.086299,-0.10748 -0.4909265,-0.6935 -0.8826341,-1.24747 -0.1338421,-0.18862 -0.2924863,-0.41341 -0.00413,-0.006 -0.3911891,-0.63304 -0.031522,-0.0506 -0.4681907,-0.75654 -0.5426022,-0.87747 -2.3657454,0.003 -4.0168096,0.004 -0.07958,5.3e-4 -2.715596,0.004 h -1.380274 -4.095875 -4.095874 l -0.228928,-0.016 -0.25218,-0.0176 h -0.0031 l -0.318844,-0.0222 -0.224274,-0.0486 -0.56224,-0.12092 -0.0021,-10e-4 -0.212905,-0.0786 -0.08992,-0.0331 -0.06304,-0.0233 -0.09095,-0.0336 -0.296106,-0.10904 -0.201538,-0.10852 -0.08371,-0.0455 -0.42323,-0.22841 -0.184486,-0.13591 -0.128159,-0.0946 -0.08785,-0.0651 -0.246496,-0.1819 -0.163296,-0.16071 -0.06718,-0.0662 -0.04703,-0.0465 -0.118854,-0.11679 -0.176733,-0.17466 -0.43615,-0.49455 -2.517674,-2.85461 -3.612701,-4.09587 -0.652674,-0.74001 -6.572726,-7.45226 -2.415355,-2.73834 -1.197342,-1.35754 -2.898532,-3.28662 -0.714169,-0.80925 -3.381705,-3.83491 -0.230476,-0.26149 -3.6127,-4.09587 -0.252699,-0.28629 -1.626256,-1.84382 v -0.74024 -5.17385 l -0.03721,-0.46922 -0.110069,-0.45786 -0.179835,-0.43511 -0.245981,-0.40101 -0.305924,-0.35812 -0.358116,-0.30592 -0.401011,-0.24598 -0.435115,-0.17984 -0.457853,-0.11007 -0.468704,-0.0372 h -1.077857 -4.096391 -8.191748 -8.192266 -8.191748 -8.192261 -8.191745 -8.19226 -4.09588 z m 120.7869397,58.11173 0.45320214,0.06 0.22995995,0.0956 0.19223831,0.0796 0.3627676,0.27802 0.2780188,0.36225 0.1751833,0.42168 0.058912,0.4532 -0.043926,0.33487 -0.014975,0.11782 -0.1751833,0.42219 -0.2780188,0.36277 -0.36276759,0.27802 -0.42219827,0.17519 -0.45320214,0.0589 -0.45268627,-0.0589 -0.4221956,-0.17519 -0.36173573,-0.27802 -0.2780188,-0.36277 -0.1751833,-0.42219 -0.015505,-0.11782 -0.044442,-0.33487 0.059944,-0.4532 0.1751832,-0.42168 0.2780189,-0.36225 0.36173573,-0.27802 0.4221956,-0.17518 z m 76.4320283,0 0.279569,0.0372 0.173633,0.0227 0.422195,0.17518 0.361736,0.27802 0.278019,0.36226 0.175183,0.42167 0.05994,0.45321 -0.04444,0.33486 -0.0155,0.11782 -0.175183,0.4222 -0.278019,0.36277 -0.361735,0.27802 -0.422196,0.17518 -0.453202,0.0589 -0.452686,-0.0589 -0.422196,-0.17518 -0.36277,-0.27802 -0.278019,-0.36277 -0.175183,-0.4222 -0.01551,-0.11782 -0.04341,-0.33486 0.05891,-0.45321 0.175183,-0.42167 0.278019,-0.36226 0.36277,-0.27802 0.422196,-0.17518 0.173633,-0.0227 z m -71.1000525,11.41792 1.5363402,0.0522 1.5141178,0.25528 1.467612,0.45475 1.3931955,0.64699 1.295011,0.82682 1.173056,0.99219 1.030944,1.13895 0.869198,1.26607 0.692981,1.37201 0.0155,0.046 0.488344,1.40509 0.305924,1.50481 0.101801,1.53324 -0.101801,1.53273 -0.305924,1.50533 -0.503846,1.45159 -0.692981,1.37098 -0.869198,1.26608 -1.030944,1.13998 -1.173057,0.99115 -1.295011,0.82682 -1.3931949,0.64699 -1.467612,0.45527 -1.5141128,0.25477 -1.5363401,0.0522 -0.5529395,-0.0558 -0.9746165,-0.0982 -1.494999,-0.35605 -1.43298858,-0.5519 -1.34720279,-0.73897 -1.23713603,-0.91106 -1.1038073,-1.06815 -0.9518809,-1.20613 -0.7834127,-1.32085 -0.5999639,-1.4149 -0.4056618,-1.48105 -0.2051552,-1.52291 v -1.53582 l 0.2051552,-1.52342 0.4056618,-1.48105 0.2847367,-0.67076 0.3152272,-0.74414 0.7834127,-1.32085 0.9518809,-1.20613 1.1038073,-1.06763 1.23713603,-0.91106 1.34720279,-0.73897 1.43298858,-0.55243 1.494999,-0.35604 0.9746165,-0.0982 z m 64.9991305,0 1.535309,0.0522 1.514636,0.25528 1.468125,0.45475 1.393198,0.64699 1.295011,0.82682 1.173054,0.99219 1.029912,1.13895 0.869715,1.26607 0.69298,1.37201 0.01601,0.046 0.488341,1.40509 0.305925,1.50481 0.101803,1.53324 -0.101803,1.53273 -0.305925,1.50533 -0.504362,1.45159 -0.692981,1.37098 -0.869714,1.26608 -1.029912,1.13998 -1.173054,0.99115 -1.295011,0.82682 -1.393198,0.64699 -1.468125,0.45527 -1.514637,0.25477 -1.535308,0.0522 -0.01601,-0.002 -1.512054,-0.15245 -1.494999,-0.35605 -1.432989,-0.5519 -1.346687,-0.73897 -1.237133,-0.91106 -1.10381,-1.06815 -0.953429,-1.20614 -0.781865,-1.32084 -0.599963,-1.4149 -0.406176,-1.48105 -0.204639,-1.52291 v -1.53582 l 0.204639,-1.52342 0.406176,-1.48105 0.284736,-0.67076 0.315227,-0.74414 0.781865,-1.32085 0.953429,-1.20613 1.10381,-1.06815 1.237133,-0.91055 1.346687,-0.73897 1.432989,-0.55242 1.494999,-0.35605 1.512054,-0.15193 z m -43.452644,4.02818 0.452686,0.0589 0.422196,0.17518 0.361735,0.27802 0.279054,0.36277 0.04134,0.10025 0.132807,0.32194 0.05994,0.4532 -0.05994,0.45269 -0.174148,0.4222 -0.279054,0.36173 -0.04651,0.0362 -0.315227,0.24185 -0.422196,0.17518 -0.453202,0.0599 -0.452686,-0.0599 -0.422196,-0.17518 -0.315227,-0.24185 -0.04651,-0.0362 -0.278019,-0.36173 -0.10387,-0.25115 -0.07131,-0.17105 -0.05994,-0.45269 0.05994,-0.4532 0.07131,-0.17105 0.06253,-0.15089 0.04134,-0.10025 0.278019,-0.36277 0.361736,-0.27802 0.422196,-0.17518 z m 22.675619,0 0.28112,0.0367 0.172082,0.0222 0.42168,0.17518 0.362252,0.27802 0.278019,0.36277 0.175183,0.42219 0.05994,0.4532 -0.05994,0.45269 -0.175183,0.4222 -0.278019,0.36173 -0.04703,0.0362 -0.315225,0.24185 -0.42168,0.17518 -0.453202,0.0599 -0.452686,-0.0599 -0.422196,-0.17518 -0.315227,-0.24185 -0.04702,-0.0362 -0.278538,-0.36173 -0.174148,-0.4222 -0.05994,-0.45269 0.05994,-0.4532 0.174148,-0.42219 0.278538,-0.36277 0.362251,-0.27802 0.422196,-0.17518 z m -64.999133,11.43186 0.453202,0.0599 0.422198,0.17519 0.362768,0.27801 0.278018,0.36226 0.174149,0.42168 0.05995,0.4532 -0.05995,0.45268 -0.174149,0.4222 -0.278018,0.36329 -0.362768,0.2775 -0.422198,0.17519 -0.453202,0.0589 -0.255797,-0.0331 -0.19689,-0.0259 -0.422195,-0.17519 -0.361736,-0.2775 -0.278019,-0.36329 -0.175183,-0.4222 -0.05994,-0.45268 0.05994,-0.4532 0.175183,-0.42168 0.278019,-0.36225 0.361736,-0.27802 0.422195,-0.17519 0.19689,-0.0258 z m 107.322131,0 0.453203,0.0599 0.421679,0.17519 0.362252,0.27801 0.278019,0.36226 0.175183,0.42168 0.05994,0.4532 -0.01085,0.0811 -0.04909,0.37155 -0.175183,0.4222 -0.278019,0.36329 -0.362251,0.2775 -0.42168,0.17518 -0.453202,0.0589 -0.452687,-0.0589 -0.422195,-0.17518 -0.207224,-0.15813 -0.155546,-0.11937 -0.278019,-0.36329 -0.174149,-0.4222 -0.05995,-0.45268 0.05995,-0.4532 0.174149,-0.42169 0.278019,-0.36225 0.155546,-0.11937 0.207224,-0.15865 0.422195,-0.17518 z m -53.660806,9.87227 0.889868,0.10077 0.844909,0.29507 0.759127,0.47698 0.633037,0.63304 0.476972,0.75912 0.296106,0.84491 0.09974,0.88987 -0.09974,0.89039 -0.296106,0.84594 -0.476972,0.75809 -0.633037,0.63356 -0.759127,0.47646 -0.844909,0.29558 -0.889868,0.10025 -0.669211,-0.0754 -0.22066,-0.0248 -0.846457,-0.29558 -0.757579,-0.47646 -0.633034,-0.63355 -0.476975,-0.7581 -0.296106,-0.84594 -0.100251,-0.89038 0.100251,-0.88988 0.296106,-0.8449 0.476975,-0.75913 0.633034,-0.63304 0.757579,-0.47697 0.846457,-0.29507 0.22066,-0.0248 z m -26.782863,5.57383 0.452686,0.0599 0.422196,0.17415 0.361735,0.27802 0.160198,0.20877 0.117821,0.154 0.02326,0.0558 0.151929,0.36638 0.05994,0.4532 -0.05994,0.45269 -0.151929,0.3669 -0.02326,0.0553 -0.278019,0.36174 -0.361735,0.27802 -0.422196,0.17518 -0.452686,0.0599 -0.453202,-0.0599 -0.422196,-0.17517 -0.362767,-0.27803 -0.2780218,-0.36173 -0.1751807,-0.4222 -0.058912,-0.45268 0.058912,-0.4532 0.1751807,-0.4222 0.1178242,-0.154 0.1601976,-0.20877 0.362767,-0.27802 0.422196,-0.17415 z m 53.565723,0 0.453202,0.0599 0.42168,0.17415 0.363286,0.27802 0.160195,0.20877 0.117824,0.154 0.174665,0.42219 0.05943,0.4532 -0.05943,0.45269 -0.174665,0.42219 -0.278019,0.36174 -0.0181,0.0139 -0.3452,0.26407 -0.421679,0.17519 -0.453202,0.0599 -0.452687,-0.0599 -0.422195,-0.17519 -0.362252,-0.27802 -0.278019,-0.36174 -0.174667,-0.42219 -0.05994,-0.45269 0.05994,-0.4532 0.174667,-0.4222 0.118338,-0.15399 0.159681,-0.20878 0.362252,-0.27801 0.422195,-0.17415 z"
     style="fill:none;stroke:#000000;stroke-width:0.2;stroke-miterlimit:4;stroke-dasharray:none"
     id="path2960" />
  <path
     inkscape:export-ydpi="95.599998"
     inkscape:export-xdpi="95.599998"
     id="path3008"
     style="fill:none;stroke:#000000;stroke-width:0.2;stroke-miterlimit:4;stroke-dasharray:none"
     d="m 193.81731,47.466672 0.46922,-0.0372 0.45785,-0.11007 0.43512,-0.17984 0.40101,-0.24598 0.3576,-0.30592 0.30592,-0.35812 0.2465,-0.40101 0.17983,-0.43511 0.11007,-0.45785 0.0367,-0.46923 v -5.17384 -4.09588 -4.09588 -0.15141 -0.82785 -0.8692 -0.93431 -1.14929 -1.36064 -1.90324 -0.99632 -4.09588 -4.09588 -4.09638 -0.64906 -0.8692 -0.93379 -1.1498 -0.49404 -8.19173 -4.0964 -4.09587 -5.17384 l -0.0367,-0.46923 -0.11007,-0.45785 -0.17983,-0.43512 -0.2465,-0.401 -0.30592,-0.35812 -0.3576,-0.30593 -0.40101,-0.24598 -0.43512,-0.17983 -0.45785,-0.11007 -0.46922,-0.0372 h -1.07797 -0.68833 v -0.045 h -5.2e-4 -1.8619 -3.08973 -1.41852 -2.58279 -9.29297 -16.38401 -16.38091 -1.06144 -4.09587 -3.54811 -0.19688 -0.3514 -0.14986 v -5.44307 -16.38402 -0.7922 l -0.0274,-0.4563 -0.0765,-1.26711 -0.22945,-1.25005 -0.0605,-0.33021 -0.0217,-0.11886 -0.37723,-1.21181 -0.13592,-0.43667 -0.1266,-0.2806 -0.39533,-0.87798 -0.18758,-0.41703 -5.2e-4,-5.2e-4 -0.45475,-0.75241 -0.20154,-0.33331 -0.23616,-0.39119 -5.2e-4,-0.001 -0.78289,-0.99839 -0.25425,-0.32453 -0.0279,-0.0357 -5.2e-4,-5.1e-4 -0.34882,-0.34882 -0.87178,-0.87178 -0.99993,-0.78393 -0.009,-0.007 -0.16692,-0.13074 -0.18345,-0.14418 -1.08624,-0.65629 -0.39171,-0.23668 -0.38654,-0.17415 -0.77153,-0.34726 -0.41702,-0.18759 -0.85938,-0.26768 -0.35347,-0.10956 -0.43615,-0.13642 h -0.002 l -1.24747,-0.22893 -0.009,-0.002 -0.4408,-0.0806 -1.26711,-0.0765 -0.34003,-0.0207 -0.11627,-0.007 h -1.93218 -7.13342 -8.19226 -8.191752 -4.095875 -4.09639 -4.095874 -4.095872 -4.095874 -4.095874 -4.096391 -4.095874 -8.191749 -8.192264 -8.191749 -8.192264 -8.191749 -8.192264 -4.095875 -4.095874 -4.09639 -4.095875 -4.095871 -4.095874 -4.096391 -4.095874 -3.245797 l -0.850077,0.0517 -0.417547,0.0248 -0.455785,0.0279 -1.174607,0.21549 -0.07441,0.0134 -0.450101,0.0827 -0.43615,0.13591 -1.087271,0.339 -0.125574,0.0387 -0.417028,0.1881 -1.158582,0.5209 -0.003,0.002 -0.34417,0.20826 -0.0439,0.0269 -1.08624,0.65733 -0.34985,0.27336 -0.0103,0.008 -0.55759,0.43667 -0.44183,0.34623 -0.32298,0.32349 -0.89814,0.89762 -0.003,0.003 -0.0253,0.032 -0.25425,0.32402 -0.78341,0.99993 -0.23616,0.39119 -0.20154,0.33332 -0.45527,0.75344 v 5.2e-4 l -0.18758,0.41651 -0.28681,0.63613 -0.10852,0.24133 -0.12402,0.27544 -0.002,0.005 -0.37724,1.21233 -0.1359,0.43666 -0.0217,0.11834 -0.061,0.33125 -0.22892,1.24902 -0.0274,0.4563 -10e-4,0.0114 -0.076,1.25574 v 0.7922 16.38401 8.19175 4.09639 2.87889 l 0.0279,0.45579 0.0455,0.76119 0.0305,0.50436 0.22841,1.24747 0.0543,0.29611 0.0279,0.15348 0.37673,1.21078 0.13539,0.43614 0.11162,0.24753 0.12557,0.28009 0.28319,0.62942 0.18707,0.41651 0.43615,0.72192 0.21962,0.36432 0.23616,0.39119 0.68575,0.87695 0.0956,0.12196 0.22996,0.29352 0.0512,0.0661 0.001,5.2e-4 0.89504,0.89762 0.32246,0.32298 0.45269,0.35553 0.51676,0.40566 0.0279,0.0217 0.35915,0.28215 10e-4,5.2e-4 1.08417,0.6568 0.0589,0.0357 0.33125,0.20102 1.155999,0.52245 0.415994,0.18759 0.144695,0.0455 0.301274,0.0946 0.765328,0.23978 0.435631,0.13643 h 5.16e-4 l 0.448554,0.0832 0.09715,0.0176 1.149803,0.2129 h 5.16e-4 l 0.454752,0.0284 0.442868,0.0274 0.807701,0.0501 0.01551,10e-4 1.785419,0.003 1.487249,0.004 2.038633,0.005 2.057241,0.005 4.095872,0.01 0.09199,5.2e-4 1.377177,0.007 0.0052,-0.004 0.345199,-0.3023 0.228925,-0.20567 0.01654,-0.015 0.338997,-0.30385 0.09405,-0.0837 0.0021,-0.002 0.532784,-0.43615 0.750858,-0.61391 0.313161,-0.23461 0.238744,-0.17932 0.234095,-0.17518 0.43098,-0.32298 0.113689,-0.0853 0.569476,-0.39274 0.460952,-0.31781 0.342616,-0.23667 0.418061,-0.2558 0.448035,-0.27441 0.316259,-0.19327 0.476975,-0.29197 0.04599,-0.0284 1.144117,-0.70073 0.0057,-0.003 0.354499,-0.18655 0.543637,-0.28629 0.326078,-0.17208 1.275376,-0.67128 0.446484,-0.23513 0.01499,-0.008 0.412377,-0.18758 0.855763,-0.38861 0.76481,-0.34727 0.05736,-0.0258 0.502293,-0.22789 0.468191,-0.21239 1.02009,-0.40101 0.03824,-0.0145 0.777729,-0.30541 1.231967,-0.48369 0.06666,-0.0263 1.102776,-0.37311 0.772046,-0.26148 0.106971,-0.0362 0.665591,-0.22531 0.555006,-0.18759 0.516763,-0.14934 0.681096,-0.19637 0.699182,-0.20206 0.978236,-0.28267 0.362768,-0.1049 0.0067,-0.002 0.650605,-0.16072 h 0.001 l 0.544669,-0.13435 0.482142,-0.11886 1.211297,-0.29869 0.0078,-0.002 0.828889,-0.17363 0.383958,-0.0806 1.386477,-0.29146 0.329179,-0.0692 1.727028,-0.30385 0.269751,-0.0475 0.933275,-0.16382 0.01757,-0.003 0.800984,-0.11472 0.296106,-0.0419 0.639754,-0.0915 0.406694,-0.0584 0.820621,-0.11731 0.180869,-0.0202 1.052132,-0.11627 0.995804,-0.11059 0.748273,-0.0832 0.01705,-10e-4 0.822172,-0.0656 0.397909,-0.032 0.06253,-0.005 1.688269,-0.13488 0.359669,-0.0176 0.880049,-0.0439 1.167887,-0.0584 0.586528,-0.0289 h 0.0067 l 1.454693,-0.0295 0.284736,-0.006 0.405659,-0.008 0.829408,-0.0171 h 0.01447 l 0.218591,5.2e-4 0.230476,-0.006 h 5.16e-4 l 0.06459,-0.0692 0.164333,-0.17622 5.16e-4,-5.1e-4 0.01085,0.0114 0.01033,0.0114 0.0052,0.005 0.200504,0.21446 h 0.001 l 0.98547,0.0202 0.669727,0.01 0.438216,0.007 0.322977,0.0124 1.286743,0.0506 0.145727,0.006 0.334348,0.0134 0.07545,0.003 0.824757,0.0326 h 0.0062 l 0.661458,0.046 0.576707,0.0398 1.471229,0.10129 0.273886,0.0191 0.0067,5.1e-4 1.230415,0.12248 0.536919,0.0537 0.347266,0.0346 0.858345,0.0853 0.842325,0.11007 0.392224,0.0512 1.655715,0.21653 0.08371,0.0108 0.0052,0.001 0.823206,0.13436 0.908989,0.14831 0.227375,0.0367 0.187587,0.031 0.809252,0.13177 1.336871,0.26304 0.03462,0.007 0.350366,0.0687 0.48731,0.0961 0.728639,0.14366 0.161229,0.0372 1.045932,0.24391 1.002006,0.23358 0.704866,0.1633 0.577226,0.16123 0.765844,0.21446 0.366903,0.10232 1.681033,0.47077 0.40101,0.11213 0.336931,0.0941 1.193726,0.38757 0.116271,0.0382 0.727605,0.23616 0.0036,0.001 1.176673,0.41961 0.140041,0.0501 0.686263,0.24495 0.0083,0.003 1.353408,0.53744 0.08888,0.0357 0.04547,0.0176 0.464571,0.18449 0.58756,0.23306 0.861446,0.3855 0.595829,0.26614 1.031462,0.46147 h 5.19e-4 l 0.420645,0.21187 0.572058,0.28784 0.432014,0.21704 1.008208,0.50746 0.03566,0.0202 1.349791,0.76481 0.698148,0.39532 0.252698,0.14314 0.02791,0.0155 0.0026,0.002 1.334802,0.85731 0.429948,0.27647 0.511079,0.32814 0.0057,0.003 0.770496,0.56585 0.132292,0.0966 0.628385,0.46095 0.342615,0.25115 0.302823,0.22169 0.851628,0.72037 0.351398,0.29714 0.199472,0.16898 0.649574,0.54931 0.296105,0.28526 0.0031,0.003 0.323493,0.31109 0.0057,0.005 0.26665,0.25683 0.128159,0.11885 0.05012,5.2e-4 h 0.04547 l 0.172601,5.2e-4 0.107487,5.1e-4 h 0.03359 l 0.195336,5.2e-4 h 0.112138 l 0.235646,5.2e-4 h 0.09819 l 0.08785,5.1e-4 0.391708,5.2e-4 h 0.03411 0.01912 0.01964 0.0016 0.0093 0.0124 0.01602 0.0124 0.02687 l 0.04031,5.2e-4 h 0.04031 0.04083 0.04031 l 2.628265,0.005 4.095874,0.008 8.470803,0.0155 1.05936,0.11627 1.01079,0.33693 0.91623,0.54313 0.7798,0.72606 0.55862,0.64284 3.58841,4.13154 0.7059,0.81287 20.66024,23.7877 1.00872,1.00666 0.67334,0.50333 v 4.97799 l 0.0372,0.46922 0.11007,0.45785 0.17984,0.43512 0.24598,0.40101 0.30592,0.35812 0.35812,0.30592 0.40101,0.24598 0.43511,0.17983 0.45786,0.11007 0.4687,0.0372 h 1.07797 4.09639 8.19175 8.19227 8.19174 8.19226 8.19175 8.19226 4.09588 z m -200.240488,-54.00292 -0.711584,-0.094 -0.663009,-0.27492 -0.304374,-0.23306 -0.265618,-0.20412 -0.437181,-0.56896 -0.273886,-0.66404 -0.09405,-0.71107 0.09405,-0.71158 0.273886,-0.66301 0.437181,-0.56999 0.569992,-0.43718 0.663009,-0.27492 0.711584,-0.093 0.0041,5.2e-4 0.707967,0.0925 0.663009,0.27492 0.569989,0.43718 0.437184,0.56999 0.273884,0.66301 0.09405,0.7121 -0.09405,0.71055 -0.273884,0.66404 -0.437184,0.56896 -0.266131,0.20412 -0.303858,0.23306 -0.663009,0.27492 -0.707967,0.0935 z m 82.25906,-0.001 -0.334862,-0.0439 -0.377238,-0.0491 -0.663008,-0.27492 -0.303858,-0.23306 -0.266134,-0.20412 -0.436666,-0.56999 -0.274918,-0.66301 -0.09302,-0.71158 0.09302,-0.71107 0.274918,-0.66405 0.436666,-0.56895 0.569992,-0.43718 0.663008,-0.27492 0.377238,-0.0496 0.334862,-0.0444 0.712102,0.0941 0.663009,0.27492 0.568958,0.43718 0.437181,0.56895 0.274921,0.66405 0.09405,0.71107 -0.09405,0.71158 -0.274921,0.66301 -0.437181,0.56999 -0.265618,0.20412 -0.30334,0.23306 -0.663009,0.27492 z m -64.61776,-2.12597 -1.190107,-0.0527 -0.06305,-0.015 -1.097092,-0.25425 -1.091922,-0.47697 -0.985986,-0.66714 -0.84801,-0.83613 -0.682131,-0.97668 -0.490926,-1.08521 -0.649055,-1.56011 -0.442867,-0.74259 -0.42323,-0.709 -1.063501,-1.31309 -1.241269,-1.14774 -1.392163,-0.95911 -1.513602,-0.74983 -1.606103,-0.52606 -1.665015,-0.29094 -1.191141,-0.0357 -0.239263,-0.007 -0.259932,-0.008 -1.678966,0.19121 -1.635043,0.42994 -1.557012,0.65888 -2.485636,1.49035 -1.136364,0.41186 -1.19166,0.19482 -1.208193,-0.0289 -1.181841,-0.25166 -1.115176,-0.46613 -1.008724,-0.66507 -0.869199,-0.84026 -0.698148,-0.98702 -0.118856,-0.2589 -0.38499,-0.83871 -0.290938,-1.17305 -0.01809,-0.31316 -0.05116,-0.894 0.15503,-1.19786 0.375171,-1.14929 0.214974,-0.39274 0.364837,-0.66714 0.767394,-0.93379 0.926558,-0.77619 2.052071,-1.30482 2.169377,-1.09813 2.267045,-0.88005 2.34301,-0.6537 2.394686,-0.4222 2.424141,-0.185 0.674894,0.015 1.756997,0.0388 2.413807,0.29145 2.374017,0.52659 2.312003,0.75602 2.22622,0.97927 2.118733,1.19269 1.992127,1.39424 1.190109,1.02009 0.656807,0.56276 1.682068,1.75596 1.502232,1.91203 0.07028,0.11007 1.237649,1.93993 1.101225,2.16938 0.882634,2.26549 0.2589,1.16221 0.02377,0.65525 0.01964,0.53485 -0.175184,1.17771 -0.386024,1.12706 -0.58601,1.03715 -0.183967,0.21911 -0.581877,0.69298 -0.919324,0.75809 -0.506947,0.28112 -0.533816,0.29559 -1.130165,0.37724 z m 46.976976,-10e-4 -1.179256,-0.16484 -1.129646,-0.37724 -0.865063,-0.47852 -0.17725,-0.0982 -0.918808,-0.75809 -0.580842,-0.69298 -0.183968,-0.22015 -0.586012,-1.03559 -0.387056,-1.12706 -0.175184,-1.17823 0.01912,-0.53485 0.02377,-0.65525 0.259934,-1.16169 0.883151,-2.26601 1.101224,-2.16938 1.236615,-1.93993 0.07028,-0.11007 1.502751,-1.91203 1.682067,-1.75596 0.326078,-0.27957 1.519804,-1.30328 1.993159,-1.39372 2.119252,-1.19321 2.225704,-0.97927 2.310968,-0.75654 2.375051,-0.52607 2.414323,-0.29093 1.425752,-0.032 1.005107,-0.0222 2.425174,0.185 2.394685,0.42116 2.341978,0.65371 2.267045,0.88108 2.169893,1.09813 2.052071,1.30482 0.927074,0.77619 0.765844,0.93379 0.03514,0.0641 0.546219,0.99632 0.374653,1.14877 0.15503,1.19786 -0.05116,0.894 -0.01757,0.31316 -0.291973,1.17202 -0.503328,1.09916 -0.211873,0.2992 -0.485759,0.68678 -0.869198,0.84078 -1.00924,0.66404 -1.114661,0.46716 -1.182356,0.25166 -1.207678,0.0295 -1.192175,-0.19534 -1.135849,-0.4129 -2.487186,-1.48983 -1.555978,-0.65836 -1.635043,-0.42994 v 5.1e-4 l -1.678966,-0.19223 -0.241848,0.007 -0.588076,0.0176 -0.859896,0.0258 -1.665015,0.29094 -1.606102,0.52606 -1.515155,0.75035 -1.391645,0.95859 -1.240235,1.14722 -1.064019,1.31413 -0.422711,0.709 -0.443384,0.74311 -0.649057,1.55959 -0.491958,1.08521 -0.68058,0.9772 -0.848011,0.83561 -0.985986,0.66714 -1.09244,0.47594 -1.159619,0.27027 -0.2682,0.0114 z m -23.489004,-3.42666 -0.164849,-0.0222 -0.650089,-0.0858 -0.760158,-0.31523 -0.652159,-0.50023 -0.500745,-0.65164 -0.314192,-0.76017 -0.108003,-0.81493 0.01188,-0.0889 0.09612,-0.72708 0.314192,-0.75913 0.500745,-0.65319 0.652159,-0.49971 0.760158,-0.31523 0.650089,-0.0853 0.164849,-0.0217 0.815972,0.10697 0.759127,0.31523 0.652671,0.49971 0.50023,0.65319 0.314708,0.75913 0.0956,0.72708 0.01137,0.0889 -0.106971,0.81493 -0.314708,0.76017 -0.50023,0.65164 -0.652671,0.50023 -0.759127,0.31523 z m -4.859134,-5.76709 -0.879017,-0.0641 -0.83199,-0.2899 -0.72812,-0.49506 -0.575675,-0.66611 -0.02584,-0.0527 -0.358119,-0.74104 -0.09922,-0.26252 -0.89607,-2.3766 -0.338479,-0.71623 -0.867648,-1.83296 -1.4087,-2.44275 -1.604036,-2.32027 -1.78697,-2.18075 -1.958019,-2.02881 -2.118217,-1.86346 -2.261878,-1.68465 -2.391069,-1.49396 v -5.2e-4 l -0.752925,-0.38964 -0.283189,-0.14624 -1.468643,-0.76016 -2.602942,-1.08676 -2.682007,-0.87126 -1.154967,-0.27389 -1.589051,-0.37724 -2.787943,-0.42478 -2.813265,-0.19585 -1.002006,0.0114 -1.817978,0.0217 -2.808097,0.262 -2.778125,0.48989 -0.787549,0.20619 -1.940448,0.50746 -2.660822,0.93431 -2.576068,1.14774 -0.748276,0.40928 -0.26665,0.14572 -1.45986,0.79841 -0.112654,0.0739 -2.242241,1.47691 -0.777213,0.4098 -0.855761,0.19637 -0.877982,-0.031 -0.840259,-0.25734 -0.745175,-0.46406 -0.599964,-0.64079 -0.413927,-0.77514 -0.201024,-0.85473 0.002,-0.078 0.0248,-0.79996 0.251669,-0.84129 0.460952,-0.74672 0.194304,-0.18397 0.4439,-0.42013 2.584855,-1.71204 2.705261,-1.51412 2.457733,-1.14205 0.353983,-0.16485 1.770433,-0.66714 1.130681,-0.42581 0.841293,-0.24702 2.133719,-0.6258 1.962156,-0.41909 1.069702,-0.2279 3.026172,-0.41289 0.04599,-0.006 3.094902,-0.18707 0.954979,0.014 2.145091,0.0315 1.951302,0.17467 1.135846,0.10232 2.960026,0.49041 0.0987,0.0165 3.01222,0.73483 0.984951,0.31988 1.96319,0.63821 0.07286,0.03 2.059821,0.84491 0.736391,0.30179 2.771923,1.38803 2.661335,1.59215 2.023134,1.42575 0.510561,0.36019 2.393138,1.97093 0.321426,0.308 1.916679,1.83709 2.071708,2.30632 0.978234,1.26814 0.915191,1.18649 1.704805,2.59003 1.504818,2.70991 1.298112,2.81636 0.623218,1.66967 0.460952,1.23403 0.164849,0.8661 -0.06408,0.87798 -0.288869,0.83302 -0.193789,0.28526 -0.301273,0.44287 -0.667142,0.57619 -0.792718,0.38395 -0.2682,0.0512 z m 9.718786,-5.2e-4 -0.865582,-0.16484 -0.06304,-0.0305 -0.730187,-0.35347 -0.667144,-0.57619 -0.301273,-0.44287 -0.193786,-0.28474 -0.288872,-0.83302 -0.06511,-0.87798 0.166399,-0.8661 0.45992,-1.23403 0.6227,-1.67018 1.299146,-2.81585 1.505334,-2.70991 1.703771,-2.59003 0.584978,-0.75861 1.308965,-1.69653 2.07119,-2.30581 1.917197,-1.83709 0.321427,-0.308 2.393135,-1.97093 0.179834,-0.12713 2.354379,-1.65985 2.66082,-1.59111 2.771923,-1.38803 0.405143,-0.1664 2.390034,-0.98082 0.07286,-0.03 1.632977,-0.5302 1.316199,-0.42788 2.779675,-0.678 0.232026,-0.0568 3.058211,-0.50695 0.806153,-0.0723 2.282032,-0.20464 1.813843,-0.0264 1.285708,-0.0186 2.810165,0.1695 0.285253,0.0176 3.071648,0.41909 0.738974,0.15762 2.293397,0.48937 1.802993,0.52865 1.172022,0.34417 1.130678,0.42581 1.76992,0.66714 0.02325,0.0109 2.787944,1.29604 2.705777,1.51412 2.584339,1.71204 0.113689,0.10749 0.524,0.49557 0.46096,0.74776 0.25321,0.84129 0.0248,0.79996 0.002,0.078 -0.20102,0.85473 -0.41393,0.77411 -0.601,0.64182 -0.744657,0.46406 -0.840258,0.25734 -0.876951,0.031 -0.077,-0.0181 -0.778764,-0.17828 -0.777213,-0.41083 -2.355929,-1.54977 -1.725994,-0.94413 -0.06408,-0.0352 -0.684196,-0.37413 -2.576071,-1.14774 -2.660819,-0.93431 v 5.2e-4 l -2.270662,-0.59428 -0.45837,-0.11989 -2.777093,-0.48989 -2.807578,-0.26303 -2.149223,-0.0243 -0.670761,-0.008 -2.813265,0.19637 -2.787943,0.42478 -1.920296,0.45579 -0.824756,0.19534 -2.682008,0.87126 -2.601907,1.08676 -1.470194,0.76016 -0.612884,0.31677 -0.422195,0.21808 -2.391588,1.495 -2.262394,1.68516 -2.116666,1.86294 -1.959052,2.02882 -1.786972,2.18126 -1.603002,2.31976 -1.41025,2.44326 -0.867132,1.83296 -0.338998,0.71572 -0.993738,2.63911 -0.232026,0.47956 -0.126606,0.26148 -0.02532,0.0532 -0.576191,0.66559 -0.728639,0.49506 -0.83199,0.28991 z m -4.62349,-21.24676 -0.938446,-0.0589 -0.894,-0.29094 -0.711587,-0.45113 -0.08216,-0.0517 -0.64389,-0.68626 -0.452168,-0.82321 -0.234095,-0.91054 v -0.93999 l 0.234095,-0.91002 0.452168,-0.82424 0.64389,-0.68523 0.79375,-0.50385 0.894,-0.2899 0.537435,-0.0336 0.401011,-0.0253 0.92294,0.1757 0.850594,0.39997 0.723987,0.59945 0.553455,0.76067 0.345715,0.87437 0.117306,0.93173 -0.117306,0.93327 -0.345715,0.87385 -0.553455,0.75965 -0.453202,0.37517 -0.270785,0.22427 -0.850594,0.40101 z"
     sodipodi:nodetypes="cccccccccccccccccccccccccccccccccccccccccccccccccccccccccccccccccccccccccccccccccccccccccccccccccccccccccccccccccccccccccccccccccccccccccccccccccccccccccccccccccccccccccccccccccccccccccccccccccccccccccccccccccccccccccccccccccccccccccccccccccccccccccccccccccccccccccccccccccccccccccccccccccccccccccccccccccccccccccccccccccccccccccccccccccccccccccccccccccccccccccccccccccccccccccccccccccccccccccccccccccccccccccccccccccccccccccccccccccccccccccccccccccccccccccccccccccccccccccccccccccccccccccccccccccccccccccccccccccccccccccccccccccccccccccccccccccccccccccccccccccccccccccccccccccccccccccccccccccccccccccccccccccccccccccccccccccccccccccccccccccccccccccccccccccccccccccccccccccccccccccccccccccccccccccccccccccccccccccccccccccccccccccccccccccccccccccccccccccccccccccccccccccccccccccccccccccccccccccccccccccccccccccccccccccccccccccccccccccccccccccccccccccccccccccccccccccccccccccccccccccccccccccccccccccccccccccccccccccccccccccccccccccccccccccccccccccccccccccccccccccc" />
  <circle
     r="4.8874369"
     cy="-16.883898"
     cx="-111.10344"
     id="circle2962"
     style="fill:none;stroke:#000000;stroke-width:0.225127;stroke-linecap:square;stroke-miterlimit:4;stroke-dasharray:none" />
  <circle
     r="4.8874369"
     cy="-16.884142"
     cx="-71.403435"
     id="circle2964"
     style="fill:none;stroke:#000000;stroke-width:0.225127;stroke-linecap:square;stroke-miterlimit:4;stroke-dasharray:none" />
  <circle
     r="4.8874369"
     cy="23.117338"
     cx="-111.10344"
     id="circle2966"
     style="fill:none;stroke:#000000;stroke-width:0.225127;stroke-linecap:square;stroke-miterlimit:4;stroke-dasharray:none" />
  <circle
     r="4.8874369"
     cy="23.117582"
     cx="-71.396851"
     id="circle2968"
     style="fill:none;stroke:#000000;stroke-width:0.225127;stroke-linecap:square;stroke-miterlimit:4;stroke-dasharray:none" />
  <path
     id="path2972"
     d="m -112.61959,11.067312 -0.27501,0.242 -0.05,0.044 -0.272,0.336 -0.211,0.378 -0.144,0.407 -0.073,0.427 -0.009,0.216 0.009,0.216 0.073,0.427 0.144,0.407 0.211,0.378 0.272,0.336 0.32501,0.286 0.36799,0.227 0.0274,0.011 0.3736,0.15 0.423,0.091 0.432,0.019 0.429,-0.055 0.414,-0.127 0.1544,-0.078 0.2316,-0.117 0.348,-0.257 0.299,-0.312 0.242,-0.358 0.178,-0.394 0.109,-0.419 0.037,-0.431 -0.037,-0.431 -0.109,-0.419 -0.178,-0.394 -0.242,-0.358 -0.19742,-0.206 -0.10158,-0.106 -0.348,-0.257 -0.386,-0.195 -0.414,-0.127 -0.429,-0.055 -0.432,0.019 -0.423,0.091 -0.40099,0.161 -0.368,0.227"
     style="fill:none;stroke:#000000;stroke-width:0.25;stroke-miterlimit:4;stroke-dasharray:none" />
  <path
     id="path2976"
     d="m -83.061587,20.617312 h -8.191994 -8.192004 -1.807995 l -0.411,0.034 -0.401,0.101 -0.378,0.166 -0.346,0.22601 -0.303,0.28 -0.254,0.326 -0.196,0.363 -0.135,0.39 -0.067,0.408 v 0.412 l 0.045,0.274 0.022,0.134 0.135,0.39 0.196,0.363 0.254,0.326 0.303,0.28 0.346,0.226 0.378,0.166 0.401,0.101 0.411,0.034 h 1.807995 8.192004 8.191994 1.808 l 0.411,-0.034 0.401,-0.101 0.378,-0.166 0.346,-0.226 0.303,-0.28 0.254,-0.326 0.196,-0.363 0.135,-0.39 0.022,-0.134 0.045,-0.274 v -0.412 l -0.067,-0.408 -0.135,-0.39 -0.196,-0.363 -0.254,-0.326 -0.303,-0.28 -0.346,-0.22601 -0.378,-0.166 -0.401,-0.101 -0.411,-0.034 h -1.808"
     style="fill:none;stroke:#000000;stroke-width:0.25;stroke-miterlimit:4;stroke-dasharray:none" />
  <path
     id="path2980"
     d="m -89.568581,11.202712 -0.348,-0.257 -0.386,-0.195 -0.414,-0.127 -0.429,-0.055 -0.108,0.005 -0.324,0.0143 -0.423,0.091 -0.401,0.161 -0.368,0.227 -0.275,0.242 -0.05,0.044 -0.272,0.336 -0.211,0.378 -0.144,0.407 -0.073,0.427 v 0.432 l 0.073,0.427 0.144,0.407 0.211,0.378 0.272,0.336 0.325,0.286 0.368,0.227 0.401,0.161 0.423,0.091 0.324,0.0143 0.108,0.005 0.429,-0.055 0.414,-0.127 0.386,-0.195 0.348,-0.257 0.299,-0.312 0.242,-0.358 0.178,-0.394 0.109,-0.419 0.037,-0.431 -0.037,-0.431 -0.109,-0.419 -0.178,-0.394 -0.242,-0.35795 -0.19742,-0.206 -0.10158,-0.106"
     style="fill:none;stroke:#000000;stroke-width:0.25;stroke-miterlimit:4;stroke-dasharray:none" />
  <path
     id="path2982"
     d="m -72.551583,10.839712 -0.367997,0.227 -0.275,0.242 -0.05,0.044 -0.272,0.336 -0.211,0.378 -0.144,0.407 -0.073,0.427 v 0.432 l 0.073,0.427 0.144,0.407 0.211,0.378 0.272,0.336 0.325,0.286 0.367997,0.227 0.0274,0.011 0.3736,0.15 0.423,0.091 0.432,0.019 0.429,-0.055 0.414,-0.127 0.1544,-0.078 0.2316,-0.117 0.348,-0.257 0.299,-0.312 0.242,-0.358 0.178,-0.394 0.109,-0.419 0.037,-0.431 -0.037,-0.431 -0.109,-0.419 -0.178,-0.394 -0.242,-0.358 -0.19742,-0.206 -0.10158,-0.106 -0.348,-0.257 -0.386,-0.195 -0.414,-0.127 -0.429,-0.055 -0.432,0.019 -0.423,0.091 -0.401,0.161"
     style="fill:none;stroke:#000000;stroke-width:0.25;stroke-miterlimit:4;stroke-dasharray:none" />
  <path
     id="path2984"
     d="m -112.25158,0.83971197 -0.368,0.22700003 -0.325,0.286 -0.272,0.336 -0.211,0.378 -0.144,0.407 -0.073,0.427 -0.009,0.216 0.009,0.216 0.073,0.427 0.144,0.407 0.211,0.378 0.272,0.336 0.325,0.286 0.368,0.227 0.401,0.161 0.117,0.0252 0.306,0.0658 0.432,0.019 0.429,-0.055 0.414,-0.127 0.386,-0.195 0.348,-0.257 0.299,-0.312 0.242,-0.358 0.178,-0.394 0.109,-0.419 0.037,-0.431 -0.037,-0.431 -0.109,-0.419 -0.178,-0.394 -0.242,-0.358 -0.299,-0.312 -0.348,-0.25700003 -0.386,-0.195 -0.414,-0.127 -0.429,-0.055 -0.432,0.019 -0.306,0.0658 -0.117,0.0252 -0.401,0.161"
     style="fill:none;stroke:#000000;stroke-width:0.25;stroke-miterlimit:4;stroke-dasharray:none" />
  <path
     id="path2986"
     d="m -111.85058,-9.321298 -0.3736,0.15 -0.0274,0.011 -0.368,0.227 -0.325,0.286 -0.272,0.336 -0.211,0.378 -0.144,0.407 -0.073,0.427 -0.009,0.216 0.009,0.216 0.073,0.427 0.144,0.407 0.211,0.378 0.272,0.336 0.05,0.044 0.275,0.242 0.368,0.227 0.401,0.161 0.423,0.091 0.432,0.019 0.429,-0.055 0.414,-0.127 0.386,-0.195 0.348,-0.257 0.10158,-0.106 0.19742,-0.206 0.242,-0.358 0.178,-0.394 0.109,-0.419 0.037,-0.431 -0.037,-0.431 -0.109,-0.419 -0.178,-0.394 -0.242,-0.358 -0.299,-0.312 -0.348,-0.257 -0.2316,-0.117 -0.1544,-0.078 -0.414,-0.127 -0.429,-0.055 -0.432,0.019 -0.423,0.091"
     style="fill:none;stroke:#000000;stroke-width:0.25;stroke-miterlimit:4;stroke-dasharray:none" />
  <path
     id="path2988"
     d="m -99.568605,1.202712 -0.348,-0.25700003 -0.385995,-0.195 -0.414,-0.127 -0.429,-0.055 -0.432,0.019 -0.423,0.091 -0.401,0.161 -0.368,0.22700003 -0.325,0.286 -0.272,0.336 -0.211,0.378 -0.144,0.407 -0.073,0.427 -0.009,0.216 0.009,0.216 0.073,0.427 0.144,0.407 0.211,0.378 0.272,0.336 0.325,0.286 0.368,0.227 0.401,0.161 0.423,0.091 0.432,0.019 0.429,-0.055 0.414,-0.127 0.385995,-0.195 0.348,-0.257 0.123,-0.12835 0.176,-0.18365 0.242007,-0.358 0.13082,-0.28958 0.0472,-0.10442 0.109,-0.419 0.037,-0.431 -0.037,-0.431 -0.109,-0.419 -0.178,-0.394 -0.242007,-0.358 -0.176,-0.18365 -0.123,-0.12835"
     style="fill:none;stroke:#000000;stroke-width:0.25;stroke-miterlimit:4;stroke-dasharray:none" />
  <path
     id="path2990"
     d="m -92.000601,0.67811197 -0.401,0.161 -0.368,0.22700003 -0.325,0.286 -0.272,0.336 -0.211,0.378 -0.144,0.407 -0.073,0.427 -0.009,0.216 0.009,0.216 0.073,0.427 0.144,0.407 0.211,0.378 0.272,0.336 0.325,0.286 0.368,0.227 0.401,0.161 0.423,0.091 0.324,0.0143 0.108,0.005 0.429,-0.055 0.414,-0.127 0.386,-0.195 0.348,-0.257 0.299,-0.312 0.242,-0.358 0.178,-0.394 0.109,-0.419 0.037,-0.431 -0.037,-0.431 -0.109,-0.419 -0.178,-0.394 -0.242,-0.358 -0.299,-0.312 -0.348,-0.25700003 -0.386,-0.195 -0.414,-0.127 -0.429,-0.055 -0.108,0.005 -0.324,0.0143 -0.423,0.091"
     style="fill:none;stroke:#000000;stroke-width:0.25;stroke-miterlimit:4;stroke-dasharray:none" />
  <path
     id="path2994"
     d="m -82.769607,1.066252 -0.292,0.25696 -0.033,0.029 -0.271997,0.336 -0.211,0.378 -0.144,0.407 -0.073,0.427 -0.009,0.21605 0.009,0.216 0.073,0.427 0.144,0.407 0.211,0.378 0.271997,0.336 0.033,0.029 0.292,0.25696 0.368,0.227 0.401,0.161 0.423,0.091 0.432,0.019 0.429,-0.055 0.414,-0.127 0.386,-0.195 0.348,-0.257 0.299,-0.312 0.242,-0.358 0.062,-0.13723 0.116,-0.25677 0.109,-0.419 0.037,-0.431 -0.037,-0.431 -0.109,-0.419 -0.116,-0.25676 -0.062,-0.13724 -0.242,-0.358 -0.299,-0.312 -0.348,-0.25700003 -0.386,-0.195 -0.414,-0.127 -0.429,-0.055 -0.432,0.019 -0.423,0.091 -0.401,0.161 -0.368,0.22700003"
     style="fill:none;stroke:#000000;stroke-width:0.25;stroke-miterlimit:4;stroke-dasharray:none" />
  <path
     id="path2996"
     d="m -88.740601,-7.315358 -0.109,-0.419 -0.178,-0.394 -0.242,-0.358 -0.299,-0.312 -0.348,-0.257 -0.386,-0.195 -0.414,-0.127 -0.429,-0.055 -0.108,0.005 -0.324,0.0143 -0.423,0.091 -0.401,0.161 -0.368,0.227 -0.325,0.286 -0.272,0.336 -0.211,0.378 -0.144,0.407 -0.073,0.427 -0.009,0.216 0.009,0.216 0.073,0.427 0.144,0.407 0.211,0.378 0.272,0.336 0.05,0.044 0.275,0.242 0.368,0.227 0.401,0.161 0.423,0.091 0.324,0.0143 0.108,0.005 0.429,-0.055 0.414,-0.127 0.386,-0.195 0.348,-0.257 0.10158,-0.106 0.19742,-0.206 0.242,-0.358 0.178,-0.394 0.109,-0.419 0.037,-0.431 -0.037,-0.431"
     style="fill:none;stroke:#000000;stroke-width:0.25;stroke-miterlimit:4;stroke-dasharray:none" />
  <path
     id="path2998"
     d="m -71.860603,-0.45530803 -0.597,0.129 -0.566997,0.227 -0.52,0.32101 -0.458,0.403 -0.384,0.47500003 -0.297,0.533 -0.186,0.52518 -0.018,0.0508 -0.103,0.602 -0.013,0.305 0.013,0.305 0.103,0.602 0.018,0.0508 0.186,0.52517 0.297,0.533 0.384,0.475 0.458,0.403 0.52,0.321 0.566997,0.227 0.597,0.129 0.61,0.026 0.477,-0.0615 0.128,-0.0165 0.584,-0.179 0.546,-0.274 0.49,-0.364 0.423,-0.44 0.342,-0.506 0.251,-0.557 0.154,-0.591 0.052,-0.608 -0.052,-0.608 -0.154,-0.591 -0.251,-0.557 -0.342,-0.50600003 -0.423,-0.44 -0.49,-0.364 -0.546,-0.27401 -0.584,-0.179 -0.128,-0.0165 -0.477,-0.0615 -0.61,0.026"
     style="fill:none;stroke:#000000;stroke-width:0.25;stroke-miterlimit:4;stroke-dasharray:none" />
  <path
     id="path3000"
     d="m -68.890603,-7.315308 -0.109,-0.419 -0.178,-0.394 -0.242,-0.358 -0.299,-0.312 -0.348,-0.257 -0.2316,-0.117 -0.1544,-0.078 -0.414,-0.127 -0.429,-0.055 -0.432,0.019 -0.423,0.091 -0.3736,0.15 -0.0274,0.011 -0.367997,0.227 -0.325,0.286 -0.272,0.336 -0.211,0.378 -0.144,0.407 -0.073,0.427 -0.009,0.216 0.009,0.216 0.073,0.427 0.144,0.407 0.211,0.378 0.272,0.336 0.05,0.044 0.275,0.242 0.367997,0.227 0.401,0.161 0.423,0.091 0.432,0.019 0.429,-0.055 0.414,-0.127 0.386,-0.195 0.348,-0.257 0.10158,-0.106 0.19742,-0.206 0.242,-0.358 0.178,-0.394 0.109,-0.419 0.037,-0.431 -0.037,-0.431"
     style="fill:none;stroke:#000000;stroke-width:0.25;stroke-miterlimit:4;stroke-dasharray:none" />
  <path
     id="path3004"
     d="m -83.061607,-19.384218 h -8.191994 -8.192004 -1.807995 l -0.411,0.034 -0.401,0.101 -0.378,0.166 -0.346,0.226 -0.303,0.28 -0.254,0.326 -0.196,0.363 -0.135,0.39 -0.022,0.134 -0.045,0.274 v 0.412 l 0.067,0.408 0.135,0.39001 0.196,0.363 0.254,0.326 0.303,0.28 0.346,0.226 0.378,0.166 0.401,0.101 0.411,0.034 h 1.807995 8.192004 8.191994 1.808 l 0.411,-0.034 0.401,-0.101 0.378,-0.166 0.346,-0.226 0.303,-0.28 0.254,-0.326 0.195,-0.36115 0.001,-0.002 0.135,-0.39001 0.067,-0.408 v -0.412 l -0.045,-0.274 -0.022,-0.134 -0.135,-0.39 -0.196,-0.363 -0.254,-0.326 -0.303,-0.28 -0.346,-0.226 -0.378,-0.166 -0.401,-0.101 -0.411,-0.034 h -1.808"
     style="fill:none;stroke:#000000;stroke-width:0.25;stroke-miterlimit:4;stroke-dasharray:none" />
</svg>
