  0
SECTION
  2
HEADER
  9
$ACADVER
  1
AC1009
  0
ENDSEC
  0
SECTION
  2
ENTITIES
  0
POLYLINE
  5
90
  8
Layer_0
  62
1
  66
1
  10
0
  20
0
  30
0
  0
VERTEX
  5
90
  8
Layer_0
  10
392.80603
  20
331.98694
  0
VERTEX
  5
91
  8
Layer_0
  10
392.40503
  20
331.82593
  0
VERTEX
  5
92
  8
Layer_0
  10
392.03705
  20
331.59894
  0
VERTEX
  5
93
  8
Layer_0
  10
391.71204
  20
331.31293
  0
VERTEX
  5
94
  8
Layer_0
  10
391.44003
  20
330.97693
  0
VERTEX
  5
95
  8
Layer_0
  10
391.22903
  20
330.59894
  0
VERTEX
  5
96
  8
Layer_0
  10
391.08505
  20
330.19193
  0
VERTEX
  5
97
  8
Layer_0
  10
391.01205
  20
329.76492
  0
VERTEX
  5
98
  8
Layer_0
  10
391.00305
  20
329.54892
  0
VERTEX
  5
99
  8
Layer_0
  10
391.01205
  20
329.33295
  0
VERTEX
  5
9a
  8
Layer_0
  10
391.08505
  20
328.90594
  0
VERTEX
  5
9b
  8
Layer_0
  10
391.22903
  20
328.49893
  0
VERTEX
  5
9c
  8
Layer_0
  10
391.44003
  20
328.12094
  0
VERTEX
  5
9d
  8
Layer_0
  10
391.71204
  20
327.78494
  0
VERTEX
  5
9e
  8
Layer_0
  10
392.03705
  20
327.49893
  0
VERTEX
  5
9f
  8
Layer_0
  10
392.40503
  20
327.27194
  0
VERTEX
  5
a0
  8
Layer_0
  10
392.80603
  20
327.11093
  0
VERTEX
  5
a1
  8
Layer_0
  10
393.22903
  20
327.01993
  0
VERTEX
  5
a2
  8
Layer_0
  10
393.66104
  20
327.00064
  0
VERTEX
  5
a3
  8
Layer_0
  10
394.09003
  20
327.05563
  0
VERTEX
  5
a4
  8
Layer_0
  10
394.50403
  20
327.18265
  0
VERTEX
  5
a5
  8
Layer_0
  10
394.89005
  20
327.37762
  0
VERTEX
  5
a6
  8
Layer_0
  10
395.23804
  20
327.63464
  0
VERTEX
  5
a7
  8
Layer_0
  10
395.53705
  20
327.94662
  0
VERTEX
  5
a8
  8
Layer_0
  10
395.77905
  20
328.30463
  0
VERTEX
  5
a9
  8
Layer_0
  10
395.95703
  20
328.69864
  0
VERTEX
  5
aa
  8
Layer_0
  10
396.06604
  20
329.11765
  0
VERTEX
  5
ab
  8
Layer_0
  10
396.10306
  20
329.54865
  0
VERTEX
  5
ac
  8
Layer_0
  10
396.06604
  20
329.97964
  0
VERTEX
  5
ad
  8
Layer_0
  10
395.95703
  20
330.39862
  0
VERTEX
  5
ae
  8
Layer_0
  10
395.77905
  20
330.79263
  0
VERTEX
  5
af
  8
Layer_0
  10
395.53705
  20
331.15063
  0
VERTEX
  5
b0
  8
Layer_0
  10
395.23804
  20
331.46265
  0
VERTEX
  5
b1
  8
Layer_0
  10
394.89005
  20
331.71964
  0
VERTEX
  5
b2
  8
Layer_0
  10
394.50403
  20
331.91464
  0
VERTEX
  5
b3
  8
Layer_0
  10
394.09003
  20
332.04163
  0
VERTEX
  5
b4
  8
Layer_0
  10
393.66104
  20
332.09662
  0
VERTEX
  5
b5
  8
Layer_0
  10
393.22903
  20
332.07733
  0
VERTEX
  5
b6
  8
Layer_0
  10
392.80603
  20
331.98633
  0
SEQEND
  0
POLYLINE
  5
b8
  8
Layer_0
  62
1
  70
1
  66
1
  10
0
  20
0
  30
0
  0
VERTEX
  5
b8
  8
Layer_0
  10
412.94595
  20
333.12033
  0
VERTEX
  5
b9
  8
Layer_0
  10
412.34894
  20
332.99133
  0
VERTEX
  5
ba
  8
Layer_0
  10
411.78195
  20
332.76434
  0
VERTEX
  5
bb
  8
Layer_0
  10
411.26196
  20
332.44333
  0
VERTEX
  5
bc
  8
Layer_0
  10
410.80396
  20
332.04034
  0
VERTEX
  5
bd
  8
Layer_0
  10
410.41995
  20
331.56534
  0
VERTEX
  5
be
  8
Layer_0
  10
410.12296
  20
331.03235
  0
VERTEX
  5
bf
  8
Layer_0
  10
409.91895
  20
330.45636
  0
VERTEX
  5
c0
  8
Layer_0
  10
409.81595
  20
329.85434
  0
VERTEX
  5
c1
  8
Layer_0
  10
409.80295
  20
329.54935
  0
VERTEX
  5
c2
  8
Layer_0
  10
409.81595
  20
329.24435
  0
VERTEX
  5
c3
  8
Layer_0
  10
409.91895
  20
328.64233
  0
VERTEX
  5
c4
  8
Layer_0
  10
410.12296
  20
328.06638
  0
VERTEX
  5
c5
  8
Layer_0
  10
410.41995
  20
327.53339
  0
VERTEX
  5
c6
  8
Layer_0
  10
410.80396
  20
327.05838
  0
VERTEX
  5
c7
  8
Layer_0
  10
411.26196
  20
326.6554
  0
VERTEX
  5
c8
  8
Layer_0
  10
411.78195
  20
326.33438
  0
VERTEX
  5
c9
  8
Layer_0
  10
412.34894
  20
326.10739
  0
VERTEX
  5
ca
  8
Layer_0
  10
412.94595
  20
325.97839
  0
VERTEX
  5
cb
  8
Layer_0
  10
413.55597
  20
325.95239
  0
VERTEX
  5
cc
  8
Layer_0
  10
414.16095
  20
326.0304
  0
VERTEX
  5
cd
  8
Layer_0
  10
414.74493
  20
326.20938
  0
VERTEX
  5
ce
  8
Layer_0
  10
415.29095
  20
326.4834
  0
VERTEX
  5
cf
  8
Layer_0
  10
415.78094
  20
326.84738
  0
VERTEX
  5
d0
  8
Layer_0
  10
416.20395
  20
327.28738
  0
VERTEX
  5
d1
  8
Layer_0
  10
416.54596
  20
327.7934
  0
VERTEX
  5
d2
  8
Layer_0
  10
416.79694
  20
328.35037
  0
VERTEX
  5
d3
  8
Layer_0
  10
416.95093
  20
328.94138
  0
VERTEX
  5
d4
  8
Layer_0
  10
417.00293
  20
329.54938
  0
VERTEX
  5
d5
  8
Layer_0
  10
416.95093
  20
330.15738
  0
VERTEX
  5
d6
  8
Layer_0
  10
416.79694
  20
330.74838
  0
VERTEX
  5
d7
  8
Layer_0
  10
416.54596
  20
331.30539
  0
VERTEX
  5
d8
  8
Layer_0
  10
416.20395
  20
331.8114
  0
VERTEX
  5
d9
  8
Layer_0
  10
415.78094
  20
332.25137
  0
VERTEX
  5
da
  8
Layer_0
  10
415.70435
  20
332.31732
  0
VERTEX
  5
db
  8
Layer_0
  10
415.61304
  20
332.39005
  0
VERTEX
  5
dc
  8
Layer_0
  10
415.49039
  20
332.4805
  0
VERTEX
  5
dd
  8
Layer_0
  10
415.16266
  20
332.6886
  0
VERTEX
  5
de
  8
Layer_0
  10
414.74493
  20
332.88937
  0
VERTEX
  5
df
  8
Layer_0
  10
414.16095
  20
333.06839
  0
VERTEX
  5
e0
  8
Layer_0
  10
413.55594
  20
333.14639
  0
VERTEX
  5
e1
  8
Layer_0
  10
412.94595
  20
333.12033
  0
SEQEND
  0
POLYLINE
  5
e3
  8
Layer_0
  62
1
  70
1
  66
1
  10
0
  20
0
  30
0
  0
VERTEX
  5
e3
  8
Layer_0
  10
369.11517
  20
351.2348
  0
VERTEX
  5
e4
  8
Layer_0
  10
368.64594
  20
351.19763
  0
VERTEX
  5
e5
  8
Layer_0
  10
368.18811
  20
351.08752
  0
VERTEX
  5
e6
  8
Layer_0
  10
367.75299
  20
350.90771
  0
VERTEX
  5
e7
  8
Layer_0
  10
367.35199
  20
350.66174
  0
VERTEX
  5
e8
  8
Layer_0
  10
366.99438
  20
350.3558
  0
VERTEX
  5
e9
  8
Layer_0
  10
366.68848
  20
349.99768
  0
VERTEX
  5
ea
  8
Layer_0
  10
366.44196
  20
349.59668
  0
VERTEX
  5
eb
  8
Layer_0
  10
366.26208
  20
349.16156
  0
VERTEX
  5
ec
  8
Layer_0
  10
366.15204
  20
348.7037
  0
VERTEX
  5
ed
  8
Layer_0
  10
366.11536
  20
348.2345
  0
VERTEX
  5
ee
  8
Layer_0
  10
366.11536
  20
312.0181
  0
VERTEX
  5
ef
  8
Layer_0
  10
366.15204
  20
311.54889
  0
VERTEX
  5
f0
  8
Layer_0
  10
366.26208
  20
311.09103
  0
VERTEX
  5
f1
  8
Layer_0
  10
366.44196
  20
310.65591
  0
VERTEX
  5
f2
  8
Layer_0
  10
366.68848
  20
310.25488
  0
VERTEX
  5
f3
  8
Layer_0
  10
366.99438
  20
309.89679
  0
VERTEX
  5
f4
  8
Layer_0
  10
367.35199
  20
309.59085
  0
VERTEX
  5
f5
  8
Layer_0
  10
367.75299
  20
309.34488
  0
VERTEX
  5
f6
  8
Layer_0
  10
368.18811
  20
309.16504
  0
VERTEX
  5
f7
  8
Layer_0
  10
368.64594
  20
309.05496
  0
VERTEX
  5
f8
  8
Layer_0
  10
369.11517
  20
309.01776
  0
VERTEX
  5
f9
  8
Layer_0
  10
370.88147
  20
309.01776
  0
VERTEX
  5
fa
  8
Layer_0
  10
370.88202
  20
308.97281
  0
VERTEX
  5
fb
  8
Layer_0
  10
425.07092
  20
308.97281
  0
VERTEX
  5
fc
  8
Layer_0
  10
428.43094
  20
277.11996
  0
VERTEX
  5
fd
  8
Layer_0
  10
428.45901
  20
277.06042
  0
VERTEX
  5
fe
  8
Layer_0
  10
428.48694
  20
276.91724
  0
VERTEX
  5
ff
  8
Layer_0
  10
428.51605
  20
276.69464
  0
VERTEX
  5
100
  8
Layer_0
  10
428.54776
  20
276.39679
  0
VERTEX
  5
101
  8
Layer_0
  10
428.67249
  20
275.09308
  0
VERTEX
  5
102
  8
Layer_0
  10
428.72858
  20
274.53577
  0
VERTEX
  5
103
  8
Layer_0
  10
428.79422
  20
273.92398
  0
VERTEX
  5
104
  8
Layer_0
  10
428.87085
  20
273.2619
  0
VERTEX
  5
105
  8
Layer_0
  10
428.95984
  20
272.55374
  0
VERTEX
  5
106
  8
Layer_0
  10
429.06256
  20
271.80362
  0
VERTEX
  5
107
  8
Layer_0
  10
429.18042
  20
271.01572
  0
VERTEX
  5
108
  8
Layer_0
  10
429.31488
  20
270.19421
  0
VERTEX
  5
109
  8
Layer_0
  10
429.46722
  20
269.34326
  0
VERTEX
  5
10a
  8
Layer_0
  10
429.63892
  20
268.46704
  0
VERTEX
  5
10b
  8
Layer_0
  10
429.83133
  20
267.56973
  0
VERTEX
  5
10c
  8
Layer_0
  10
430.0459
  20
266.65546
  0
VERTEX
  5
10d
  8
Layer_0
  10
430.28394
  20
265.72842
  0
VERTEX
  5
10e
  8
Layer_0
  10
430.54688
  20
264.79279
  0
VERTEX
  5
10f
  8
Layer_0
  10
430.83612
  20
263.85269
  0
VERTEX
  5
110
  8
Layer_0
  10
431.15302
  20
262.91235
  0
VERTEX
  5
111
  8
Layer_0
  10
431.49902
  20
261.97589
  0
VERTEX
  5
112
  8
Layer_0
  10
431.87555
  20
261.04752
  0
VERTEX
  5
113
  8
Layer_0
  10
432.28394
  20
260.13135
  0
VERTEX
  5
114
  8
Layer_0
  10
432.72556
  20
259.2316
  0
VERTEX
  5
115
  8
Layer_0
  10
433.20184
  20
258.35242
  0
VERTEX
  5
116
  8
Layer_0
  10
433.71417
  20
257.49796
  0
VERTEX
  5
117
  8
Layer_0
  10
434.26395
  20
256.67242
  0
VERTEX
  5
118
  8
Layer_0
  10
434.85257
  20
255.87991
  0
VERTEX
  5
119
  8
Layer_0
  10
435.48145
  20
255.12463
  0
VERTEX
  5
11a
  8
Layer_0
  10
436.15192
  20
254.41077
  0
VERTEX
  5
11b
  8
Layer_0
  10
436.62271
  20
253.98401
  0
VERTEX
  5
11c
  8
Layer_0
  10
437.13681
  20
253.57764
  0
VERTEX
  5
11d
  8
Layer_0
  10
437.6918
  20
253.19116
  0
VERTEX
  5
11e
  8
Layer_0
  10
438.2854
  20
252.82422
  0
VERTEX
  5
11f
  8
Layer_0
  10
438.91519
  20
252.47638
  0
VERTEX
  5
120
  8
Layer_0
  10
439.57883
  20
252.14722
  0
VERTEX
  5
121
  8
Layer_0
  10
440.27396
  20
251.83633
  0
VERTEX
  5
122
  8
Layer_0
  10
440.99823
  20
251.5433
  0
VERTEX
  5
123
  8
Layer_0
  10
441.7493
  20
251.2677
  0
VERTEX
  5
124
  8
Layer_0
  10
442.52478
  20
251.00909
  0
VERTEX
  5
125
  8
Layer_0
  10
443.32233
  20
250.76709
  0
VERTEX
  5
126
  8
Layer_0
  10
444.13959
  20
250.54123
  0
VERTEX
  5
127
  8
Layer_0
  10
445.82379
  20
250.13641
  0
VERTEX
  5
128
  8
Layer_0
  10
447.55859
  20
249.79126
  0
VERTEX
  5
129
  8
Layer_0
  10
449.32507
  20
249.50244
  0
VERTEX
  5
12a
  8
Layer_0
  10
451.1044
  20
249.2666
  0
VERTEX
  5
12b
  8
Layer_0
  10
452.87769
  20
249.08041
  0
VERTEX
  5
12c
  8
Layer_0
  10
454.62616
  20
248.94052
  0
VERTEX
  5
12d
  8
Layer_0
  10
456.3309
  20
248.84357
  0
VERTEX
  5
12e
  8
Layer_0
  10
457.97308
  20
248.78625
  0
VERTEX
  5
12f
  8
Layer_0
  10
458.76483
  20
248.77142
  0
VERTEX
  5
130
  8
Layer_0
  10
459.53387
  20
248.7652
  0
VERTEX
  5
131
  8
Layer_0
  10
460.27783
  20
248.76718
  0
VERTEX
  5
132
  8
Layer_0
  10
460.99432
  20
248.77701
  0
VERTEX
  5
133
  8
Layer_0
  10
521.77771
  20
248.76822
  0
VERTEX
  5
134
  8
Layer_0
  10
522.51611
  20
248.77841
  0
VERTEX
  5
135
  8
Layer_0
  10
523.23169
  20
248.8222
  0
VERTEX
  5
136
  8
Layer_0
  10
523.92426
  20
248.89856
  0
VERTEX
  5
137
  8
Layer_0
  10
524.59387
  20
249.00629
  0
VERTEX
  5
138
  8
Layer_0
  10
525.24048
  20
249.14441
  0
VERTEX
  5
139
  8
Layer_0
  10
525.86401
  20
249.31177
  0
VERTEX
  5
13a
  8
Layer_0
  10
526.46442
  20
249.50732
  0
VERTEX
  5
13b
  8
Layer_0
  10
527.04175
  20
249.73001
  0
VERTEX
  5
13c
  8
Layer_0
  10
527.59595
  20
249.9787
  0
VERTEX
  5
13d
  8
Layer_0
  10
528.12695
  20
250.25238
  0
VERTEX
  5
13e
  8
Layer_0
  10
528.63477
  20
250.54987
  0
VERTEX
  5
13f
  8
Layer_0
  10
529.11926
  20
250.87021
  0
VERTEX
  5
140
  8
Layer_0
  10
529.58057
  20
251.21222
  0
VERTEX
  5
141
  8
Layer_0
  10
530.01862
  20
251.57489
  0
VERTEX
  5
142
  8
Layer_0
  10
530.43329
  20
251.95709
  0
VERTEX
  5
143
  8
Layer_0
  10
530.82458
  20
252.35779
  0
VERTEX
  5
144
  8
Layer_0
  10
531.19257
  20
252.77588
  0
VERTEX
  5
145
  8
Layer_0
  10
531.53711
  20
253.21024
  0
VERTEX
  5
146
  8
Layer_0
  10
531.85815
  20
253.65985
  0
VERTEX
  5
147
  8
Layer_0
  10
532.15576
  20
254.1236
  0
VERTEX
  5
148
  8
Layer_0
  10
532.42981
  20
254.60046
  0
VERTEX
  5
149
  8
Layer_0
  10
532.68042
  20
255.08923
  0
VERTEX
  5
14a
  8
Layer_0
  10
532.90735
  20
255.58893
  0
VERTEX
  5
14b
  8
Layer_0
  10
533.11072
  20
256.09845
  0
VERTEX
  5
14c
  8
Layer_0
  10
533.44659
  20
257.14264
  0
VERTEX
  5
14d
  8
Layer_0
  10
533.68768
  20
258.2132
  0
VERTEX
  5
14e
  8
Layer_0
  10
533.8338
  20
259.30145
  0
VERTEX
  5
14f
  8
Layer_0
  10
533.88464
  20
260.39871
  0
VERTEX
  5
150
  8
Layer_0
  10
533.84003
  20
261.4964
  0
VERTEX
  5
151
  8
Layer_0
  10
533.69965
  20
262.58585
  0
VERTEX
  5
152
  8
Layer_0
  10
533.46332
  20
263.65839
  0
VERTEX
  5
153
  8
Layer_0
  10
533.1308
  20
264.70541
  0
VERTEX
  5
154
  8
Layer_0
  10
532.92834
  20
265.21667
  0
VERTEX
  5
155
  8
Layer_0
  10
532.70178
  20
265.71826
  0
VERTEX
  5
156
  8
Layer_0
  10
532.45105
  20
266.20917
  0
VERTEX
  5
157
  8
Layer_0
  10
532.17615
  20
266.68829
  0
VERTEX
  5
158
  8
Layer_0
  10
531.87695
  20
267.15454
  0
VERTEX
  5
159
  8
Layer_0
  10
531.55347
  20
267.60687
  0
VERTEX
  5
15a
  8
Layer_0
  10
531.20575
  20
268.04419
  0
VERTEX
  5
15b
  8
Layer_0
  10
530.83368
  20
268.46536
  0
VERTEX
  5
15c
  8
Layer_0
  10
530.43726
  20
268.86935
  0
VERTEX
  5
15d
  8
Layer_0
  10
530.01648
  20
269.2551
  0
VERTEX
  5
15e
  8
Layer_0
  10
529.57123
  20
269.62146
  0
VERTEX
  5
15f
  8
Layer_0
  10
529.10156
  20
269.96744
  0
VERTEX
  5
160
  8
Layer_0
  10
528.60742
  20
270.29187
  0
VERTEX
  5
161
  8
Layer_0
  10
528.08881
  20
270.59375
  0
VERTEX
  5
162
  8
Layer_0
  10
527.54565
  20
270.87195
  0
VERTEX
  5
163
  8
Layer_0
  10
526.97784
  20
271.12537
  0
VERTEX
  5
164
  8
Layer_0
  10
526.3855
  20
271.35297
  0
VERTEX
  5
165
  8
Layer_0
  10
525.76855
  20
271.55365
  0
VERTEX
  5
166
  8
Layer_0
  10
525.12689
  20
271.72638
  0
VERTEX
  5
167
  8
Layer_0
  10
524.46057
  20
271.87
  0
VERTEX
  5
168
  8
Layer_0
  10
523.76953
  20
271.98349
  0
VERTEX
  5
169
  8
Layer_0
  10
523.05371
  20
272.0657
  0
VERTEX
  5
16a
  8
Layer_0
  10
522.31311
  20
272.11563
  0
VERTEX
  5
16b
  8
Layer_0
  10
521.54773
  20
272.13217
  0
VERTEX
  5
16c
  8
Layer_0
  10
493.70032
  20
271.7637
  0
VERTEX
  5
16d
  8
Layer_0
  10
493.6962
  20
271.76477
  0
VERTEX
  5
16e
  8
Layer_0
  10
489.83493
  20
271.80197
  0
VERTEX
  5
16f
  8
Layer_0
  10
488.96677
  20
270.96222
  0
VERTEX
  5
170
  8
Layer_0
  10
488.13892
  20
271.81851
  0
VERTEX
  5
171
  8
Layer_0
  10
461.81998
  20
272.07169
  0
VERTEX
  5
172
  8
Layer_0
  10
461.05594
  20
272.08145
  0
VERTEX
  5
173
  8
Layer_0
  10
460.237
  20
272.10886
  0
VERTEX
  5
174
  8
Layer_0
  10
459.36945
  20
272.16797
  0
VERTEX
  5
175
  8
Layer_0
  10
458.45941
  20
272.27283
  0
VERTEX
  5
176
  8
Layer_0
  10
457.51318
  20
272.43744
  0
VERTEX
  5
177
  8
Layer_0
  10
456.53693
  20
272.6759
  0
VERTEX
  5
178
  8
Layer_0
  10
455.53693
  20
273.00217
  0
VERTEX
  5
179
  8
Layer_0
  10
455.02994
  20
273.20264
  0
VERTEX
  5
17a
  8
Layer_0
  10
454.51935
  20
273.43039
  0
VERTEX
  5
17b
  8
Layer_0
  10
454.00592
  20
273.6871
  0
VERTEX
  5
17c
  8
Layer_0
  10
453.49048
  20
273.97455
  0
VERTEX
  5
17d
  8
Layer_0
  10
452.97375
  20
274.29449
  0
VERTEX
  5
17e
  8
Layer_0
  10
452.45648
  20
274.64868
  0
VERTEX
  5
17f
  8
Layer_0
  10
451.93951
  20
275.03888
  0
VERTEX
  5
180
  8
Layer_0
  10
451.42361
  20
275.46686
  0
VERTEX
  5
181
  8
Layer_0
  10
450.90955
  20
275.93433
  0
VERTEX
  5
182
  8
Layer_0
  10
450.39807
  20
276.44312
  0
VERTEX
  5
183
  8
Layer_0
  10
449.89001
  20
276.99493
  0
VERTEX
  5
184
  8
Layer_0
  10
449.38611
  20
277.59152
  0
VERTEX
  5
185
  8
Layer_0
  10
448.88715
  20
278.23468
  0
VERTEX
  5
186
  8
Layer_0
  10
448.39389
  20
278.92609
  0
VERTEX
  5
187
  8
Layer_0
  10
447.90717
  20
279.66757
  0
VERTEX
  5
188
  8
Layer_0
  10
447.4277
  20
280.46088
  0
VERTEX
  5
189
  8
Layer_0
  10
443.02124
  20
336.19543
  0
VERTEX
  5
18a
  8
Layer_0
  10
430.54562
  20
338.23328
  0
VERTEX
  5
18b
  8
Layer_0
  10
428.22174
  20
338.60748
  0
VERTEX
  5
18c
  8
Layer_0
  10
425.97241
  20
338.96698
  0
VERTEX
  5
18d
  8
Layer_0
  10
423.87103
  20
339.29938
  0
VERTEX
  5
18e
  8
Layer_0
  10
421.99084
  20
339.59229
  0
VERTEX
  5
18f
  8
Layer_0
  10
420.40521
  20
339.83337
  0
VERTEX
  5
190
  8
Layer_0
  10
419.45337
  20
339.97275
  0
VERTEX
  5
191
  8
Layer_0
  10
418.73944
  20
340.07074
  0
VERTEX
  5
192
  8
Layer_0
  10
418.41089
  20
340.1105
  0
VERTEX
  5
193
  8
Layer_0
  10
418.29425
  20
340.12213
  0
VERTEX
  5
194
  8
Layer_0
  10
418.21094
  20
340.12802
  0
VERTEX
  5
195
  8
Layer_0
  10
418.16211
  20
340.12799
  0
VERTEX
  5
196
  8
Layer_0
  10
418.14886
  20
340.1218
  0
VERTEX
  5
197
  8
Layer_0
  10
380.77594
  20
351.23431
  0
VERTEX
  5
198
  8
Layer_0
  10
369.11517
  20
351.2348
  0
SEQEND
  0
POLYLINE
  5
19a
  8
Layer_0
  62
1
  70
1
  66
1
  10
0
  20
0
  30
0
  0
VERTEX
  5
19a
  8
Layer_0
  10
457.52502
  20
264.88135
  0
VERTEX
  5
19b
  8
Layer_0
  10
457.4751
  20
264.38629
  0
VERTEX
  5
19c
  8
Layer_0
  10
457.33197
  20
263.92517
  0
VERTEX
  5
19d
  8
Layer_0
  10
457.1055
  20
263.50793
  0
VERTEX
  5
19e
  8
Layer_0
  10
456.80554
  20
263.14435
  0
VERTEX
  5
19f
  8
Layer_0
  10
456.44196
  20
262.84439
  0
VERTEX
  5
1a0
  8
Layer_0
  10
456.02472
  20
262.61792
  0
VERTEX
  5
1a1
  8
Layer_0
  10
455.5636
  20
262.47479
  0
VERTEX
  5
1a2
  8
Layer_0
  10
455.06854
  20
262.42487
  0
VERTEX
  5
1a3
  8
Layer_0
  10
454.57349
  20
262.47479
  0
VERTEX
  5
1a4
  8
Layer_0
  10
454.11237
  20
262.61792
  0
VERTEX
  5
1a5
  8
Layer_0
  10
453.69513
  20
262.84439
  0
VERTEX
  5
1a6
  8
Layer_0
  10
453.33154
  20
263.14435
  0
VERTEX
  5
1a7
  8
Layer_0
  10
453.03159
  20
263.50793
  0
VERTEX
  5
1a8
  8
Layer_0
  10
452.80511
  20
263.92517
  0
VERTEX
  5
1a9
  8
Layer_0
  10
452.66199
  20
264.38629
  0
VERTEX
  5
1aa
  8
Layer_0
  10
452.61206
  20
264.88135
  0
VERTEX
  5
1ab
  8
Layer_0
  10
452.66199
  20
265.3764
  0
VERTEX
  5
1ac
  8
Layer_0
  10
452.80511
  20
265.83752
  0
VERTEX
  5
1ad
  8
Layer_0
  10
453.03159
  20
266.25476
  0
VERTEX
  5
1ae
  8
Layer_0
  10
453.33154
  20
266.61835
  0
VERTEX
  5
1af
  8
Layer_0
  10
453.69513
  20
266.9183
  0
VERTEX
  5
1b0
  8
Layer_0
  10
454.11237
  20
267.14478
  0
VERTEX
  5
1b1
  8
Layer_0
  10
454.57349
  20
267.2879
  0
VERTEX
  5
1b2
  8
Layer_0
  10
455.06854
  20
267.33783
  0
VERTEX
  5
1b3
  8
Layer_0
  10
455.5636
  20
267.2879
  0
VERTEX
  5
1b4
  8
Layer_0
  10
456.02472
  20
267.14478
  0
VERTEX
  5
1b5
  8
Layer_0
  10
456.44196
  20
266.9183
  0
VERTEX
  5
1b6
  8
Layer_0
  10
456.80554
  20
266.61835
  0
VERTEX
  5
1b7
  8
Layer_0
  10
457.1055
  20
266.25476
  0
VERTEX
  5
1b8
  8
Layer_0
  10
457.33197
  20
265.83752
  0
VERTEX
  5
1b9
  8
Layer_0
  10
457.4751
  20
265.3764
  0
VERTEX
  5
1ba
  8
Layer_0
  10
457.52502
  20
264.88135
  0
SEQEND
  0
POLYLINE
  5
1bc
  8
Layer_0
  62
1
  70
1
  66
1
  10
0
  20
0
  30
0
  0
VERTEX
  5
1bc
  8
Layer_0
  10
520.76782
  20
264.88135
  0
VERTEX
  5
1bd
  8
Layer_0
  10
520.81775
  20
264.38629
  0
VERTEX
  5
1be
  8
Layer_0
  10
520.96094
  20
263.92517
  0
VERTEX
  5
1bf
  8
Layer_0
  10
521.18738
  20
263.50793
  0
VERTEX
  5
1c0
  8
Layer_0
  10
521.4873
  20
263.14435
  0
VERTEX
  5
1c1
  8
Layer_0
  10
521.85089
  20
262.84439
  0
VERTEX
  5
1c2
  8
Layer_0
  10
522.26819
  20
262.61792
  0
VERTEX
  5
1c3
  8
Layer_0
  10
522.72931
  20
262.47479
  0
VERTEX
  5
1c4
  8
Layer_0
  10
523.22437
  20
262.42487
  0
VERTEX
  5
1c5
  8
Layer_0
  10
523.71936
  20
262.47479
  0
VERTEX
  5
1c6
  8
Layer_0
  10
524.18048
  20
262.61792
  0
VERTEX
  5
1c7
  8
Layer_0
  10
524.59778
  20
262.84439
  0
VERTEX
  5
1c8
  8
Layer_0
  10
524.9613
  20
263.14435
  0
VERTEX
  5
1c9
  8
Layer_0
  10
525.26123
  20
263.50793
  0
VERTEX
  5
1ca
  8
Layer_0
  10
525.48779
  20
263.92517
  0
VERTEX
  5
1cb
  8
Layer_0
  10
525.63092
  20
264.38629
  0
VERTEX
  5
1cc
  8
Layer_0
  10
525.68079
  20
264.88135
  0
VERTEX
  5
1cd
  8
Layer_0
  10
525.63092
  20
265.3764
  0
VERTEX
  5
1ce
  8
Layer_0
  10
525.48779
  20
265.83752
  0
VERTEX
  5
1cf
  8
Layer_0
  10
525.26123
  20
266.25476
  0
VERTEX
  5
1d0
  8
Layer_0
  10
524.9613
  20
266.61835
  0
VERTEX
  5
1d1
  8
Layer_0
  10
524.59778
  20
266.9183
  0
VERTEX
  5
1d2
  8
Layer_0
  10
524.18048
  20
267.14478
  0
VERTEX
  5
1d3
  8
Layer_0
  10
523.71936
  20
267.2879
  0
VERTEX
  5
1d4
  8
Layer_0
  10
523.22437
  20
267.33783
  0
VERTEX
  5
1d5
  8
Layer_0
  10
522.72931
  20
267.2879
  0
VERTEX
  5
1d6
  8
Layer_0
  10
522.26819
  20
267.14478
  0
VERTEX
  5
1d7
  8
Layer_0
  10
521.85089
  20
266.9183
  0
VERTEX
  5
1d8
  8
Layer_0
  10
521.4873
  20
266.61835
  0
VERTEX
  5
1d9
  8
Layer_0
  10
521.18738
  20
266.25476
  0
VERTEX
  5
1da
  8
Layer_0
  10
520.96094
  20
265.83752
  0
VERTEX
  5
1db
  8
Layer_0
  10
520.81775
  20
265.3764
  0
VERTEX
  5
1dc
  8
Layer_0
  10
520.76782
  20
264.88135
  0
SEQEND
  0
POLYLINE
  5
1de
  8
Layer_0
  62
1
  70
1
  66
1
  10
0
  20
0
  30
0
  0
VERTEX
  5
1de
  8
Layer_0
  10
467.57922
  20
264.88135
  0
VERTEX
  5
1df
  8
Layer_0
  10
467.5293
  20
264.38629
  0
VERTEX
  5
1e0
  8
Layer_0
  10
467.38617
  20
263.92517
  0
VERTEX
  5
1e1
  8
Layer_0
  10
467.1597
  20
263.50793
  0
VERTEX
  5
1e2
  8
Layer_0
  10
466.85974
  20
263.14435
  0
VERTEX
  5
1e3
  8
Layer_0
  10
466.49615
  20
262.84439
  0
VERTEX
  5
1e4
  8
Layer_0
  10
466.07892
  20
262.61792
  0
VERTEX
  5
1e5
  8
Layer_0
  10
465.6178
  20
262.47479
  0
VERTEX
  5
1e6
  8
Layer_0
  10
465.12274
  20
262.42487
  0
VERTEX
  5
1e7
  8
Layer_0
  10
464.62769
  20
262.47479
  0
VERTEX
  5
1e8
  8
Layer_0
  10
464.16656
  20
262.61792
  0
VERTEX
  5
1e9
  8
Layer_0
  10
463.74933
  20
262.84439
  0
VERTEX
  5
1ea
  8
Layer_0
  10
463.38574
  20
263.14435
  0
VERTEX
  5
1eb
  8
Layer_0
  10
463.08578
  20
263.50793
  0
VERTEX
  5
1ec
  8
Layer_0
  10
462.85931
  20
263.92517
  0
VERTEX
  5
1ed
  8
Layer_0
  10
462.71619
  20
264.38629
  0
VERTEX
  5
1ee
  8
Layer_0
  10
462.66626
  20
264.88135
  0
VERTEX
  5
1ef
  8
Layer_0
  10
462.71619
  20
265.3764
  0
VERTEX
  5
1f0
  8
Layer_0
  10
462.85931
  20
265.83752
  0
VERTEX
  5
1f1
  8
Layer_0
  10
463.08578
  20
266.25476
  0
VERTEX
  5
1f2
  8
Layer_0
  10
463.38574
  20
266.61835
  0
VERTEX
  5
1f3
  8
Layer_0
  10
463.74933
  20
266.9183
  0
VERTEX
  5
1f4
  8
Layer_0
  10
464.16656
  20
267.14478
  0
VERTEX
  5
1f5
  8
Layer_0
  10
464.62769
  20
267.2879
  0
VERTEX
  5
1f6
  8
Layer_0
  10
465.12274
  20
267.33783
  0
VERTEX
  5
1f7
  8
Layer_0
  10
465.6178
  20
267.2879
  0
VERTEX
  5
1f8
  8
Layer_0
  10
466.07892
  20
267.14478
  0
VERTEX
  5
1f9
  8
Layer_0
  10
466.49615
  20
266.9183
  0
VERTEX
  5
1fa
  8
Layer_0
  10
466.85974
  20
266.61835
  0
VERTEX
  5
1fb
  8
Layer_0
  10
467.1597
  20
266.25476
  0
VERTEX
  5
1fc
  8
Layer_0
  10
467.38617
  20
265.83752
  0
VERTEX
  5
1fd
  8
Layer_0
  10
467.5293
  20
265.3764
  0
VERTEX
  5
1fe
  8
Layer_0
  10
467.57922
  20
264.88135
  0
SEQEND
  0
POLYLINE
  5
200
  8
Layer_0
  62
1
  70
1
  66
1
  10
0
  20
0
  30
0
  0
VERTEX
  5
200
  8
Layer_0
  10
510.71365
  20
264.88135
  0
VERTEX
  5
201
  8
Layer_0
  10
510.76355
  20
264.38629
  0
VERTEX
  5
202
  8
Layer_0
  10
510.90671
  20
263.92517
  0
VERTEX
  5
203
  8
Layer_0
  10
511.13321
  20
263.50793
  0
VERTEX
  5
204
  8
Layer_0
  10
511.43314
  20
263.14435
  0
VERTEX
  5
205
  8
Layer_0
  10
511.79669
  20
262.84439
  0
VERTEX
  5
206
  8
Layer_0
  10
512.21399
  20
262.61792
  0
VERTEX
  5
207
  8
Layer_0
  10
512.67511
  20
262.47479
  0
VERTEX
  5
208
  8
Layer_0
  10
513.17017
  20
262.42487
  0
VERTEX
  5
209
  8
Layer_0
  10
513.66516
  20
262.47479
  0
VERTEX
  5
20a
  8
Layer_0
  10
514.12628
  20
262.61792
  0
VERTEX
  5
20b
  8
Layer_0
  10
514.54352
  20
262.84439
  0
VERTEX
  5
20c
  8
Layer_0
  10
514.9071
  20
263.14435
  0
VERTEX
  5
20d
  8
Layer_0
  10
515.20703
  20
263.50793
  0
VERTEX
  5
20e
  8
Layer_0
  10
515.43353
  20
263.92517
  0
VERTEX
  5
20f
  8
Layer_0
  10
515.57666
  20
264.38629
  0
VERTEX
  5
210
  8
Layer_0
  10
515.62659
  20
264.88135
  0
VERTEX
  5
211
  8
Layer_0
  10
515.57666
  20
265.3764
  0
VERTEX
  5
212
  8
Layer_0
  10
515.43353
  20
265.83752
  0
VERTEX
  5
213
  8
Layer_0
  10
515.20703
  20
266.25476
  0
VERTEX
  5
214
  8
Layer_0
  10
514.9071
  20
266.61835
  0
VERTEX
  5
215
  8
Layer_0
  10
514.54352
  20
266.9183
  0
VERTEX
  5
216
  8
Layer_0
  10
514.12628
  20
267.14478
  0
VERTEX
  5
217
  8
Layer_0
  10
513.66516
  20
267.2879
  0
VERTEX
  5
218
  8
Layer_0
  10
513.17017
  20
267.33783
  0
VERTEX
  5
219
  8
Layer_0
  10
512.67511
  20
267.2879
  0
VERTEX
  5
21a
  8
Layer_0
  10
512.21399
  20
267.14478
  0
VERTEX
  5
21b
  8
Layer_0
  10
511.79669
  20
266.9183
  0
VERTEX
  5
21c
  8
Layer_0
  10
511.43314
  20
266.61835
  0
VERTEX
  5
21d
  8
Layer_0
  10
511.13321
  20
266.25476
  0
VERTEX
  5
21e
  8
Layer_0
  10
510.90671
  20
265.83752
  0
VERTEX
  5
21f
  8
Layer_0
  10
510.76355
  20
265.3764
  0
VERTEX
  5
220
  8
Layer_0
  10
510.71365
  20
264.88135
  0
SEQEND
  0
POLYLINE
  5
222
  8
Layer_0
  62
1
  70
1
  66
1
  10
0
  20
0
  30
0
  0
VERTEX
  5
222
  8
Layer_0
  10
475.51678
  20
264.88135
  0
VERTEX
  5
223
  8
Layer_0
  10
475.46686
  20
264.38629
  0
VERTEX
  5
224
  8
Layer_0
  10
475.32373
  20
263.92517
  0
VERTEX
  5
225
  8
Layer_0
  10
475.09726
  20
263.50793
  0
VERTEX
  5
226
  8
Layer_0
  10
474.7973
  20
263.14435
  0
VERTEX
  5
227
  8
Layer_0
  10
474.43372
  20
262.84439
  0
VERTEX
  5
228
  8
Layer_0
  10
474.01648
  20
262.61792
  0
VERTEX
  5
229
  8
Layer_0
  10
473.55536
  20
262.47479
  0
VERTEX
  5
22a
  8
Layer_0
  10
473.0603
  20
262.42487
  0
VERTEX
  5
22b
  8
Layer_0
  10
472.56525
  20
262.47479
  0
VERTEX
  5
22c
  8
Layer_0
  10
472.10413
  20
262.61792
  0
VERTEX
  5
22d
  8
Layer_0
  10
471.68689
  20
262.84439
  0
VERTEX
  5
22e
  8
Layer_0
  10
471.3233
  20
263.14435
  0
VERTEX
  5
22f
  8
Layer_0
  10
471.02335
  20
263.50793
  0
VERTEX
  5
230
  8
Layer_0
  10
470.79688
  20
263.92517
  0
VERTEX
  5
231
  8
Layer_0
  10
470.65375
  20
264.38629
  0
VERTEX
  5
232
  8
Layer_0
  10
470.60382
  20
264.88135
  0
VERTEX
  5
233
  8
Layer_0
  10
470.65375
  20
265.3764
  0
VERTEX
  5
234
  8
Layer_0
  10
470.79688
  20
265.83752
  0
VERTEX
  5
235
  8
Layer_0
  10
471.02335
  20
266.25476
  0
VERTEX
  5
236
  8
Layer_0
  10
471.3233
  20
266.61835
  0
VERTEX
  5
237
  8
Layer_0
  10
471.68689
  20
266.9183
  0
VERTEX
  5
238
  8
Layer_0
  10
472.10413
  20
267.14478
  0
VERTEX
  5
239
  8
Layer_0
  10
472.56525
  20
267.2879
  0
VERTEX
  5
23a
  8
Layer_0
  10
473.0603
  20
267.33783
  0
VERTEX
  5
23b
  8
Layer_0
  10
473.55536
  20
267.2879
  0
VERTEX
  5
23c
  8
Layer_0
  10
474.01648
  20
267.14478
  0
VERTEX
  5
23d
  8
Layer_0
  10
474.43372
  20
266.9183
  0
VERTEX
  5
23e
  8
Layer_0
  10
474.7973
  20
266.61835
  0
VERTEX
  5
23f
  8
Layer_0
  10
475.09726
  20
266.25476
  0
VERTEX
  5
240
  8
Layer_0
  10
475.32373
  20
265.83752
  0
VERTEX
  5
241
  8
Layer_0
  10
475.46686
  20
265.3764
  0
VERTEX
  5
242
  8
Layer_0
  10
475.51678
  20
264.88135
  0
SEQEND
  0
POLYLINE
  5
244
  8
Layer_0
  62
1
  70
1
  66
1
  10
0
  20
0
  30
0
  0
VERTEX
  5
244
  8
Layer_0
  10
502.77612
  20
264.88135
  0
VERTEX
  5
245
  8
Layer_0
  10
502.82605
  20
264.38629
  0
VERTEX
  5
246
  8
Layer_0
  10
502.96918
  20
263.92517
  0
VERTEX
  5
247
  8
Layer_0
  10
503.19565
  20
263.50793
  0
VERTEX
  5
248
  8
Layer_0
  10
503.49561
  20
263.14435
  0
VERTEX
  5
249
  8
Layer_0
  10
503.85919
  20
262.84439
  0
VERTEX
  5
24a
  8
Layer_0
  10
504.27643
  20
262.61792
  0
VERTEX
  5
24b
  8
Layer_0
  10
504.73755
  20
262.47479
  0
VERTEX
  5
24c
  8
Layer_0
  10
505.2326
  20
262.42487
  0
VERTEX
  5
24d
  8
Layer_0
  10
505.72766
  20
262.47479
  0
VERTEX
  5
24e
  8
Layer_0
  10
506.18878
  20
262.61792
  0
VERTEX
  5
24f
  8
Layer_0
  10
506.60602
  20
262.84439
  0
VERTEX
  5
250
  8
Layer_0
  10
506.9696
  20
263.14435
  0
VERTEX
  5
251
  8
Layer_0
  10
507.26956
  20
263.50793
  0
VERTEX
  5
252
  8
Layer_0
  10
507.49603
  20
263.92517
  0
VERTEX
  5
253
  8
Layer_0
  10
507.63916
  20
264.38629
  0
VERTEX
  5
254
  8
Layer_0
  10
507.68909
  20
264.88135
  0
VERTEX
  5
255
  8
Layer_0
  10
507.63916
  20
265.3764
  0
VERTEX
  5
256
  8
Layer_0
  10
507.49603
  20
265.83752
  0
VERTEX
  5
257
  8
Layer_0
  10
507.26956
  20
266.25476
  0
VERTEX
  5
258
  8
Layer_0
  10
506.9696
  20
266.61835
  0
VERTEX
  5
259
  8
Layer_0
  10
506.60602
  20
266.9183
  0
VERTEX
  5
25a
  8
Layer_0
  10
506.18878
  20
267.14478
  0
VERTEX
  5
25b
  8
Layer_0
  10
505.72766
  20
267.2879
  0
VERTEX
  5
25c
  8
Layer_0
  10
505.2326
  20
267.33783
  0
VERTEX
  5
25d
  8
Layer_0
  10
504.73755
  20
267.2879
  0
VERTEX
  5
25e
  8
Layer_0
  10
504.27643
  20
267.14478
  0
VERTEX
  5
25f
  8
Layer_0
  10
503.85919
  20
266.9183
  0
VERTEX
  5
260
  8
Layer_0
  10
503.49561
  20
266.61835
  0
VERTEX
  5
261
  8
Layer_0
  10
503.19565
  20
266.25476
  0
VERTEX
  5
262
  8
Layer_0
  10
502.96918
  20
265.83752
  0
VERTEX
  5
263
  8
Layer_0
  10
502.82605
  20
265.3764
  0
VERTEX
  5
264
  8
Layer_0
  10
502.77612
  20
264.88135
  0
SEQEND
  0
POLYLINE
  5
266
  8
Layer_0
  62
1
  70
1
  66
1
  10
0
  20
0
  30
0
  0
VERTEX
  5
266
  8
Layer_0
  10
487.60773
  20
254.83179
  0
VERTEX
  5
267
  8
Layer_0
  10
487.6377
  20
254.53479
  0
VERTEX
  5
268
  8
Layer_0
  10
487.72357
  20
254.25812
  0
VERTEX
  5
269
  8
Layer_0
  10
487.85944
  20
254.00775
  0
VERTEX
  5
26a
  8
Layer_0
  10
488.03943
  20
253.78961
  0
VERTEX
  5
26b
  8
Layer_0
  10
488.25757
  20
253.60962
  0
VERTEX
  5
26c
  8
Layer_0
  10
488.50793
  20
253.47375
  0
VERTEX
  5
26d
  8
Layer_0
  10
488.78461
  20
253.38788
  0
VERTEX
  5
26e
  8
Layer_0
  10
489.0816
  20
253.35791
  0
VERTEX
  5
26f
  8
Layer_0
  10
489.37863
  20
253.38788
  0
VERTEX
  5
270
  8
Layer_0
  10
489.65533
  20
253.47375
  0
VERTEX
  5
271
  8
Layer_0
  10
489.9057
  20
253.60962
  0
VERTEX
  5
272
  8
Layer_0
  10
490.12384
  20
253.78961
  0
VERTEX
  5
273
  8
Layer_0
  10
490.30383
  20
254.00775
  0
VERTEX
  5
274
  8
Layer_0
  10
490.4397
  20
254.25812
  0
VERTEX
  5
275
  8
Layer_0
  10
490.52557
  20
254.53479
  0
VERTEX
  5
276
  8
Layer_0
  10
490.55551
  20
254.83179
  0
VERTEX
  5
277
  8
Layer_0
  10
490.52557
  20
255.12881
  0
VERTEX
  5
278
  8
Layer_0
  10
490.4397
  20
255.40549
  0
VERTEX
  5
279
  8
Layer_0
  10
490.30383
  20
255.65582
  0
VERTEX
  5
27a
  8
Layer_0
  10
490.12384
  20
255.87396
  0
VERTEX
  5
27b
  8
Layer_0
  10
489.9057
  20
256.05396
  0
VERTEX
  5
27c
  8
Layer_0
  10
489.65533
  20
256.18982
  0
VERTEX
  5
27d
  8
Layer_0
  10
489.37863
  20
256.2757
  0
VERTEX
  5
27e
  8
Layer_0
  10
489.0816
  20
256.30566
  0
VERTEX
  5
27f
  8
Layer_0
  10
488.78461
  20
256.2757
  0
VERTEX
  5
280
  8
Layer_0
  10
488.50793
  20
256.18982
  0
VERTEX
  5
281
  8
Layer_0
  10
488.25757
  20
256.05396
  0
VERTEX
  5
282
  8
Layer_0
  10
488.03943
  20
255.87396
  0
VERTEX
  5
283
  8
Layer_0
  10
487.85944
  20
255.65582
  0
VERTEX
  5
284
  8
Layer_0
  10
487.72357
  20
255.40549
  0
VERTEX
  5
285
  8
Layer_0
  10
487.6377
  20
255.12881
  0
VERTEX
  5
286
  8
Layer_0
  10
487.60773
  20
254.83179
  0
SEQEND
  0
POLYLINE
  5
288
  8
Layer_0
  62
1
  70
1
  66
1
  10
0
  20
0
  30
0
  0
VERTEX
  5
288
  8
Layer_0
  10
491.84106
  20
267.58609
  0
VERTEX
  5
289
  8
Layer_0
  10
491.87103
  20
267.28906
  0
VERTEX
  5
28a
  8
Layer_0
  10
491.95691
  20
267.01239
  0
VERTEX
  5
28b
  8
Layer_0
  10
492.09277
  20
266.76202
  0
VERTEX
  5
28c
  8
Layer_0
  10
492.27277
  20
266.54388
  0
VERTEX
  5
28d
  8
Layer_0
  10
492.49091
  20
266.36389
  0
VERTEX
  5
28e
  8
Layer_0
  10
492.74127
  20
266.22803
  0
VERTEX
  5
28f
  8
Layer_0
  10
493.01794
  20
266.14215
  0
VERTEX
  5
290
  8
Layer_0
  10
493.31494
  20
266.11218
  0
VERTEX
  5
291
  8
Layer_0
  10
493.61197
  20
266.14215
  0
VERTEX
  5
292
  8
Layer_0
  10
493.88867
  20
266.22803
  0
VERTEX
  5
293
  8
Layer_0
  10
494.13904
  20
266.36389
  0
VERTEX
  5
294
  8
Layer_0
  10
494.35718
  20
266.54388
  0
VERTEX
  5
295
  8
Layer_0
  10
494.53717
  20
266.76202
  0
VERTEX
  5
296
  8
Layer_0
  10
494.67303
  20
267.01239
  0
VERTEX
  5
297
  8
Layer_0
  10
494.75891
  20
267.28906
  0
VERTEX
  5
298
  8
Layer_0
  10
494.78885
  20
267.58609
  0
VERTEX
  5
299
  8
Layer_0
  10
494.75891
  20
267.88312
  0
VERTEX
  5
29a
  8
Layer_0
  10
494.67303
  20
268.15979
  0
VERTEX
  5
29b
  8
Layer_0
  10
494.53717
  20
268.41016
  0
VERTEX
  5
29c
  8
Layer_0
  10
494.35718
  20
268.6283
  0
VERTEX
  5
29d
  8
Layer_0
  10
494.13904
  20
268.80829
  0
VERTEX
  5
29e
  8
Layer_0
  10
493.88867
  20
268.94415
  0
VERTEX
  5
29f
  8
Layer_0
  10
493.61197
  20
269.03003
  0
VERTEX
  5
2a0
  8
Layer_0
  10
493.31494
  20
269.05997
  0
VERTEX
  5
2a1
  8
Layer_0
  10
493.01794
  20
269.03003
  0
VERTEX
  5
2a2
  8
Layer_0
  10
492.74127
  20
268.94415
  0
VERTEX
  5
2a3
  8
Layer_0
  10
492.49091
  20
268.80829
  0
VERTEX
  5
2a4
  8
Layer_0
  10
492.27277
  20
268.6283
  0
VERTEX
  5
2a5
  8
Layer_0
  10
492.09277
  20
268.41016
  0
VERTEX
  5
2a6
  8
Layer_0
  10
491.95691
  20
268.15979
  0
VERTEX
  5
2a7
  8
Layer_0
  10
491.87103
  20
267.88312
  0
VERTEX
  5
2a8
  8
Layer_0
  10
491.84106
  20
267.58609
  0
SEQEND
  0
POLYLINE
  5
2aa
  8
Layer_0
  62
1
  70
1
  66
1
  10
0
  20
0
  30
0
  0
VERTEX
  5
2aa
  8
Layer_0
  10
483.37433
  20
267.58609
  0
VERTEX
  5
2ab
  8
Layer_0
  10
483.4043
  20
267.28906
  0
VERTEX
  5
2ac
  8
Layer_0
  10
483.49017
  20
267.01239
  0
VERTEX
  5
2ad
  8
Layer_0
  10
483.62604
  20
266.76202
  0
VERTEX
  5
2ae
  8
Layer_0
  10
483.80603
  20
266.54388
  0
VERTEX
  5
2af
  8
Layer_0
  10
484.02417
  20
266.36389
  0
VERTEX
  5
2b0
  8
Layer_0
  10
484.27454
  20
266.22803
  0
VERTEX
  5
2b1
  8
Layer_0
  10
484.55121
  20
266.14215
  0
VERTEX
  5
2b2
  8
Layer_0
  10
484.84821
  20
266.11218
  0
VERTEX
  5
2b3
  8
Layer_0
  10
485.14523
  20
266.14215
  0
VERTEX
  5
2b4
  8
Layer_0
  10
485.42194
  20
266.22803
  0
VERTEX
  5
2b5
  8
Layer_0
  10
485.6723
  20
266.36389
  0
VERTEX
  5
2b6
  8
Layer_0
  10
485.89044
  20
266.54388
  0
VERTEX
  5
2b7
  8
Layer_0
  10
486.07043
  20
266.76202
  0
VERTEX
  5
2b8
  8
Layer_0
  10
486.2063
  20
267.01239
  0
VERTEX
  5
2b9
  8
Layer_0
  10
486.29218
  20
267.28906
  0
VERTEX
  5
2ba
  8
Layer_0
  10
486.32211
  20
267.58609
  0
VERTEX
  5
2bb
  8
Layer_0
  10
486.29211
  20
267.88312
  0
VERTEX
  5
2bc
  8
Layer_0
  10
486.20624
  20
268.15979
  0
VERTEX
  5
2bd
  8
Layer_0
  10
486.07037
  20
268.41016
  0
VERTEX
  5
2be
  8
Layer_0
  10
485.89038
  20
268.6283
  0
VERTEX
  5
2bf
  8
Layer_0
  10
485.67224
  20
268.80829
  0
VERTEX
  5
2c0
  8
Layer_0
  10
485.42191
  20
268.94415
  0
VERTEX
  5
2c1
  8
Layer_0
  10
485.14523
  20
269.03003
  0
VERTEX
  5
2c2
  8
Layer_0
  10
484.84821
  20
269.05997
  0
VERTEX
  5
2c3
  8
Layer_0
  10
484.55121
  20
269.03003
  0
VERTEX
  5
2c4
  8
Layer_0
  10
484.27454
  20
268.94415
  0
VERTEX
  5
2c5
  8
Layer_0
  10
484.02417
  20
268.80829
  0
VERTEX
  5
2c6
  8
Layer_0
  10
483.80603
  20
268.6283
  0
VERTEX
  5
2c7
  8
Layer_0
  10
483.62604
  20
268.41016
  0
VERTEX
  5
2c8
  8
Layer_0
  10
483.49017
  20
268.15979
  0
VERTEX
  5
2c9
  8
Layer_0
  10
483.4043
  20
267.88312
  0
VERTEX
  5
2ca
  8
Layer_0
  10
483.37433
  20
267.58609
  0
SEQEND
  0
POLYLINE
  5
2cc
  8
Layer_0
  62
1
  70
1
  66
1
  10
0
  20
0
  30
0
  0
VERTEX
  5
2cc
  8
Layer_0
  10
372.13263
  20
316.91095
  0
VERTEX
  5
2cd
  8
Layer_0
  10
371.80762
  20
316.62494
  0
VERTEX
  5
2ce
  8
Layer_0
  10
371.53564
  20
316.28894
  0
VERTEX
  5
2cf
  8
Layer_0
  10
371.32458
  20
315.91095
  0
VERTEX
  5
2d0
  8
Layer_0
  10
371.1806
  20
315.50394
  0
VERTEX
  5
2d1
  8
Layer_0
  10
371.1076
  20
315.07693
  0
VERTEX
  5
2d2
  8
Layer_0
  10
371.09863
  20
314.86093
  0
VERTEX
  5
2d3
  8
Layer_0
  10
371.1076
  20
314.64493
  0
VERTEX
  5
2d4
  8
Layer_0
  10
371.1806
  20
314.21793
  0
VERTEX
  5
2d5
  8
Layer_0
  10
371.32458
  20
313.81094
  0
VERTEX
  5
2d6
  8
Layer_0
  10
371.53564
  20
313.43292
  0
VERTEX
  5
2d7
  8
Layer_0
  10
371.80762
  20
313.09692
  0
VERTEX
  5
2d8
  8
Layer_0
  10
372.13263
  20
312.81091
  0
VERTEX
  5
2d9
  8
Layer_0
  10
372.50061
  20
312.58392
  0
VERTEX
  5
2da
  8
Layer_0
  10
372.90161
  20
312.42294
  0
VERTEX
  5
2db
  8
Layer_0
  10
373.32458
  20
312.33194
  0
VERTEX
  5
2dc
  8
Layer_0
  10
373.75659
  20
312.31293
  0
VERTEX
  5
2dd
  8
Layer_0
  10
374.18561
  20
312.36792
  0
VERTEX
  5
2de
  8
Layer_0
  10
374.59961
  20
312.49493
  0
VERTEX
  5
2df
  8
Layer_0
  10
374.9856
  20
312.68994
  0
VERTEX
  5
2e0
  8
Layer_0
  10
375.33362
  20
312.94693
  0
VERTEX
  5
2e1
  8
Layer_0
  10
375.63263
  20
313.25894
  0
VERTEX
  5
2e2
  8
Layer_0
  10
375.87463
  20
313.61694
  0
VERTEX
  5
2e3
  8
Layer_0
  10
376.05261
  20
314.01093
  0
VERTEX
  5
2e4
  8
Layer_0
  10
376.16162
  20
314.42993
  0
VERTEX
  5
2e5
  8
Layer_0
  10
376.19861
  20
314.86093
  0
VERTEX
  5
2e6
  8
Layer_0
  10
376.16162
  20
315.29193
  0
VERTEX
  5
2e7
  8
Layer_0
  10
376.05261
  20
315.71094
  0
VERTEX
  5
2e8
  8
Layer_0
  10
375.87463
  20
316.10492
  0
VERTEX
  5
2e9
  8
Layer_0
  10
375.63263
  20
316.46295
  0
VERTEX
  5
2ea
  8
Layer_0
  10
375.33362
  20
316.77493
  0
VERTEX
  5
2eb
  8
Layer_0
  10
374.9856
  20
317.03192
  0
VERTEX
  5
2ec
  8
Layer_0
  10
374.59961
  20
317.22693
  0
VERTEX
  5
2ed
  8
Layer_0
  10
374.18561
  20
317.35394
  0
VERTEX
  5
2ee
  8
Layer_0
  10
373.75659
  20
317.40894
  0
VERTEX
  5
2ef
  8
Layer_0
  10
373.32458
  20
317.38995
  0
VERTEX
  5
2f0
  8
Layer_0
  10
372.90161
  20
317.29895
  0
VERTEX
  5
2f1
  8
Layer_0
  10
372.50061
  20
317.13794
  0
VERTEX
  5
2f2
  8
Layer_0
  10
372.13263
  20
316.91095
  0
SEQEND
  0
POLYLINE
  5
2f4
  8
Layer_0
  62
1
  70
1
  66
1
  10
0
  20
0
  30
0
  0
VERTEX
  5
2f4
  8
Layer_0
  10
372.13263
  20
346.28839
  0
VERTEX
  5
2f5
  8
Layer_0
  10
371.80762
  20
346.00238
  0
VERTEX
  5
2f6
  8
Layer_0
  10
371.53564
  20
345.66638
  0
VERTEX
  5
2f7
  8
Layer_0
  10
371.32458
  20
345.28839
  0
VERTEX
  5
2f8
  8
Layer_0
  10
371.1806
  20
344.88141
  0
VERTEX
  5
2f9
  8
Layer_0
  10
371.1076
  20
344.45441
  0
VERTEX
  5
2fa
  8
Layer_0
  10
371.09863
  20
344.2384
  0
VERTEX
  5
2fb
  8
Layer_0
  10
371.1076
  20
344.0224
  0
VERTEX
  5
2fc
  8
Layer_0
  10
371.1806
  20
343.5954
  0
VERTEX
  5
2fd
  8
Layer_0
  10
371.32458
  20
343.18839
  0
VERTEX
  5
2fe
  8
Layer_0
  10
371.53564
  20
342.81039
  0
VERTEX
  5
2ff
  8
Layer_0
  10
371.80762
  20
342.4744
  0
VERTEX
  5
300
  8
Layer_0
  10
372.13263
  20
342.18839
  0
VERTEX
  5
301
  8
Layer_0
  10
372.50061
  20
341.9614
  0
VERTEX
  5
302
  8
Layer_0
  10
372.90161
  20
341.80038
  0
VERTEX
  5
303
  8
Layer_0
  10
373.32458
  20
341.70938
  0
VERTEX
  5
304
  8
Layer_0
  10
373.75659
  20
341.6904
  0
VERTEX
  5
305
  8
Layer_0
  10
374.18561
  20
341.74539
  0
VERTEX
  5
306
  8
Layer_0
  10
374.59961
  20
341.87238
  0
VERTEX
  5
307
  8
Layer_0
  10
374.9856
  20
342.06738
  0
VERTEX
  5
308
  8
Layer_0
  10
375.33362
  20
342.3244
  0
VERTEX
  5
309
  8
Layer_0
  10
375.63263
  20
342.63638
  0
VERTEX
  5
30a
  8
Layer_0
  10
375.87463
  20
342.99438
  0
VERTEX
  5
30b
  8
Layer_0
  10
376.05261
  20
343.3884
  0
VERTEX
  5
30c
  8
Layer_0
  10
376.16162
  20
343.80737
  0
VERTEX
  5
30d
  8
Layer_0
  10
376.19861
  20
344.2384
  0
VERTEX
  5
30e
  8
Layer_0
  10
376.16162
  20
344.66937
  0
VERTEX
  5
30f
  8
Layer_0
  10
376.05261
  20
345.08838
  0
VERTEX
  5
310
  8
Layer_0
  10
375.87463
  20
345.48239
  0
VERTEX
  5
311
  8
Layer_0
  10
375.63263
  20
345.84039
  0
VERTEX
  5
312
  8
Layer_0
  10
375.33362
  20
346.1524
  0
VERTEX
  5
313
  8
Layer_0
  10
374.9856
  20
346.40939
  0
VERTEX
  5
314
  8
Layer_0
  10
374.59961
  20
346.60437
  0
VERTEX
  5
315
  8
Layer_0
  10
374.18561
  20
346.73138
  0
VERTEX
  5
316
  8
Layer_0
  10
373.75659
  20
346.78638
  0
VERTEX
  5
317
  8
Layer_0
  10
373.32458
  20
346.7674
  0
VERTEX
  5
318
  8
Layer_0
  10
372.90161
  20
346.67639
  0
VERTEX
  5
319
  8
Layer_0
  10
372.50061
  20
346.51538
  0
VERTEX
  5
31a
  8
Layer_0
  10
372.13263
  20
346.28839
  0
SEQEND
  0
ENDSEC
  0
EOF
