<?xml version="1.0" encoding="UTF-8" standalone="no"?>
<svg
   xmlns:dc="http://purl.org/dc/elements/1.1/"
   xmlns:cc="http://creativecommons.org/ns#"
   xmlns:rdf="http://www.w3.org/1999/02/22-rdf-syntax-ns#"
   xmlns:svg="http://www.w3.org/2000/svg"
   xmlns="http://www.w3.org/2000/svg"
   xmlns:sodipodi="http://sodipodi.sourceforge.net/DTD/sodipodi-0.dtd"
   xmlns:inkscape="http://www.inkscape.org/namespaces/inkscape"
   width="168.01945mm"
   height="102.71999mm"
   viewBox="-124.745 -55.099998 168.01946 102.71999"
   version="1.1"
   id="svg8"
   sodipodi:docname="Rotary plates_V3_D01_Back.svg"
   inkscape:version="1.0 (4035a4fb49, 2020-05-01)">
  <defs
     id="defs12" />
  <sodipodi:namedview
     id="namedview10"
     pagecolor="#ffffff"
     bordercolor="#666666"
     borderopacity="1.0"
     inkscape:pageshadow="2"
     inkscape:pageopacity="0.0"
     inkscape:pagecheckerboard="0"
     inkscape:document-units="mm"
     showgrid="false"
     inkscape:zoom="0.48407096"
     inkscape:cx="616.1294"
     inkscape:cy="401.94611"
     inkscape:window-width="1920"
     inkscape:window-height="1027"
     inkscape:window-x="1912"
     inkscape:window-y="-8"
     inkscape:window-maximized="1"
     inkscape:current-layer="svg8"
     fit-margin-top="0"
     fit-margin-left="0"
     fit-margin-right="0"
     fit-margin-bottom="0"
     inkscape:snap-global="false"
     showborder="false"
     inkscape:document-rotation="0"
     showguides="true"
     inkscape:guide-bbox="true" />
  <title
     id="title2">svgOutput</title>
  <desc
     id="desc4">made with tinkercad</desc>
  <metadata
     id="metadata847">
    <rdf:RDF>
      <cc:Work
         rdf:about="">
        <dc:title>svgOutput</dc:title>
        <dc:format>image/svg+xml</dc:format>
        <dc:type
           rdf:resource="http://purl.org/dc/dcmitype/StillImage" />
      </cc:Work>
    </rdf:RDF>
  </metadata>
  <g
     id="g932"
     transform="translate(-0.15671687,-0.22297546)">
    <path
       id="path871"
       d="m -97.92927,-35.727047 -0.401,0.161 -0.368,0.227 -0.325,0.286 -0.272,0.336 -0.211,0.378 -0.144,0.407 -0.073,0.427 -0.009,0.216 0.009,0.216 0.073,0.427 0.144,0.407 0.211,0.378 0.272,0.336 0.325,0.286 0.368,0.226999 0.401,0.161 0.423,0.091 0.324,0.0143 0.108,0.005 0.429,-0.055 0.414,-0.127 0.386,-0.195 0.34801,-0.256999 0.299,-0.312 0.242,-0.358 0.178,-0.394 0.109,-0.419 0.037,-0.431 -0.037,-0.431 -0.109,-0.419 -0.178,-0.394 -0.242,-0.358 -0.299,-0.312 -0.34801,-0.257 -0.386,-0.195 -0.414,-0.127 -0.429,-0.055 -0.108,0.005 -0.324,0.0143 -0.423,0.091"
       style="fill:none;stroke:#ff0000;stroke-width:0.25;stroke-miterlimit:4;stroke-dasharray:none" />
    <path
       id="path869"
       d="m -77.78935,-36.860456 -0.597,0.129 -0.567,0.227 -0.52,0.320999 -0.45801,0.403 -0.384,0.475 -0.297,0.533 -0.186,0.52518 -0.018,0.0508 -0.103,0.602 -0.013,0.305 0.013,0.305 0.103,0.602 0.018,0.0508 0.186,0.52517 0.297,0.533 0.384,0.474999 0.45801,0.403 0.52,0.321 0.567,0.227 0.597,0.129 0.61,0.026 0.477,-0.0615 0.128,-0.0165 0.584,-0.179 0.546,-0.274 0.49,-0.364 0.423,-0.44 0.342,-0.505999 0.251,-0.557 0.154,-0.591 0.052,-0.608 -0.052,-0.608 -0.154,-0.591 -0.251,-0.557 -0.342,-0.506 -0.423,-0.44 c 0,0 -0.4295,-0.398348 -1.036,-0.638 l -0.584,-0.179 -0.128,-0.0165 -0.477,-0.0615 -0.61,0.026"
       style="fill:none;stroke:#ff0000;stroke-width:0.25;stroke-miterlimit:4;stroke-dasharray:none" />
    <path
       transform="matrix(0.26458333,0,0,0.26458333,-124.745,-55.099998)"
       d="M 11.810547,0.47265625 10.037109,0.61328125 8.3066406,1.0292969 6.6621094,1.7089844 5.1464844,2.6386719 3.7949219,3.7949219 2.6386719,5.1484375 1.7070312,6.6640625 1.0273438,8.3085938 0.61132812,10.039062 0.47265625,11.8125 v 53.554688 37.771482 45.55469 l 0.13867187,1.77344 0.41601568,1.73047 0.6796874,1.64453 0.9316407,1.51562 1.15625,1.35352 1.3515625,1.15625 1.515625,0.92969 1.6445312,0.67968 1.7304684,0.41602 1.773438,0.14062 h 4.074219 2.601562 v 0.16992 h 0.002 172.796882 32.01172 l 12.69921,120.38868 c 1.15469,0.65881 1.29315,57.94155 29.18164,85.83008 18.0768,17.62034 65.59054,21.84073 93.89258,21.29296 l 229.73242,0.0332 c 60.46746,0.56103 61.84524,-88.34683 -0.86914,-88.30469 l -105.25,1.39258 -0.0156,-0.004 -14.59375,-0.14062 -3.28125,3.17382 -3.12891,-3.23632 -91.2207,-0.87891 -5.5957,-0.0547 c -13.51193,-0.18255 -37.8804,1.31905 -57.05274,-31.73047 L 291.14062,57.314453 c 0,0 -94.4032,-15.592332 -94.00585,-14.839844 L 55.882812,0.47460938 Z"
       style="fill:none;stroke:#ff0000;stroke-width:0.944882;stroke-miterlimit:4;stroke-dasharray:none"
       id="path867" />
    <path
       id="path863"
       d="m -33.21029,31.37855 c 0,1.35668 -1.0998,2.45648 -2.45648,2.45648 -1.35668,0 -2.45648,-1.0998 -2.45648,-2.45648 0,-1.35668 1.0998,-2.45648 2.45648,-2.45648 1.35668,0 2.45648,1.0998 2.45648,2.45648 z"
       style="fill:none;stroke:#ff0000;stroke-width:0.25;stroke-miterlimit:4;stroke-dasharray:none" />
    <path
       id="path861"
       d="m 30.03255,31.37854 c 0,1.35668 1.0998,2.45648 2.45648,2.45648 1.35668,0 2.45648,-1.0998 2.45648,-2.45648 0,-1.35668 -1.0998,-2.45648 -2.45648,-2.45648 -1.35668,0 -2.45648,1.0998 -2.45648,2.45648 z"
       style="fill:none;stroke:#ff0000;stroke-width:0.25;stroke-miterlimit:4;stroke-dasharray:none" />
    <path
       id="path859"
       d="m -23.15608,31.37855 c 0,1.35668 -1.09981,2.45648 -2.45648,2.45648 -1.35668,0 -2.45649,-1.0998 -2.45649,-2.45648 0,-1.35668 1.09981,-2.45648 2.45649,-2.45648 1.35667,0 2.45648,1.0998 2.45648,2.45648 z"
       style="fill:none;stroke:#ff0000;stroke-width:0.25;stroke-miterlimit:4;stroke-dasharray:none" />
    <path
       id="path853"
       d="m 19.97834,31.37854 c 0,1.35668 1.0998,2.45648 2.45648,2.45648 1.35668,0 2.45648,-1.0998 2.45648,-2.45648 0,-1.35668 -1.0998,-2.45648 -2.45648,-2.45648 -1.35668,0 -2.45648,1.0998 -2.45648,2.45648 z"
       style="fill:none;stroke:#ff0000;stroke-width:0.25;stroke-miterlimit:4;stroke-dasharray:none" />
    <path
       id="path851"
       d="m -15.21851,31.37855 c 0,1.35668 -1.0998,2.45648 -2.45648,2.45648 -1.35668,0 -2.45648,-1.0998 -2.45648,-2.45648 0,-1.35668 1.0998,-2.45648 2.45648,-2.45648 1.35668,0 2.45648,1.0998 2.45648,2.45648 z"
       style="fill:none;stroke:#ff0000;stroke-width:0.25;stroke-miterlimit:4;stroke-dasharray:none" />
    <path
       id="path849"
       d="m 12.04083,31.37854 c 0,1.35668 1.0998,2.45648 2.45648,2.45648 1.35668,0 2.45648,-1.0998 2.45648,-2.45648 0,-1.35668 -1.0998,-2.45648 -2.45648,-2.45648 -1.35668,0 -2.45648,1.0998 -2.45648,2.45648 z"
       style="fill:none;stroke:#ff0000;stroke-width:0.25;stroke-miterlimit:4;stroke-dasharray:none" />
    <g
       id="g913">
      <path
         style="fill:none;stroke:#ff0000;stroke-width:0.25;stroke-miterlimit:4;stroke-dasharray:none"
         d="m -3.12758,41.42808 c 0,0.81401 0.65988,1.47389 1.47389,1.47389 0.81401,0 1.47389,-0.65988 1.47389,-1.47389 0,-0.814 -0.65989,-1.47388 -1.47389,-1.47388 -0.81401,0 -1.47389,0.65988 -1.47389,1.47388 z"
         id="path865" />
      <path
         style="fill:none;stroke:#ff0000;stroke-width:0.25;stroke-miterlimit:4;stroke-dasharray:none"
         d="m 1.10576,28.67379 c 0,0.81401 0.65988,1.47389 1.47389,1.47389 0.81401,0 1.47389,-0.65988 1.47389,-1.47389 0,-0.814 -0.65988,-1.47388 -1.47389,-1.47388 -0.814,0 -1.47388,0.65988 -1.47389,1.47388 z"
         id="path847" />
      <path
         style="fill:none;stroke:#ff0000;stroke-width:0.25;stroke-miterlimit:4;stroke-dasharray:none"
         d="m -7.36098,28.67379 c -1e-5,0.81401 0.65988,1.47389 1.47389,1.47389 0.81401,0 1.47389,-0.65988 1.47389,-1.47389 -1e-5,-0.814 -0.65989,-1.47388 -1.47389,-1.47388 -0.81401,0 -1.47389,0.65988 -1.47389,1.47388 z"
         id="path845" />
    </g>
    <path
       id="path843"
       d="m -118.60268,-20.651053 -0.27501,0.241999 -0.05,0.044 -0.272,0.336 -0.211,0.378 -0.144,0.407 -0.073,0.427 -0.009,0.216 0.009,0.216 0.073,0.427 0.144,0.407 0.211,0.378 0.272,0.336004 0.32501,0.286 0.36799,0.227 0.0274,0.011 0.3736,0.15 0.423,0.091 0.432,0.019 0.429,-0.055 0.414,-0.127 0.1544,-0.078 0.2316,-0.117 0.348,-0.257 0.299,-0.312004 0.242,-0.358 0.178,-0.394 0.109,-0.419 0.037,-0.431 -0.037,-0.431 -0.109,-0.419 -0.178,-0.394 -0.242,-0.358 -0.19742,-0.206 -0.10158,-0.106 -0.348,-0.256999 -0.386,-0.195 -0.414,-0.127 -0.429,-0.055 -0.432,0.019 -0.423,0.091 -0.40099,0.161 -0.368,0.227"
       style="fill:none;stroke:#ff0000;stroke-width:0.25;stroke-miterlimit:4;stroke-dasharray:none" />
    <path
       id="path833"
       d="m -118.60268,-50.028509 -0.27501,0.242 -0.05,0.044 -0.272,0.336 -0.211,0.378 -0.144,0.407 -0.073,0.427001 -0.009,0.216 0.009,0.216 0.073,0.427 0.144,0.406999 0.211,0.378 0.272,0.336 0.32501,0.286 0.36799,0.227 0.0274,0.011 0.3736,0.15 0.423,0.091 0.432,0.019 0.429,-0.055 0.414,-0.127 0.1544,-0.078 0.2316,-0.117 0.348,-0.257 0.299,-0.312 0.242,-0.358 0.178,-0.393999 0.109,-0.419 0.037,-0.431 -0.037,-0.431001 -0.109,-0.419 -0.178,-0.394 -0.242,-0.358 -0.19742,-0.206 -0.10158,-0.106 -0.348,-0.257 -0.386,-0.195 -0.414,-0.127 -0.429,-0.055 -0.432,0.019 -0.423,0.091 -0.40099,0.161 -0.368,0.227"
       style="fill:none;stroke:#ff0000;stroke-width:0.25;stroke-miterlimit:4;stroke-dasharray:none" />
  </g>
</svg>
