<?xml version="1.0" encoding="UTF-8" standalone="no"?>
<svg
   inkscape:version="1.1 (c68e22c387, 2021-05-23)"
   sodipodi:docname="Carriage Plate V3_D01.svg"
   id="svg8"
   version="1.1"
   viewBox="-64.5 -44.99999999999999 129 89.99999999999999"
   height="89.99999999999999mm"
   width="129mm"
   xmlns:inkscape="http://www.inkscape.org/namespaces/inkscape"
   xmlns:sodipodi="http://sodipodi.sourceforge.net/DTD/sodipodi-0.dtd"
   xmlns="http://www.w3.org/2000/svg"
   xmlns:svg="http://www.w3.org/2000/svg"
   xmlns:rdf="http://www.w3.org/1999/02/22-rdf-syntax-ns#"
   xmlns:cc="http://creativecommons.org/ns#"
   xmlns:dc="http://purl.org/dc/elements/1.1/">
  <defs
     id="defs12" />
  <sodipodi:namedview
     showborder="false"
     inkscape:document-rotation="0"
     inkscape:guide-bbox="true"
     showguides="true"
     inkscape:snap-global="false"
     inkscape:current-layer="svg8"
     inkscape:window-maximized="1"
     inkscape:window-y="-8"
     inkscape:window-x="-8"
     inkscape:window-height="1027"
     inkscape:window-width="1920"
     inkscape:cy="-2.1289412"
     inkscape:cx="469.31325"
     inkscape:zoom="2.1137268"
     showgrid="false"
     inkscape:document-units="mm"
     inkscape:pagecheckerboard="0"
     inkscape:pageopacity="0.0"
     inkscape:pageshadow="2"
     borderopacity="1.0"
     bordercolor="#666666"
     pagecolor="#ffffff"
     id="namedview10" />
  <title
     id="title2">svgOutput</title>
  <desc
     id="desc4">made with tinkercad</desc>
  <metadata
     id="metadata829">
    <rdf:RDF>
      <cc:Work
         rdf:about="">
        <dc:title>svgOutput</dc:title>
        <dc:format>image/svg+xml</dc:format>
        <dc:type
           rdf:resource="http://purl.org/dc/dcmitype/StillImage" />
      </cc:Work>
    </rdf:RDF>
  </metadata>
  <g
     id="g939">
    <g
       id="g850">
      <path
         id="path1355"
         d="m 36.139572,-43.619436 -0.300999,0.013 -0.329001,0.05649 -0.265001,0.04551 -0.566999,0.2 -0.525999,0.294 -0.468001,0.378 -0.398,0.452 -0.316,0.513 -0.223999,0.558 -0.127001,0.589 -0.01948,0.451 -0.0065,0.151 0.077,0.597 0.176001,0.576 0.271,0.537 0.358,0.484 0.434999,0.417 0.499001,0.337 0.547998,0.248 0.553001,0.144178 0.03,0.0078 0.600001,0.051 0.6,-0.051 0.583,-0.152 0.547978,-0.247998 0.498998,-0.337 0.435002,-0.417 0.357999,-0.484 0.271,-0.537 0.171999,-0.562909 0.004,-0.01309 0.077,-0.597 -0.0065,-0.151 -0.01948,-0.451 -0.055,-0.255079 -0.072,-0.333921 -0.224001,-0.558 -0.316,-0.513 -0.397999,-0.452 -0.468001,-0.378 -0.526,-0.294 -0.567,-0.2 -0.594,-0.102 -0.301,-0.013"
         style="fill:none;stroke:#ff0000;stroke-width:0.2;stroke-miterlimit:4;stroke-dasharray:none" />
      <path
         id="path1337"
         d="m 36.139572,-73.939435 -0.300999,0.013 -0.329001,0.05649 -0.265001,0.04551 -0.566999,0.200001 -0.525999,0.293998 -0.468001,0.378003 -0.101261,0.114997 -0.296739,0.337002 -0.316,0.513001 -0.223999,0.557998 -0.127001,0.589001 -0.026,0.601999 0.077,0.597 0.176001,0.576001 0.163507,0.323999 0.107493,0.213001 0.358,0.484 0.434999,0.416999 0.499001,0.337 0.547998,0.248001 0.583,0.152001 0.600001,0.051 0.6,-0.051 0.583,-0.152001 0.548001,-0.248001 0.498998,-0.337 0.435002,-0.416999 0.357999,-0.484 0.107491,-0.213001 0.163509,-0.323999 0.171999,-0.562908 0.004,-0.01309 0.077,-0.597 -0.026,-0.601999 -0.055,-0.255079 -0.072,-0.333922 -0.224001,-0.557998 -0.316,-0.513001 -0.29674,-0.337002 -0.101259,-0.114997 -0.468001,-0.378003 -0.526,-0.293998 -0.567,-0.200001 -0.594,-0.101997 -0.301,-0.013"
         style="fill:none;stroke:#ff0000;stroke-width:0.2;stroke-miterlimit:4;stroke-dasharray:none" />
    </g>
    <path
       id="path1273"
       d="m 75.839572,-79.289439 -0.215999,0.009 -0.427,0.073 -0.05653,0.02 -0.350474,0.124001 -0.377998,0.211002 -0.336001,0.272 -0.286001,0.324999 -0.226999,0.368 -0.160999,0.401001 -0.091,0.423 -0.019,0.431999 0.055,0.428999 0.126999,0.414002 0.195002,0.385999 0.229675,0.310999 0.02733,0.037 0.311998,0.299 0.358002,0.242 0.393999,0.178 0.419001,0.109001 0.430999,0.037 0.431,-0.037 0.419001,-0.109001 0.393999,-0.178 0.358,-0.242 0.312,-0.299 0.02733,-0.037 0.229675,-0.310999 0.195,-0.385999 0.127,-0.414002 0.055,-0.428999 -0.019,-0.431999 -0.091,-0.423 -0.161008,-0.401004 -0.227001,-0.368 -0.286,-0.324999 -0.336,-0.272 -0.378,-0.211002 -0.350472,-0.124001 -0.05653,-0.02 -0.427,-0.073 -0.216,-0.009"
       style="fill:none;stroke:#ff0000;stroke-width:0.2;stroke-miterlimit:4;stroke-dasharray:none" />
    <path
       id="path1267"
       d="m 97.267572,-42.182436 -0.318001,-0.177508 -0.06,-0.03349 -0.407002,-0.144 -0.426998,-0.073 -0.216004,-0.009 -0.215999,0.009 -0.426998,0.073 -0.407002,0.144 -0.377998,0.211 -0.336002,0.272 -0.286,0.325 -0.226997,0.368 -0.161003,0.401 -0.091,0.423 -0.01425,0.324 -0.0048,0.108 0.055,0.429 0.127003,0.414 0.195,0.386 0.257,0.348 0.312,0.299 0.357998,0.242 0.394053,0.178 0.418999,0.109 0.430999,0.037 0.431,-0.037 0.419003,-0.109 0.259998,-0.117462 0.134003,-0.06054 0.357998,-0.242 0.312,-0.299 0.257,-0.348 0.195,-0.386 0.126999,-0.414 0.055,-0.429 -0.0047,-0.108 -0.01425,-0.324 -0.091,-0.423 -0.160999,-0.401 -0.226997,-0.368 -0.286004,-0.325 -0.335998,-0.272"
       style="fill:none;stroke:#ff0000;stroke-width:0.2;stroke-miterlimit:4;stroke-dasharray:none" />
    <path
       id="path1257"
       d="m 95.83957,-72.939435 -0.215999,0.009 -0.426998,0.073 -0.05653,0.02 -0.350472,0.124001 -0.377998,0.211002 -0.336002,0.272 -0.286,0.324999 -0.226997,0.368 -0.161003,0.401001 -0.091,0.423 -0.019,0.431999 0.055,0.428999 0.127003,0.414002 0.195,0.385999 0.229675,0.310999 0.02732,0.037 0.312,0.299 0.357998,0.242 0.394001,0.178 0.418999,0.109001 0.430999,0.037 0.431,-0.037 0.419003,-0.109001 0.259998,-0.117463 0.134003,-0.06054 0.357998,-0.242 0.312,-0.299 0.02732,-0.037 0.229675,-0.310999 0.195,-0.385999 0.126999,-0.414002 0.055,-0.428999 -0.019,-0.431999 -0.091,-0.423 -0.160999,-0.401001 -0.226997,-0.368 -0.286004,-0.324999 -0.335998,-0.272 -0.318001,-0.177509 -0.06,-0.03349 -0.350476,-0.124001 -0.05653,-0.02 -0.426998,-0.073 -0.216004,-0.009"
       style="fill:none;stroke:#ff0000;stroke-width:0.2;stroke-miterlimit:4;stroke-dasharray:none" />
    <path
       d="m 31.699298,-83.485012 -0.265617,0.02325 -0.259414,0.06873 -0.24598,0.112138 -0.226859,0.153479 -0.202573,0.190686 -0.173633,0.223242 -0.139009,0.250114 -0.101802,0.271301 -0.06253,0.285771 -0.02066,0.292489 v 5.133536 0.0956 1.491382 1.430404 1.44694 0.644922 5.108732 10.21798 0.06046 1.429885 1.447458 7.280175 5.108733 5.109247 5.133539 l 0.02066,0.292489 0.06253,0.285768 0.101802,0.271304 0.139009,0.250113 0.173633,0.223242 0.202573,0.190686 0.226859,0.153479 0.24598,0.112139 0.259414,0.06873 0.265617,0.02326 h 1.785938 4.636926 6.954097 v 8.81445 h 2.056722 c 1.098645,0 1.983343,0.884696 1.983343,1.983341 v 2.203484 c 0,1.098643 -0.884698,1.983341 -1.983343,1.983341 h -2.056722 v 4.6152219 c 0,1.2258807 0.986901,2.2127845 2.212787,2.2127845 h 17.401002 c 1.225884,0 2.212785,-0.9869038 2.212785,-2.2127845 V -13.61899 h -2.05672 c -1.098645,0 -1.983343,-0.884701 -1.983343,-1.983341 v -2.203484 c 0,-1.098645 0.884698,-1.983341 1.983343,-1.983341 h 2.05672 v -8.814453 h 3.675745 4.63641 4.63641 4.636926 9.273336 6.42286 l 0.2651,-0.02326 0.25942,-0.06873 0.24598,-0.112138 0.22737,-0.15348 0.20258,-0.190685 0.17311,-0.223242 0.13901,-0.250114 0.1018,-0.271303 0.0625,-0.285769 0.0207,-0.292489 v -5.133536 -5.109247 -5.108733 -9.358601 -0.85938 -10.21798 -5.108732 -5.109249 -3.166215 -1.967321 l -0.0207,-0.292489 -0.0625,-0.285771 -0.1018,-0.271301 -0.13901,-0.250114 -0.17311,-0.223242 -0.20258,-0.190686 -0.22737,-0.153479 -0.24598,-0.112138 -0.25942,-0.06873 -0.2651,-0.02325 H 93.76166 84.488324 81.911219 81.151061 80.529909 79.947 79.8514 75.21499 70.57858 65.941654 61.305246 56.668318 52.03191 47.3955 42.758574 38.122164 33.485238 Z"
       style="fill:none;stroke:#ff0000;stroke-width:0.118823;stroke-miterlimit:4;stroke-dasharray:none"
       id="path6"
       sodipodi:nodetypes="ccccccccccccccccccccccccccccccccccccccccsssscsssscsssscccccccccccccccccccccccccccccccccccccccccccccccccccccccc" />
    <path
       style="fill:none;stroke:#ff0000;stroke-width:0.2;stroke-miterlimit:4;stroke-dasharray:none"
       d="m 55.9896,-19.254331 -0.216,0.009 -0.427,0.073 -0.407,0.144 -0.378,0.211 -0.336,0.272 -0.02904,0.033 -0.25696,0.292 -0.227,0.368 -0.160999,0.401 -0.091,0.422999 -0.019,0.432001 0.055,0.429 0.126944,0.414 0.195,0.386 0.257,0.348 0.311999,0.299 0.358,0.242 0.394001,0.178 0.418999,0.109 0.431001,0.037 0.431,-0.037 0.419,-0.109 0.394,-0.178 0.358,-0.242 0.312,-0.299 0.257,-0.348 0.194999,-0.386 0.127001,-0.414 0.055,-0.429 -0.019,-0.432 -0.091,-0.423 -0.161,-0.401 -0.227,-0.368 -0.25696,-0.292 -0.02904,-0.033 -0.336,-0.272 -0.378,-0.211 -0.407,-0.144 -0.427,-0.073 -0.216,-0.009"
       id="path872" />
    <path
       style="fill:none;stroke:#ff0000;stroke-width:0.2;stroke-miterlimit:4;stroke-dasharray:none"
       d="m 55.9896,-39.254331 -0.216,0.009 -0.427,0.073 -0.407,0.144 -0.378,0.211 -0.336,0.272 -0.286,0.325 -0.227,0.368 -0.161,0.401 -0.091,0.423 -0.019,0.432 0.055,0.429 0.126955,0.414 0.195,0.386 0.257,0.348 0.128348,0.123 0.183652,0.176 0.358,0.242 0.394,0.178 0.419,0.109 0.431,0.037 0.431,-0.037 0.419,-0.109 0.394,-0.178 0.358,-0.242 0.183652,-0.176 0.128348,-0.123 0.257,-0.348 0.195,-0.386 0.127,-0.414 0.055,-0.429 -0.019,-0.432 -0.091,-0.423 -0.161,-0.401 -0.227,-0.368 -0.286,-0.325 -0.336,-0.272 -0.378,-0.211 -0.407,-0.144 -0.427,-0.073 -0.216,-0.009"
       id="path876" />
    <path
       id="path846"
       d="m 36.139572,-58.779448 -0.300999,0.013 -0.329001,0.05649 -0.265001,0.04551 -0.566999,0.200001 -0.525999,0.293998 -0.468001,0.378004 -0.101261,0.114997 -0.296739,0.337002 -0.316,0.513001 -0.223999,0.557998 -0.127001,0.589 -0.026,0.602 0.077,0.596999 0.176001,0.576002 0.163507,0.323999 0.107493,0.213001 0.358,0.484 0.434999,0.416999 0.499001,0.337 0.547998,0.248001 0.583,0.152001 0.600001,0.051 0.6,-0.051 0.583,-0.152001 0.548001,-0.248001 0.498998,-0.337 0.435002,-0.416999 0.357999,-0.484 0.107491,-0.213001 0.163509,-0.323999 0.171999,-0.562908 0.004,-0.01309 0.077,-0.597 -0.026,-0.601999 -0.055,-0.255079 -0.072,-0.333922 -0.224001,-0.557998 -0.316,-0.513001 -0.29674,-0.337002 -0.101259,-0.114997 -0.468001,-0.378003 -0.526,-0.293999 -0.567,-0.200001 -0.594,-0.101996 -0.301,-0.013"
       style="fill:none;stroke:#ff0000;stroke-width:0.2;stroke-miterlimit:4;stroke-dasharray:none" />
    <path
       style="fill:none;stroke:#ff0000;stroke-width:0.2;stroke-miterlimit:4;stroke-dasharray:none"
       d="m 55.9896,-79.289439 -0.216,0.009 -0.427,0.073 -0.407,0.144 -0.378,0.211 -0.336,0.272 -0.286,0.325 -0.227,0.368 -0.161,0.401 -0.091,0.423 -0.019,0.432 0.055,0.429 0.126955,0.414 0.195,0.386 0.257,0.348 0.128348,0.123 0.183652,0.176 0.358,0.242 0.394,0.178 0.419,0.109 0.431,0.037 0.431,-0.037 0.419,-0.109 0.394,-0.178 0.358,-0.242 0.183652,-0.176 0.128348,-0.123 0.257,-0.348 0.195,-0.386 0.127,-0.414 0.055,-0.429 -0.019,-0.432 -0.091,-0.423 -0.161,-0.401 -0.227,-0.368 -0.286,-0.325 -0.336,-0.272 -0.378,-0.211 -0.407,-0.144 -0.427,-0.073 -0.216,-0.009"
       id="path926" />
  </g>
</svg>
