  0
SECTION
  2
HEADER
  9
$ACADVER
  1
AC1009
  0
ENDSEC
  0
SECTION
  2
ENTITIES
  0
POLYLINE
  5
90
  8
Layer_0
  62
1
  70
1
  66
1
  10
0
  20
0
  30
0
  0
VERTEX
  5
90
  8
Layer_0
  10
420.19794
  20
298.48145
  0
VERTEX
  5
91
  8
Layer_0
  10
419.89691
  20
298.46844
  0
VERTEX
  5
92
  8
Layer_0
  10
419.30292
  20
298.36642
  0
VERTEX
  5
93
  8
Layer_0
  10
418.73593
  20
298.16644
  0
VERTEX
  5
94
  8
Layer_0
  10
418.20993
  20
297.87244
  0
VERTEX
  5
95
  8
Layer_0
  10
417.74191
  20
297.49445
  0
VERTEX
  5
96
  8
Layer_0
  10
417.34393
  20
297.04242
  0
VERTEX
  5
97
  8
Layer_0
  10
417.02792
  20
296.52942
  0
VERTEX
  5
98
  8
Layer_0
  10
416.80392
  20
295.97144
  0
VERTEX
  5
99
  8
Layer_0
  10
416.67691
  20
295.38245
  0
VERTEX
  5
9a
  8
Layer_0
  10
416.65094
  20
294.78043
  0
VERTEX
  5
9b
  8
Layer_0
  10
416.72794
  20
294.18344
  0
VERTEX
  5
9c
  8
Layer_0
  10
416.90393
  20
293.60742
  0
VERTEX
  5
9d
  8
Layer_0
  10
417.17493
  20
293.07043
  0
VERTEX
  5
9e
  8
Layer_0
  10
417.53293
  20
292.58643
  0
VERTEX
  5
9f
  8
Layer_0
  10
417.96796
  20
292.16943
  0
VERTEX
  5
a0
  8
Layer_0
  10
418.46695
  20
291.83243
  0
VERTEX
  5
a1
  8
Layer_0
  10
419.01495
  20
291.58444
  0
VERTEX
  5
a2
  8
Layer_0
  10
419.59793
  20
291.43246
  0
VERTEX
  5
a3
  8
Layer_0
  10
420.19794
  20
291.38147
  0
VERTEX
  5
a4
  8
Layer_0
  10
420.79794
  20
291.43246
  0
VERTEX
  5
a5
  8
Layer_0
  10
421.38095
  20
291.58444
  0
VERTEX
  5
a6
  8
Layer_0
  10
421.92892
  20
291.83246
  0
VERTEX
  5
a7
  8
Layer_0
  10
422.42792
  20
292.16946
  0
VERTEX
  5
a8
  8
Layer_0
  10
422.86292
  20
292.58646
  0
VERTEX
  5
a9
  8
Layer_0
  10
423.22092
  20
293.07047
  0
VERTEX
  5
aa
  8
Layer_0
  10
423.49191
  20
293.60745
  0
VERTEX
  5
ab
  8
Layer_0
  10
423.66791
  20
294.18344
  0
VERTEX
  5
ac
  8
Layer_0
  10
423.74493
  20
294.78046
  0
VERTEX
  5
ad
  8
Layer_0
  10
423.71893
  20
295.38245
  0
VERTEX
  5
ae
  8
Layer_0
  10
423.59195
  20
295.97147
  0
VERTEX
  5
af
  8
Layer_0
  10
423.36795
  20
296.52945
  0
VERTEX
  5
b0
  8
Layer_0
  10
423.05194
  20
297.04245
  0
VERTEX
  5
b1
  8
Layer_0
  10
422.65393
  20
297.49445
  0
VERTEX
  5
b2
  8
Layer_0
  10
422.18594
  20
297.87247
  0
VERTEX
  5
b3
  8
Layer_0
  10
421.65994
  20
298.16644
  0
VERTEX
  5
b4
  8
Layer_0
  10
421.09293
  20
298.36646
  0
VERTEX
  5
b5
  8
Layer_0
  10
420.49893
  20
298.46844
  0
VERTEX
  5
b6
  8
Layer_0
  10
420.19794
  20
298.48145
  0
SEQEND
  0
POLYLINE
  5
b8
  8
Layer_0
  62
1
  70
1
  66
1
  10
0
  20
0
  30
0
  0
VERTEX
  5
b8
  8
Layer_0
  10
420.19794
  20
328.80142
  0
VERTEX
  5
b9
  8
Layer_0
  10
419.89691
  20
328.78842
  0
VERTEX
  5
ba
  8
Layer_0
  10
419.30292
  20
328.68643
  0
VERTEX
  5
bb
  8
Layer_0
  10
418.73593
  20
328.48642
  0
VERTEX
  5
bc
  8
Layer_0
  10
418.20993
  20
328.19244
  0
VERTEX
  5
bd
  8
Layer_0
  10
417.74191
  20
327.81442
  0
VERTEX
  5
be
  8
Layer_0
  10
417.34393
  20
327.36243
  0
VERTEX
  5
bf
  8
Layer_0
  10
417.02792
  20
326.84943
  0
VERTEX
  5
c0
  8
Layer_0
  10
416.80392
  20
326.29144
  0
VERTEX
  5
c1
  8
Layer_0
  10
416.67691
  20
325.70242
  0
VERTEX
  5
c2
  8
Layer_0
  10
416.65091
  20
325.10043
  0
VERTEX
  5
c3
  8
Layer_0
  10
416.72794
  20
324.50342
  0
VERTEX
  5
c4
  8
Layer_0
  10
416.90393
  20
323.92743
  0
VERTEX
  5
c5
  8
Layer_0
  10
417.17493
  20
323.39044
  0
VERTEX
  5
c6
  8
Layer_0
  10
417.53293
  20
322.90643
  0
VERTEX
  5
c7
  8
Layer_0
  10
417.96793
  20
322.48944
  0
VERTEX
  5
c8
  8
Layer_0
  10
418.46692
  20
322.15244
  0
VERTEX
  5
c9
  8
Layer_0
  10
419.01492
  20
321.90442
  0
VERTEX
  5
ca
  8
Layer_0
  10
419.59793
  20
321.75244
  0
VERTEX
  5
cb
  8
Layer_0
  10
420.19794
  20
321.70142
  0
VERTEX
  5
cc
  8
Layer_0
  10
420.79791
  20
321.75244
  0
VERTEX
  5
cd
  8
Layer_0
  10
421.38092
  20
321.90442
  0
VERTEX
  5
ce
  8
Layer_0
  10
421.92892
  20
322.15244
  0
VERTEX
  5
cf
  8
Layer_0
  10
422.42792
  20
322.48944
  0
VERTEX
  5
d0
  8
Layer_0
  10
422.86292
  20
322.90643
  0
VERTEX
  5
d1
  8
Layer_0
  10
423.22092
  20
323.39044
  0
VERTEX
  5
d2
  8
Layer_0
  10
423.49191
  20
323.92743
  0
VERTEX
  5
d3
  8
Layer_0
  10
423.66791
  20
324.50342
  0
VERTEX
  5
d4
  8
Layer_0
  10
423.74493
  20
325.10043
  0
VERTEX
  5
d5
  8
Layer_0
  10
423.71893
  20
325.70242
  0
VERTEX
  5
d6
  8
Layer_0
  10
423.59192
  20
326.29144
  0
VERTEX
  5
d7
  8
Layer_0
  10
423.36792
  20
326.84943
  0
VERTEX
  5
d8
  8
Layer_0
  10
423.05191
  20
327.36243
  0
VERTEX
  5
d9
  8
Layer_0
  10
422.65393
  20
327.81442
  0
VERTEX
  5
da
  8
Layer_0
  10
422.18591
  20
328.19244
  0
VERTEX
  5
db
  8
Layer_0
  10
421.65991
  20
328.48642
  0
VERTEX
  5
dc
  8
Layer_0
  10
421.09293
  20
328.68643
  0
VERTEX
  5
dd
  8
Layer_0
  10
420.49893
  20
328.78842
  0
VERTEX
  5
de
  8
Layer_0
  10
420.19794
  20
328.80142
  0
SEQEND
  0
POLYLINE
  5
e0
  8
Layer_0
  62
1
  70
1
  66
1
  10
0
  20
0
  30
0
  0
VERTEX
  5
e0
  8
Layer_0
  10
459.89792
  20
334.15143
  0
VERTEX
  5
e1
  8
Layer_0
  10
459.68192
  20
334.14243
  0
VERTEX
  5
e2
  8
Layer_0
  10
459.25491
  20
334.06943
  0
VERTEX
  5
e3
  8
Layer_0
  10
458.84793
  20
333.92545
  0
VERTEX
  5
e4
  8
Layer_0
  10
458.46991
  20
333.71442
  0
VERTEX
  5
e5
  8
Layer_0
  10
458.13391
  20
333.44244
  0
VERTEX
  5
e6
  8
Layer_0
  10
457.84793
  20
333.11743
  0
VERTEX
  5
e7
  8
Layer_0
  10
457.62091
  20
332.74942
  0
VERTEX
  5
e8
  8
Layer_0
  10
457.45993
  20
332.34842
  0
VERTEX
  5
e9
  8
Layer_0
  10
457.36893
  20
331.92542
  0
VERTEX
  5
ea
  8
Layer_0
  10
457.34991
  20
331.49344
  0
VERTEX
  5
eb
  8
Layer_0
  10
457.40491
  20
331.06442
  0
VERTEX
  5
ec
  8
Layer_0
  10
457.53192
  20
330.65042
  0
VERTEX
  5
ed
  8
Layer_0
  10
457.72693
  20
330.26443
  0
VERTEX
  5
ee
  8
Layer_0
  10
457.98392
  20
329.91644
  0
VERTEX
  5
ef
  8
Layer_0
  10
458.29593
  20
329.61743
  0
VERTEX
  5
f0
  8
Layer_0
  10
458.65393
  20
329.37543
  0
VERTEX
  5
f1
  8
Layer_0
  10
459.04791
  20
329.19742
  0
VERTEX
  5
f2
  8
Layer_0
  10
459.46692
  20
329.08844
  0
VERTEX
  5
f3
  8
Layer_0
  10
459.89792
  20
329.05142
  0
VERTEX
  5
f4
  8
Layer_0
  10
460.32892
  20
329.08844
  0
VERTEX
  5
f5
  8
Layer_0
  10
460.74792
  20
329.19742
  0
VERTEX
  5
f6
  8
Layer_0
  10
461.14194
  20
329.37543
  0
VERTEX
  5
f7
  8
Layer_0
  10
461.49994
  20
329.61743
  0
VERTEX
  5
f8
  8
Layer_0
  10
461.81192
  20
329.91644
  0
VERTEX
  5
f9
  8
Layer_0
  10
462.06894
  20
330.26443
  0
VERTEX
  5
fa
  8
Layer_0
  10
462.26392
  20
330.65042
  0
VERTEX
  5
fb
  8
Layer_0
  10
462.39093
  20
331.06442
  0
VERTEX
  5
fc
  8
Layer_0
  10
462.44592
  20
331.49344
  0
VERTEX
  5
fd
  8
Layer_0
  10
462.42694
  20
331.92542
  0
VERTEX
  5
fe
  8
Layer_0
  10
462.33594
  20
332.34842
  0
VERTEX
  5
ff
  8
Layer_0
  10
462.17493
  20
332.74945
  0
VERTEX
  5
100
  8
Layer_0
  10
461.94794
  20
333.11743
  0
VERTEX
  5
101
  8
Layer_0
  10
461.66193
  20
333.44244
  0
VERTEX
  5
102
  8
Layer_0
  10
461.32593
  20
333.71445
  0
VERTEX
  5
103
  8
Layer_0
  10
460.94794
  20
333.92545
  0
VERTEX
  5
104
  8
Layer_0
  10
460.54092
  20
334.06943
  0
VERTEX
  5
105
  8
Layer_0
  10
460.11392
  20
334.14246
  0
VERTEX
  5
106
  8
Layer_0
  10
459.89792
  20
334.15143
  0
SEQEND
  0
POLYLINE
  5
108
  8
Layer_0
  62
1
  70
1
  66
1
  10
0
  20
0
  30
0
  0
VERTEX
  5
108
  8
Layer_0
  10
481.32593
  20
297.04443
  0
VERTEX
  5
109
  8
Layer_0
  10
480.94794
  20
297.25543
  0
VERTEX
  5
10a
  8
Layer_0
  10
480.54092
  20
297.39944
  0
VERTEX
  5
10b
  8
Layer_0
  10
480.11392
  20
297.47244
  0
VERTEX
  5
10c
  8
Layer_0
  10
479.89792
  20
297.48145
  0
VERTEX
  5
10d
  8
Layer_0
  10
479.68192
  20
297.47244
  0
VERTEX
  5
10e
  8
Layer_0
  10
479.25491
  20
297.39944
  0
VERTEX
  5
10f
  8
Layer_0
  10
478.84793
  20
297.25543
  0
VERTEX
  5
110
  8
Layer_0
  10
478.46991
  20
297.04443
  0
VERTEX
  5
111
  8
Layer_0
  10
478.13391
  20
296.77243
  0
VERTEX
  5
112
  8
Layer_0
  10
477.84793
  20
296.44742
  0
VERTEX
  5
113
  8
Layer_0
  10
477.62091
  20
296.07944
  0
VERTEX
  5
114
  8
Layer_0
  10
477.45993
  20
295.67844
  0
VERTEX
  5
115
  8
Layer_0
  10
477.36893
  20
295.25543
  0
VERTEX
  5
116
  8
Layer_0
  10
477.34985
  20
294.82343
  0
VERTEX
  5
117
  8
Layer_0
  10
477.40488
  20
294.39444
  0
VERTEX
  5
118
  8
Layer_0
  10
477.53186
  20
293.98044
  0
VERTEX
  5
119
  8
Layer_0
  10
477.72687
  20
293.59442
  0
VERTEX
  5
11a
  8
Layer_0
  10
477.98389
  20
293.24643
  0
VERTEX
  5
11b
  8
Layer_0
  10
478.29587
  20
292.94742
  0
VERTEX
  5
11c
  8
Layer_0
  10
478.65387
  20
292.70544
  0
VERTEX
  5
11d
  8
Layer_0
  10
479.04791
  20
292.52744
  0
VERTEX
  5
11e
  8
Layer_0
  10
479.46692
  20
292.41843
  0
VERTEX
  5
11f
  8
Layer_0
  10
479.89792
  20
292.38144
  0
VERTEX
  5
120
  8
Layer_0
  10
480.32892
  20
292.41843
  0
VERTEX
  5
121
  8
Layer_0
  10
480.74792
  20
292.52744
  0
VERTEX
  5
122
  8
Layer_0
  10
481.14191
  20
292.70544
  0
VERTEX
  5
123
  8
Layer_0
  10
481.49991
  20
292.94745
  0
VERTEX
  5
124
  8
Layer_0
  10
481.81192
  20
293.24643
  0
VERTEX
  5
125
  8
Layer_0
  10
482.06891
  20
293.59442
  0
VERTEX
  5
126
  8
Layer_0
  10
482.26392
  20
293.98044
  0
VERTEX
  5
127
  8
Layer_0
  10
482.39093
  20
294.39444
  0
VERTEX
  5
128
  8
Layer_0
  10
482.44592
  20
294.82343
  0
VERTEX
  5
129
  8
Layer_0
  10
482.42697
  20
295.25543
  0
VERTEX
  5
12a
  8
Layer_0
  10
482.33597
  20
295.67844
  0
VERTEX
  5
12b
  8
Layer_0
  10
482.17496
  20
296.07944
  0
VERTEX
  5
12c
  8
Layer_0
  10
481.94797
  20
296.44745
  0
VERTEX
  5
12d
  8
Layer_0
  10
481.66196
  20
296.77243
  0
VERTEX
  5
12e
  8
Layer_0
  10
481.32593
  20
297.04443
  0
SEQEND
  0
POLYLINE
  5
130
  8
Layer_0
  62
1
  70
1
  66
1
  10
0
  20
0
  30
0
  0
VERTEX
  5
130
  8
Layer_0
  10
479.89792
  20
327.80142
  0
VERTEX
  5
131
  8
Layer_0
  10
479.68192
  20
327.79242
  0
VERTEX
  5
132
  8
Layer_0
  10
479.25491
  20
327.71942
  0
VERTEX
  5
133
  8
Layer_0
  10
478.84793
  20
327.57544
  0
VERTEX
  5
134
  8
Layer_0
  10
478.46991
  20
327.36444
  0
VERTEX
  5
135
  8
Layer_0
  10
478.13391
  20
327.09244
  0
VERTEX
  5
136
  8
Layer_0
  10
477.84793
  20
326.76743
  0
VERTEX
  5
137
  8
Layer_0
  10
477.62091
  20
326.39944
  0
VERTEX
  5
138
  8
Layer_0
  10
477.45993
  20
325.99844
  0
VERTEX
  5
139
  8
Layer_0
  10
477.36893
  20
325.57544
  0
VERTEX
  5
13a
  8
Layer_0
  10
477.34991
  20
325.14343
  0
VERTEX
  5
13b
  8
Layer_0
  10
477.40491
  20
324.71442
  0
VERTEX
  5
13c
  8
Layer_0
  10
477.53192
  20
324.30042
  0
VERTEX
  5
13d
  8
Layer_0
  10
477.72693
  20
323.91443
  0
VERTEX
  5
13e
  8
Layer_0
  10
477.98392
  20
323.56644
  0
VERTEX
  5
13f
  8
Layer_0
  10
478.29593
  20
323.26743
  0
VERTEX
  5
140
  8
Layer_0
  10
478.65393
  20
323.02542
  0
VERTEX
  5
141
  8
Layer_0
  10
479.04791
  20
322.84744
  0
VERTEX
  5
142
  8
Layer_0
  10
479.46692
  20
322.73843
  0
VERTEX
  5
143
  8
Layer_0
  10
479.89792
  20
322.70142
  0
VERTEX
  5
144
  8
Layer_0
  10
480.32892
  20
322.73843
  0
VERTEX
  5
145
  8
Layer_0
  10
480.74792
  20
322.84744
  0
VERTEX
  5
146
  8
Layer_0
  10
481.14191
  20
323.02542
  0
VERTEX
  5
147
  8
Layer_0
  10
481.49991
  20
323.26743
  0
VERTEX
  5
148
  8
Layer_0
  10
481.81192
  20
323.56644
  0
VERTEX
  5
149
  8
Layer_0
  10
482.06891
  20
323.91443
  0
VERTEX
  5
14a
  8
Layer_0
  10
482.26392
  20
324.30045
  0
VERTEX
  5
14b
  8
Layer_0
  10
482.3909
  20
324.71445
  0
VERTEX
  5
14c
  8
Layer_0
  10
482.44592
  20
325.14343
  0
VERTEX
  5
14d
  8
Layer_0
  10
482.42691
  20
325.57544
  0
VERTEX
  5
14e
  8
Layer_0
  10
482.33591
  20
325.99844
  0
VERTEX
  5
14f
  8
Layer_0
  10
482.17493
  20
326.39944
  0
VERTEX
  5
150
  8
Layer_0
  10
481.94791
  20
326.76743
  0
VERTEX
  5
151
  8
Layer_0
  10
481.66193
  20
327.09244
  0
VERTEX
  5
152
  8
Layer_0
  10
481.32593
  20
327.36444
  0
VERTEX
  5
153
  8
Layer_0
  10
480.94791
  20
327.57544
  0
VERTEX
  5
154
  8
Layer_0
  10
480.54089
  20
327.71942
  0
VERTEX
  5
155
  8
Layer_0
  10
480.11389
  20
327.79242
  0
VERTEX
  5
156
  8
Layer_0
  10
479.89792
  20
327.80142
  0
SEQEND
  0
POLYLINE
  5
158
  8
Layer_0
  62
1
  70
1
  66
1
  10
0
  20
0
  30
0
  0
VERTEX
  5
158
  8
Layer_0
  10
415.75763
  20
338.34702
  0
VERTEX
  5
159
  8
Layer_0
  10
415.49203
  20
338.32376
  0
VERTEX
  5
15a
  8
Layer_0
  10
415.2326
  20
338.25504
  0
VERTEX
  5
15b
  8
Layer_0
  10
414.98663
  20
338.14288
  0
VERTEX
  5
15c
  8
Layer_0
  10
414.75977
  20
337.98941
  0
VERTEX
  5
15d
  8
Layer_0
  10
414.55719
  20
337.79871
  0
VERTEX
  5
15e
  8
Layer_0
  10
414.38358
  20
337.57547
  0
VERTEX
  5
15f
  8
Layer_0
  10
414.24457
  20
337.32538
  0
VERTEX
  5
160
  8
Layer_0
  10
414.14276
  20
337.05408
  0
VERTEX
  5
161
  8
Layer_0
  10
414.08023
  20
336.76831
  0
VERTEX
  5
162
  8
Layer_0
  10
414.05957
  20
336.4758
  0
VERTEX
  5
163
  8
Layer_0
  10
414.05957
  20
285.33682
  0
VERTEX
  5
164
  8
Layer_0
  10
414.08023
  20
285.04431
  0
VERTEX
  5
165
  8
Layer_0
  10
414.14276
  20
284.75854
  0
VERTEX
  5
166
  8
Layer_0
  10
414.24457
  20
284.48724
  0
VERTEX
  5
167
  8
Layer_0
  10
414.38358
  20
284.23712
  0
VERTEX
  5
168
  8
Layer_0
  10
414.55719
  20
284.01389
  0
VERTEX
  5
169
  8
Layer_0
  10
414.75977
  20
283.82321
  0
VERTEX
  5
16a
  8
Layer_0
  10
414.98663
  20
283.66974
  0
VERTEX
  5
16b
  8
Layer_0
  10
415.2326
  20
283.55759
  0
VERTEX
  5
16c
  8
Layer_0
  10
415.49203
  20
283.48886
  0
VERTEX
  5
16d
  8
Layer_0
  10
415.75763
  20
283.46561
  0
VERTEX
  5
16e
  8
Layer_0
  10
429.13461
  20
283.46561
  0
VERTEX
  5
16f
  8
Layer_0
  10
429.13461
  20
274.65115
  0
VERTEX
  5
170
  8
Layer_0
  10
431.19131
  20
274.65115
  0
VERTEX
  5
171
  8
Layer_0
  10
431.59198
  20
274.61102
  0
VERTEX
  5
172
  8
Layer_0
  10
431.96472
  20
274.49579
  0
VERTEX
  5
173
  8
Layer_0
  10
432.3017
  20
274.31329
  0
VERTEX
  5
174
  8
Layer_0
  10
432.595
  20
274.07147
  0
VERTEX
  5
175
  8
Layer_0
  10
432.83679
  20
273.77814
  0
VERTEX
  5
176
  8
Layer_0
  10
433.01929
  20
273.44116
  0
VERTEX
  5
177
  8
Layer_0
  10
433.13452
  20
273.06848
  0
VERTEX
  5
178
  8
Layer_0
  10
433.17468
  20
272.66782
  0
VERTEX
  5
179
  8
Layer_0
  10
433.17468
  20
270.46432
  0
VERTEX
  5
17a
  8
Layer_0
  10
433.13452
  20
270.06366
  0
VERTEX
  5
17b
  8
Layer_0
  10
433.01929
  20
269.69098
  0
VERTEX
  5
17c
  8
Layer_0
  10
432.83679
  20
269.354
  0
VERTEX
  5
17d
  8
Layer_0
  10
432.595
  20
269.06067
  0
VERTEX
  5
17e
  8
Layer_0
  10
432.3017
  20
268.81885
  0
VERTEX
  5
17f
  8
Layer_0
  10
431.96472
  20
268.63635
  0
VERTEX
  5
180
  8
Layer_0
  10
431.59198
  20
268.52112
  0
VERTEX
  5
181
  8
Layer_0
  10
431.19131
  20
268.48099
  0
VERTEX
  5
182
  8
Layer_0
  10
429.13461
  20
268.48099
  0
VERTEX
  5
183
  8
Layer_0
  10
429.13461
  20
263.86575
  0
VERTEX
  5
184
  8
Layer_0
  10
429.17941
  20
263.4187
  0
VERTEX
  5
185
  8
Layer_0
  10
429.30798
  20
263.00281
  0
VERTEX
  5
186
  8
Layer_0
  10
429.51154
  20
262.62689
  0
VERTEX
  5
187
  8
Layer_0
  10
429.78131
  20
262.29968
  0
VERTEX
  5
188
  8
Layer_0
  10
430.10852
  20
262.02991
  0
VERTEX
  5
189
  8
Layer_0
  10
430.48444
  20
261.82635
  0
VERTEX
  5
18a
  8
Layer_0
  10
430.90033
  20
261.69778
  0
VERTEX
  5
18b
  8
Layer_0
  10
431.34738
  20
261.65298
  0
VERTEX
  5
18c
  8
Layer_0
  10
448.74838
  20
261.65298
  0
VERTEX
  5
18d
  8
Layer_0
  10
449.19543
  20
261.69778
  0
VERTEX
  5
18e
  8
Layer_0
  10
449.61133
  20
261.82635
  0
VERTEX
  5
18f
  8
Layer_0
  10
449.98724
  20
262.02991
  0
VERTEX
  5
190
  8
Layer_0
  10
450.31448
  20
262.29968
  0
VERTEX
  5
191
  8
Layer_0
  10
450.58426
  20
262.62689
  0
VERTEX
  5
192
  8
Layer_0
  10
450.78784
  20
263.00281
  0
VERTEX
  5
193
  8
Layer_0
  10
450.91638
  20
263.4187
  0
VERTEX
  5
194
  8
Layer_0
  10
450.96118
  20
263.86575
  0
VERTEX
  5
195
  8
Layer_0
  10
450.96118
  20
268.48099
  0
VERTEX
  5
196
  8
Layer_0
  10
448.90445
  20
268.48099
  0
VERTEX
  5
197
  8
Layer_0
  10
448.50378
  20
268.52112
  0
VERTEX
  5
198
  8
Layer_0
  10
448.1311
  20
268.63635
  0
VERTEX
  5
199
  8
Layer_0
  10
447.79413
  20
268.81885
  0
VERTEX
  5
19a
  8
Layer_0
  10
447.50079
  20
269.06067
  0
VERTEX
  5
19b
  8
Layer_0
  10
447.25897
  20
269.354
  0
VERTEX
  5
19c
  8
Layer_0
  10
447.07648
  20
269.69098
  0
VERTEX
  5
19d
  8
Layer_0
  10
446.96124
  20
270.06366
  0
VERTEX
  5
19e
  8
Layer_0
  10
446.92111
  20
270.46432
  0
VERTEX
  5
19f
  8
Layer_0
  10
446.92111
  20
272.66782
  0
VERTEX
  5
1a0
  8
Layer_0
  10
446.96124
  20
273.06848
  0
VERTEX
  5
1a1
  8
Layer_0
  10
447.07648
  20
273.44116
  0
VERTEX
  5
1a2
  8
Layer_0
  10
447.25897
  20
273.77814
  0
VERTEX
  5
1a3
  8
Layer_0
  10
447.50079
  20
274.07147
  0
VERTEX
  5
1a4
  8
Layer_0
  10
447.79413
  20
274.31329
  0
VERTEX
  5
1a5
  8
Layer_0
  10
448.1311
  20
274.49579
  0
VERTEX
  5
1a6
  8
Layer_0
  10
448.50378
  20
274.61102
  0
VERTEX
  5
1a7
  8
Layer_0
  10
448.90445
  20
274.65115
  0
VERTEX
  5
1a8
  8
Layer_0
  10
450.96118
  20
274.65115
  0
VERTEX
  5
1a9
  8
Layer_0
  10
450.96118
  20
283.46561
  0
VERTEX
  5
1aa
  8
Layer_0
  10
484.24286
  20
283.46561
  0
VERTEX
  5
1ab
  8
Layer_0
  10
484.50797
  20
283.48886
  0
VERTEX
  5
1ac
  8
Layer_0
  10
484.7674
  20
283.55759
  0
VERTEX
  5
1ad
  8
Layer_0
  10
485.01337
  20
283.66974
  0
VERTEX
  5
1ae
  8
Layer_0
  10
485.24072
  20
283.82321
  0
VERTEX
  5
1af
  8
Layer_0
  10
485.4433
  20
284.01392
  0
VERTEX
  5
1b0
  8
Layer_0
  10
485.61642
  20
284.23715
  0
VERTEX
  5
1b1
  8
Layer_0
  10
485.75543
  20
284.48724
  0
VERTEX
  5
1b2
  8
Layer_0
  10
485.85724
  20
284.75854
  0
VERTEX
  5
1b3
  8
Layer_0
  10
485.91977
  20
285.04431
  0
VERTEX
  5
1b4
  8
Layer_0
  10
485.94043
  20
285.33682
  0
VERTEX
  5
1b5
  8
Layer_0
  10
485.94043
  20
336.4758
  0
VERTEX
  5
1b6
  8
Layer_0
  10
485.91977
  20
336.76831
  0
VERTEX
  5
1b7
  8
Layer_0
  10
485.85724
  20
337.05408
  0
VERTEX
  5
1b8
  8
Layer_0
  10
485.75543
  20
337.32538
  0
VERTEX
  5
1b9
  8
Layer_0
  10
485.61642
  20
337.57547
  0
VERTEX
  5
1ba
  8
Layer_0
  10
485.4433
  20
337.79871
  0
VERTEX
  5
1bb
  8
Layer_0
  10
485.24072
  20
337.98941
  0
VERTEX
  5
1bc
  8
Layer_0
  10
485.01337
  20
338.14288
  0
VERTEX
  5
1bd
  8
Layer_0
  10
484.7674
  20
338.25504
  0
VERTEX
  5
1be
  8
Layer_0
  10
484.50797
  20
338.32376
  0
VERTEX
  5
1bf
  8
Layer_0
  10
484.24286
  20
338.34702
  0
VERTEX
  5
1c0
  8
Layer_0
  10
415.75763
  20
338.34702
  0
SEQEND
  0
POLYLINE
  5
1c2
  8
Layer_0
  62
1
  70
1
  66
1
  10
0
  20
0
  30
0
  0
VERTEX
  5
1c2
  8
Layer_0
  10
440.04794
  20
274.11633
  0
VERTEX
  5
1c3
  8
Layer_0
  10
439.83194
  20
274.10733
  0
VERTEX
  5
1c4
  8
Layer_0
  10
439.40494
  20
274.03433
  0
VERTEX
  5
1c5
  8
Layer_0
  10
438.99796
  20
273.89032
  0
VERTEX
  5
1c6
  8
Layer_0
  10
438.61996
  20
273.67932
  0
VERTEX
  5
1c7
  8
Layer_0
  10
438.28394
  20
273.40732
  0
VERTEX
  5
1c8
  8
Layer_0
  10
437.99796
  20
273.08234
  0
VERTEX
  5
1c9
  8
Layer_0
  10
437.77094
  20
272.71432
  0
VERTEX
  5
1ca
  8
Layer_0
  10
437.60995
  20
272.31332
  0
VERTEX
  5
1cb
  8
Layer_0
  10
437.51895
  20
271.89032
  0
VERTEX
  5
1cc
  8
Layer_0
  10
437.49994
  20
271.45834
  0
VERTEX
  5
1cd
  8
Layer_0
  10
437.55496
  20
271.02933
  0
VERTEX
  5
1ce
  8
Layer_0
  10
437.68188
  20
270.61533
  0
VERTEX
  5
1cf
  8
Layer_0
  10
437.87689
  20
270.22934
  0
VERTEX
  5
1d0
  8
Layer_0
  10
438.13388
  20
269.88132
  0
VERTEX
  5
1d1
  8
Layer_0
  10
438.44589
  20
269.58234
  0
VERTEX
  5
1d2
  8
Layer_0
  10
438.80389
  20
269.34033
  0
VERTEX
  5
1d3
  8
Layer_0
  10
439.19791
  20
269.16232
  0
VERTEX
  5
1d4
  8
Layer_0
  10
439.61688
  20
269.05334
  0
VERTEX
  5
1d5
  8
Layer_0
  10
440.04788
  20
269.01633
  0
VERTEX
  5
1d6
  8
Layer_0
  10
440.47888
  20
269.05334
  0
VERTEX
  5
1d7
  8
Layer_0
  10
440.89789
  20
269.16232
  0
VERTEX
  5
1d8
  8
Layer_0
  10
441.2919
  20
269.34033
  0
VERTEX
  5
1d9
  8
Layer_0
  10
441.6499
  20
269.58234
  0
VERTEX
  5
1da
  8
Layer_0
  10
441.96188
  20
269.88132
  0
VERTEX
  5
1db
  8
Layer_0
  10
442.2189
  20
270.22934
  0
VERTEX
  5
1dc
  8
Layer_0
  10
442.41388
  20
270.61533
  0
VERTEX
  5
1dd
  8
Layer_0
  10
442.54089
  20
271.02933
  0
VERTEX
  5
1de
  8
Layer_0
  10
442.59589
  20
271.45834
  0
VERTEX
  5
1df
  8
Layer_0
  10
442.5769
  20
271.89032
  0
VERTEX
  5
1e0
  8
Layer_0
  10
442.4859
  20
272.31332
  0
VERTEX
  5
1e1
  8
Layer_0
  10
442.32489
  20
272.71432
  0
VERTEX
  5
1e2
  8
Layer_0
  10
442.0979
  20
273.08234
  0
VERTEX
  5
1e3
  8
Layer_0
  10
441.81189
  20
273.40732
  0
VERTEX
  5
1e4
  8
Layer_0
  10
441.47589
  20
273.67932
  0
VERTEX
  5
1e5
  8
Layer_0
  10
441.0979
  20
273.89032
  0
VERTEX
  5
1e6
  8
Layer_0
  10
440.69089
  20
274.03433
  0
VERTEX
  5
1e7
  8
Layer_0
  10
440.26389
  20
274.10733
  0
VERTEX
  5
1e8
  8
Layer_0
  10
440.04794
  20
274.11633
  0
SEQEND
  0
POLYLINE
  5
1ea
  8
Layer_0
  62
1
  70
1
  66
1
  10
0
  20
0
  30
0
  0
VERTEX
  5
1ea
  8
Layer_0
  10
440.04794
  20
294.11633
  0
VERTEX
  5
1eb
  8
Layer_0
  10
439.83194
  20
294.10733
  0
VERTEX
  5
1ec
  8
Layer_0
  10
439.40494
  20
294.03433
  0
VERTEX
  5
1ed
  8
Layer_0
  10
438.99796
  20
293.89032
  0
VERTEX
  5
1ee
  8
Layer_0
  10
438.61996
  20
293.67932
  0
VERTEX
  5
1ef
  8
Layer_0
  10
438.28394
  20
293.40732
  0
VERTEX
  5
1f0
  8
Layer_0
  10
437.99796
  20
293.08234
  0
VERTEX
  5
1f1
  8
Layer_0
  10
437.77094
  20
292.71432
  0
VERTEX
  5
1f2
  8
Layer_0
  10
437.60995
  20
292.31332
  0
VERTEX
  5
1f3
  8
Layer_0
  10
437.51895
  20
291.89032
  0
VERTEX
  5
1f4
  8
Layer_0
  10
437.49994
  20
291.45834
  0
VERTEX
  5
1f5
  8
Layer_0
  10
437.55496
  20
291.02933
  0
VERTEX
  5
1f6
  8
Layer_0
  10
437.68192
  20
290.61533
  0
VERTEX
  5
1f7
  8
Layer_0
  10
437.87689
  20
290.22934
  0
VERTEX
  5
1f8
  8
Layer_0
  10
438.13391
  20
289.88132
  0
VERTEX
  5
1f9
  8
Layer_0
  10
438.44589
  20
289.58234
  0
VERTEX
  5
1fa
  8
Layer_0
  10
438.80389
  20
289.34033
  0
VERTEX
  5
1fb
  8
Layer_0
  10
439.19791
  20
289.16232
  0
VERTEX
  5
1fc
  8
Layer_0
  10
439.61691
  20
289.05334
  0
VERTEX
  5
1fd
  8
Layer_0
  10
440.04791
  20
289.01633
  0
VERTEX
  5
1fe
  8
Layer_0
  10
440.47891
  20
289.05334
  0
VERTEX
  5
1ff
  8
Layer_0
  10
440.89792
  20
289.16232
  0
VERTEX
  5
200
  8
Layer_0
  10
441.2919
  20
289.34033
  0
VERTEX
  5
201
  8
Layer_0
  10
441.6499
  20
289.58234
  0
VERTEX
  5
202
  8
Layer_0
  10
441.96191
  20
289.88132
  0
VERTEX
  5
203
  8
Layer_0
  10
442.2189
  20
290.22934
  0
VERTEX
  5
204
  8
Layer_0
  10
442.41391
  20
290.61533
  0
VERTEX
  5
205
  8
Layer_0
  10
442.54089
  20
291.02933
  0
VERTEX
  5
206
  8
Layer_0
  10
442.59592
  20
291.45834
  0
VERTEX
  5
207
  8
Layer_0
  10
442.5769
  20
291.89032
  0
VERTEX
  5
208
  8
Layer_0
  10
442.4859
  20
292.31332
  0
VERTEX
  5
209
  8
Layer_0
  10
442.32492
  20
292.71432
  0
VERTEX
  5
20a
  8
Layer_0
  10
442.0979
  20
293.08234
  0
VERTEX
  5
20b
  8
Layer_0
  10
441.81192
  20
293.40732
  0
VERTEX
  5
20c
  8
Layer_0
  10
441.47589
  20
293.67932
  0
VERTEX
  5
20d
  8
Layer_0
  10
441.0979
  20
293.89032
  0
VERTEX
  5
20e
  8
Layer_0
  10
440.69092
  20
294.03433
  0
VERTEX
  5
20f
  8
Layer_0
  10
440.26392
  20
294.10733
  0
VERTEX
  5
210
  8
Layer_0
  10
440.04794
  20
294.11633
  0
SEQEND
  0
ENDSEC
  0
EOF
