  0
SECTION
  2
HEADER
  9
$ACADVER
  1
AC1009
  0
ENDSEC
  0
SECTION
  2
ENTITIES
  0
POLYLINE
  5
90
  8
Layer_0
  62
1
  70
1
  66
1
  10
0
  20
0
  30
0
  0
VERTEX
  5
90
  8
Layer_0
  10
383.44171
  20
330.76852
  0
VERTEX
  5
91
  8
Layer_0
  10
383.42291
  20
330.76553
  0
VERTEX
  5
92
  8
Layer_0
  10
383.33093
  20
330.76654
  0
VERTEX
  5
93
  8
Layer_0
  10
382.28357
  20
330.74005
  0
VERTEX
  5
94
  8
Layer_0
  10
381.25
  20
330.6615
  0
VERTEX
  5
95
  8
Layer_0
  10
380.23145
  20
330.5321
  0
VERTEX
  5
96
  8
Layer_0
  10
379.22913
  20
330.35312
  0
VERTEX
  5
97
  8
Layer_0
  10
378.24438
  20
330.12589
  0
VERTEX
  5
98
  8
Layer_0
  10
377.27856
  20
329.85162
  0
VERTEX
  5
99
  8
Layer_0
  10
376.33289
  20
329.53165
  0
VERTEX
  5
9a
  8
Layer_0
  10
375.40857
  20
329.16724
  0
VERTEX
  5
9b
  8
Layer_0
  10
374.50696
  20
328.75967
  0
VERTEX
  5
9c
  8
Layer_0
  10
373.62939
  20
328.31021
  0
VERTEX
  5
9d
  8
Layer_0
  10
372.7771
  20
327.82013
  0
VERTEX
  5
9e
  8
Layer_0
  10
371.95129
  20
327.29077
  0
VERTEX
  5
9f
  8
Layer_0
  10
371.15332
  20
326.72336
  0
VERTEX
  5
a0
  8
Layer_0
  10
370.38446
  20
326.11914
  0
VERTEX
  5
a1
  8
Layer_0
  10
369.64594
  20
325.47943
  0
VERTEX
  5
a2
  8
Layer_0
  10
368.93909
  20
324.80554
  0
VERTEX
  5
a3
  8
Layer_0
  10
368.2652
  20
324.09869
  0
VERTEX
  5
a4
  8
Layer_0
  10
367.62549
  20
323.3602
  0
VERTEX
  5
a5
  8
Layer_0
  10
367.02124
  20
322.59134
  0
VERTEX
  5
a6
  8
Layer_0
  10
366.45374
  20
321.7934
  0
VERTEX
  5
a7
  8
Layer_0
  10
365.92438
  20
320.96762
  0
VERTEX
  5
a8
  8
Layer_0
  10
365.43433
  20
320.1153
  0
VERTEX
  5
a9
  8
Layer_0
  10
364.98486
  20
319.2377
  0
VERTEX
  5
aa
  8
Layer_0
  10
364.57721
  20
318.33615
  0
VERTEX
  5
ab
  8
Layer_0
  10
364.21277
  20
317.4119
  0
VERTEX
  5
ac
  8
Layer_0
  10
363.89282
  20
316.46619
  0
VERTEX
  5
ad
  8
Layer_0
  10
363.61853
  20
315.50037
  0
VERTEX
  5
ae
  8
Layer_0
  10
363.39124
  20
314.51569
  0
VERTEX
  5
af
  8
Layer_0
  10
363.21216
  20
313.5134
  0
VERTEX
  5
b0
  8
Layer_0
  10
363.08276
  20
312.49481
  0
VERTEX
  5
b1
  8
Layer_0
  10
363.00415
  20
311.46121
  0
VERTEX
  5
b2
  8
Layer_0
  10
362.97766
  20
310.41385
  0
VERTEX
  5
b3
  8
Layer_0
  10
363.00415
  20
309.36646
  0
VERTEX
  5
b4
  8
Layer_0
  10
363.08276
  20
308.33282
  0
VERTEX
  5
b5
  8
Layer_0
  10
363.21216
  20
307.31421
  0
VERTEX
  5
b6
  8
Layer_0
  10
363.39111
  20
306.31189
  0
VERTEX
  5
b7
  8
Layer_0
  10
363.61841
  20
305.32718
  0
VERTEX
  5
b8
  8
Layer_0
  10
363.8927
  20
304.36133
  0
VERTEX
  5
b9
  8
Layer_0
  10
364.21265
  20
303.41562
  0
VERTEX
  5
ba
  8
Layer_0
  10
364.57703
  20
302.49136
  0
VERTEX
  5
bb
  8
Layer_0
  10
364.98462
  20
301.58975
  0
VERTEX
  5
bc
  8
Layer_0
  10
365.43408
  20
300.71216
  0
VERTEX
  5
bd
  8
Layer_0
  10
365.92413
  20
299.85983
  0
VERTEX
  5
be
  8
Layer_0
  10
366.45355
  20
299.03403
  0
VERTEX
  5
bf
  8
Layer_0
  10
367.021
  20
298.23602
  0
VERTEX
  5
c0
  8
Layer_0
  10
367.62524
  20
297.46716
  0
VERTEX
  5
c1
  8
Layer_0
  10
368.26495
  20
296.72864
  0
VERTEX
  5
c2
  8
Layer_0
  10
368.93884
  20
296.02179
  0
VERTEX
  5
c3
  8
Layer_0
  10
369.64569
  20
295.34787
  0
VERTEX
  5
c4
  8
Layer_0
  10
370.38422
  20
294.70816
  0
VERTEX
  5
c5
  8
Layer_0
  10
371.15308
  20
294.10391
  0
VERTEX
  5
c6
  8
Layer_0
  10
371.95111
  20
293.53647
  0
VERTEX
  5
c7
  8
Layer_0
  10
372.77698
  20
293.00708
  0
VERTEX
  5
c8
  8
Layer_0
  10
373.62927
  20
292.51697
  0
VERTEX
  5
c9
  8
Layer_0
  10
374.50684
  20
292.06747
  0
VERTEX
  5
ca
  8
Layer_0
  10
375.40845
  20
291.65991
  0
VERTEX
  5
cb
  8
Layer_0
  10
376.33276
  20
291.2955
  0
VERTEX
  5
cc
  8
Layer_0
  10
377.27844
  20
290.97552
  0
VERTEX
  5
cd
  8
Layer_0
  10
378.24426
  20
290.70126
  0
VERTEX
  5
ce
  8
Layer_0
  10
379.229
  20
290.474
  0
VERTEX
  5
cf
  8
Layer_0
  10
380.23132
  20
290.29501
  0
VERTEX
  5
d0
  8
Layer_0
  10
381.24988
  20
290.16559
  0
VERTEX
  5
d1
  8
Layer_0
  10
382.28357
  20
290.08704
  0
VERTEX
  5
d2
  8
Layer_0
  10
383.33093
  20
290.06055
  0
VERTEX
  5
d3
  8
Layer_0
  10
383.64636
  20
290.06995
  0
VERTEX
  5
d4
  8
Layer_0
  10
383.96167
  20
290.08426
  0
VERTEX
  5
d5
  8
Layer_0
  10
394.177
  20
290.08426
  0
VERTEX
  5
d6
  8
Layer_0
  10
394.49258
  20
290.06995
  0
VERTEX
  5
d7
  8
Layer_0
  10
394.80835
  20
290.06055
  0
VERTEX
  5
d8
  8
Layer_0
  10
395.85571
  20
290.08704
  0
VERTEX
  5
d9
  8
Layer_0
  10
396.88934
  20
290.16562
  0
VERTEX
  5
da
  8
Layer_0
  10
397.90793
  20
290.29507
  0
VERTEX
  5
db
  8
Layer_0
  10
398.91019
  20
290.47409
  0
VERTEX
  5
dc
  8
Layer_0
  10
399.89487
  20
290.70135
  0
VERTEX
  5
dd
  8
Layer_0
  10
400.86072
  20
290.97565
  0
VERTEX
  5
de
  8
Layer_0
  10
401.8064
  20
291.29565
  0
VERTEX
  5
df
  8
Layer_0
  10
402.73065
  20
291.6601
  0
VERTEX
  5
e0
  8
Layer_0
  10
403.6322
  20
292.06772
  0
VERTEX
  5
e1
  8
Layer_0
  10
404.50977
  20
292.51718
  0
VERTEX
  5
e2
  8
Layer_0
  10
405.36209
  20
293.00726
  0
VERTEX
  5
e3
  8
Layer_0
  10
406.18787
  20
293.53668
  0
VERTEX
  5
e4
  8
Layer_0
  10
406.98581
  20
294.10416
  0
VERTEX
  5
e5
  8
Layer_0
  10
407.75467
  20
294.70837
  0
VERTEX
  5
e6
  8
Layer_0
  10
408.49316
  20
295.34808
  0
VERTEX
  5
e7
  8
Layer_0
  10
409.20001
  20
296.022
  0
VERTEX
  5
e8
  8
Layer_0
  10
409.8739
  20
296.72888
  0
VERTEX
  5
e9
  8
Layer_0
  10
410.51361
  20
297.46741
  0
VERTEX
  5
ea
  8
Layer_0
  10
411.11783
  20
298.23627
  0
VERTEX
  5
eb
  8
Layer_0
  10
411.68524
  20
299.03424
  0
VERTEX
  5
ec
  8
Layer_0
  10
412.21463
  20
299.86005
  0
VERTEX
  5
ed
  8
Layer_0
  10
412.70471
  20
300.7124
  0
VERTEX
  5
ee
  8
Layer_0
  10
413.15414
  20
301.58997
  0
VERTEX
  5
ef
  8
Layer_0
  10
413.56174
  20
302.49152
  0
VERTEX
  5
f0
  8
Layer_0
  10
413.92615
  20
303.4158
  0
VERTEX
  5
f1
  8
Layer_0
  10
414.24612
  20
304.36151
  0
VERTEX
  5
f2
  8
Layer_0
  10
414.52036
  20
305.32733
  0
VERTEX
  5
f3
  8
Layer_0
  10
414.74762
  20
306.31201
  0
VERTEX
  5
f4
  8
Layer_0
  10
414.92661
  20
307.3143
  0
VERTEX
  5
f5
  8
Layer_0
  10
415.05603
  20
308.33289
  0
VERTEX
  5
f6
  8
Layer_0
  10
415.13458
  20
309.36649
  0
VERTEX
  5
f7
  8
Layer_0
  10
415.16104
  20
310.41385
  0
VERTEX
  5
f8
  8
Layer_0
  10
415.13452
  20
311.46121
  0
VERTEX
  5
f9
  8
Layer_0
  10
415.05594
  20
312.49481
  0
VERTEX
  5
fa
  8
Layer_0
  10
414.92648
  20
313.51337
  0
VERTEX
  5
fb
  8
Layer_0
  10
414.7475
  20
314.51563
  0
VERTEX
  5
fc
  8
Layer_0
  10
414.52023
  20
315.50031
  0
VERTEX
  5
fd
  8
Layer_0
  10
414.24597
  20
316.46609
  0
VERTEX
  5
fe
  8
Layer_0
  10
413.92599
  20
317.41174
  0
VERTEX
  5
ff
  8
Layer_0
  10
413.56158
  20
318.336
  0
VERTEX
  5
100
  8
Layer_0
  10
413.15402
  20
319.23755
  0
VERTEX
  5
101
  8
Layer_0
  10
412.70453
  20
320.11508
  0
VERTEX
  5
102
  8
Layer_0
  10
412.21445
  20
320.96738
  0
VERTEX
  5
103
  8
Layer_0
  10
411.68506
  20
321.79315
  0
VERTEX
  5
104
  8
Layer_0
  10
411.11765
  20
322.59109
  0
VERTEX
  5
105
  8
Layer_0
  10
410.51343
  20
323.35995
  0
VERTEX
  5
106
  8
Layer_0
  10
409.87372
  20
324.09845
  0
VERTEX
  5
107
  8
Layer_0
  10
409.19983
  20
324.8053
  0
VERTEX
  5
108
  8
Layer_0
  10
408.49298
  20
325.47919
  0
VERTEX
  5
109
  8
Layer_0
  10
407.75449
  20
326.1189
  0
VERTEX
  5
10a
  8
Layer_0
  10
406.98563
  20
326.72311
  0
VERTEX
  5
10b
  8
Layer_0
  10
406.18768
  20
327.29053
  0
VERTEX
  5
10c
  8
Layer_0
  10
405.36191
  20
327.81992
  0
VERTEX
  5
10d
  8
Layer_0
  10
404.50961
  20
328.31
  0
VERTEX
  5
10e
  8
Layer_0
  10
403.63208
  20
328.75949
  0
VERTEX
  5
10f
  8
Layer_0
  10
402.73053
  20
329.16705
  0
VERTEX
  5
110
  8
Layer_0
  10
401.80627
  20
329.53149
  0
VERTEX
  5
111
  8
Layer_0
  10
400.86063
  20
329.8515
  0
VERTEX
  5
112
  8
Layer_0
  10
399.89481
  20
330.12576
  0
VERTEX
  5
113
  8
Layer_0
  10
398.91013
  20
330.35303
  0
VERTEX
  5
114
  8
Layer_0
  10
397.90787
  20
330.53201
  0
VERTEX
  5
115
  8
Layer_0
  10
396.88928
  20
330.66147
  0
VERTEX
  5
116
  8
Layer_0
  10
395.85568
  20
330.74005
  0
VERTEX
  5
117
  8
Layer_0
  10
394.80835
  20
330.76654
  0
VERTEX
  5
118
  8
Layer_0
  10
394.6546
  20
330.76053
  0
VERTEX
  5
119
  8
Layer_0
  10
394.63461
  20
330.76852
  0
VERTEX
  5
11a
  8
Layer_0
  10
383.44171
  20
330.76852
  0
SEQEND
  0
POLYLINE
  5
11c
  8
Layer_0
  62
1
  70
1
  66
1
  10
0
  20
0
  30
0
  0
VERTEX
  5
11c
  8
Layer_0
  10
538.19574
  20
270.14935
  0
VERTEX
  5
11d
  8
Layer_0
  10
538.14612
  20
269.65686
  0
VERTEX
  5
11e
  8
Layer_0
  10
538.00366
  20
269.19815
  0
VERTEX
  5
11f
  8
Layer_0
  10
537.77838
  20
268.78308
  0
VERTEX
  5
120
  8
Layer_0
  10
537.47998
  20
268.42139
  0
VERTEX
  5
121
  8
Layer_0
  10
537.11829
  20
268.12299
  0
VERTEX
  5
122
  8
Layer_0
  10
536.70325
  20
267.89767
  0
VERTEX
  5
123
  8
Layer_0
  10
536.24451
  20
267.75528
  0
VERTEX
  5
124
  8
Layer_0
  10
535.75201
  20
267.70563
  0
VERTEX
  5
125
  8
Layer_0
  10
535.25952
  20
267.75528
  0
VERTEX
  5
126
  8
Layer_0
  10
534.80078
  20
267.89767
  0
VERTEX
  5
127
  8
Layer_0
  10
534.38574
  20
268.12299
  0
VERTEX
  5
128
  8
Layer_0
  10
534.02405
  20
268.42139
  0
VERTEX
  5
129
  8
Layer_0
  10
533.72571
  20
268.78308
  0
VERTEX
  5
12a
  8
Layer_0
  10
533.50037
  20
269.19815
  0
VERTEX
  5
12b
  8
Layer_0
  10
533.35797
  20
269.65686
  0
VERTEX
  5
12c
  8
Layer_0
  10
533.30835
  20
270.14935
  0
VERTEX
  5
12d
  8
Layer_0
  10
533.35797
  20
270.64185
  0
VERTEX
  5
12e
  8
Layer_0
  10
533.50037
  20
271.10056
  0
VERTEX
  5
12f
  8
Layer_0
  10
533.72571
  20
271.51563
  0
VERTEX
  5
130
  8
Layer_0
  10
534.02405
  20
271.87732
  0
VERTEX
  5
131
  8
Layer_0
  10
534.38574
  20
272.17572
  0
VERTEX
  5
132
  8
Layer_0
  10
534.80078
  20
272.40103
  0
VERTEX
  5
133
  8
Layer_0
  10
535.25952
  20
272.54343
  0
VERTEX
  5
134
  8
Layer_0
  10
535.75201
  20
272.59308
  0
VERTEX
  5
135
  8
Layer_0
  10
536.24451
  20
272.54343
  0
VERTEX
  5
136
  8
Layer_0
  10
536.70325
  20
272.40103
  0
VERTEX
  5
137
  8
Layer_0
  10
537.11829
  20
272.17572
  0
VERTEX
  5
138
  8
Layer_0
  10
537.47998
  20
271.87732
  0
VERTEX
  5
139
  8
Layer_0
  10
537.77838
  20
271.51563
  0
VERTEX
  5
13a
  8
Layer_0
  10
538.00366
  20
271.10056
  0
VERTEX
  5
13b
  8
Layer_0
  10
538.14612
  20
270.64185
  0
VERTEX
  5
13c
  8
Layer_0
  10
538.19574
  20
270.14935
  0
SEQEND
  0
POLYLINE
  5
13e
  8
Layer_0
  62
1
  70
1
  66
1
  10
0
  20
0
  30
0
  0
VERTEX
  5
13e
  8
Layer_0
  10
518.22388
  20
270.14935
  0
VERTEX
  5
13f
  8
Layer_0
  10
518.17419
  20
269.65686
  0
VERTEX
  5
140
  8
Layer_0
  10
518.03186
  20
269.19815
  0
VERTEX
  5
141
  8
Layer_0
  10
517.80652
  20
268.78308
  0
VERTEX
  5
142
  8
Layer_0
  10
517.50812
  20
268.42139
  0
VERTEX
  5
143
  8
Layer_0
  10
517.14642
  20
268.12299
  0
VERTEX
  5
144
  8
Layer_0
  10
516.73132
  20
267.89767
  0
VERTEX
  5
145
  8
Layer_0
  10
516.27264
  20
267.75528
  0
VERTEX
  5
146
  8
Layer_0
  10
515.78015
  20
267.70563
  0
VERTEX
  5
147
  8
Layer_0
  10
515.28766
  20
267.75528
  0
VERTEX
  5
148
  8
Layer_0
  10
514.82898
  20
267.89767
  0
VERTEX
  5
149
  8
Layer_0
  10
514.41388
  20
268.12299
  0
VERTEX
  5
14a
  8
Layer_0
  10
514.05219
  20
268.42139
  0
VERTEX
  5
14b
  8
Layer_0
  10
513.75378
  20
268.78308
  0
VERTEX
  5
14c
  8
Layer_0
  10
513.5285
  20
269.19815
  0
VERTEX
  5
14d
  8
Layer_0
  10
513.38611
  20
269.65686
  0
VERTEX
  5
14e
  8
Layer_0
  10
513.33643
  20
270.14935
  0
VERTEX
  5
14f
  8
Layer_0
  10
513.38611
  20
270.64185
  0
VERTEX
  5
150
  8
Layer_0
  10
513.5285
  20
271.10056
  0
VERTEX
  5
151
  8
Layer_0
  10
513.75378
  20
271.51563
  0
VERTEX
  5
152
  8
Layer_0
  10
514.05219
  20
271.87732
  0
VERTEX
  5
153
  8
Layer_0
  10
514.41388
  20
272.17572
  0
VERTEX
  5
154
  8
Layer_0
  10
514.82898
  20
272.40103
  0
VERTEX
  5
155
  8
Layer_0
  10
515.28766
  20
272.54343
  0
VERTEX
  5
156
  8
Layer_0
  10
515.78015
  20
272.59308
  0
VERTEX
  5
157
  8
Layer_0
  10
516.27264
  20
272.54343
  0
VERTEX
  5
158
  8
Layer_0
  10
516.73132
  20
272.40103
  0
VERTEX
  5
159
  8
Layer_0
  10
517.14642
  20
272.17572
  0
VERTEX
  5
15a
  8
Layer_0
  10
517.50812
  20
271.87732
  0
VERTEX
  5
15b
  8
Layer_0
  10
517.80652
  20
271.51563
  0
VERTEX
  5
15c
  8
Layer_0
  10
518.03186
  20
271.10056
  0
VERTEX
  5
15d
  8
Layer_0
  10
518.17419
  20
270.64185
  0
VERTEX
  5
15e
  8
Layer_0
  10
518.22388
  20
270.14935
  0
SEQEND
  0
POLYLINE
  5
160
  8
Layer_0
  62
1
  70
1
  66
1
  10
0
  20
0
  30
0
  0
VERTEX
  5
160
  8
Layer_0
  10
410.01187
  20
289.58008
  0
VERTEX
  5
161
  8
Layer_0
  10
409.51935
  20
289.53043
  0
VERTEX
  5
162
  8
Layer_0
  10
409.06061
  20
289.38803
  0
VERTEX
  5
163
  8
Layer_0
  10
408.64551
  20
289.16272
  0
VERTEX
  5
164
  8
Layer_0
  10
408.28381
  20
288.86432
  0
VERTEX
  5
165
  8
Layer_0
  10
407.98541
  20
288.50262
  0
VERTEX
  5
166
  8
Layer_0
  10
407.7601
  20
288.08752
  0
VERTEX
  5
167
  8
Layer_0
  10
407.61771
  20
287.62878
  0
VERTEX
  5
168
  8
Layer_0
  10
407.56808
  20
287.13629
  0
VERTEX
  5
169
  8
Layer_0
  10
407.61771
  20
286.6438
  0
VERTEX
  5
16a
  8
Layer_0
  10
407.7601
  20
286.18506
  0
VERTEX
  5
16b
  8
Layer_0
  10
407.98541
  20
285.76996
  0
VERTEX
  5
16c
  8
Layer_0
  10
408.28381
  20
285.40826
  0
VERTEX
  5
16d
  8
Layer_0
  10
408.64551
  20
285.10986
  0
VERTEX
  5
16e
  8
Layer_0
  10
409.06061
  20
284.88455
  0
VERTEX
  5
16f
  8
Layer_0
  10
409.51935
  20
284.74216
  0
VERTEX
  5
170
  8
Layer_0
  10
410.01187
  20
284.6925
  0
VERTEX
  5
171
  8
Layer_0
  10
410.14828
  20
284.69662
  0
VERTEX
  5
172
  8
Layer_0
  10
414.63226
  20
284.69662
  0
VERTEX
  5
173
  8
Layer_0
  10
414.70325
  20
284.69354
  0
VERTEX
  5
174
  8
Layer_0
  10
414.77435
  20
284.6925
  0
VERTEX
  5
175
  8
Layer_0
  10
414.91077
  20
284.69662
  0
VERTEX
  5
176
  8
Layer_0
  10
415.10199
  20
284.69662
  0
VERTEX
  5
177
  8
Layer_0
  10
415.10199
  20
284.71469
  0
VERTEX
  5
178
  8
Layer_0
  10
415.54086
  20
284.81564
  0
VERTEX
  5
179
  8
Layer_0
  10
415.94391
  20
284.99023
  0
VERTEX
  5
17a
  8
Layer_0
  10
416.30414
  20
285.23047
  0
VERTEX
  5
17b
  8
Layer_0
  10
416.61453
  20
285.52832
  0
VERTEX
  5
17c
  8
Layer_0
  10
416.8681
  20
285.87585
  0
VERTEX
  5
17d
  8
Layer_0
  10
417.05792
  20
286.26498
  0
VERTEX
  5
17e
  8
Layer_0
  10
417.17694
  20
286.68781
  0
VERTEX
  5
17f
  8
Layer_0
  10
417.21814
  20
287.13626
  0
VERTEX
  5
180
  8
Layer_0
  10
417.17694
  20
287.58472
  0
VERTEX
  5
181
  8
Layer_0
  10
417.05792
  20
288.00751
  0
VERTEX
  5
182
  8
Layer_0
  10
416.8681
  20
288.39667
  0
VERTEX
  5
183
  8
Layer_0
  10
416.61453
  20
288.74417
  0
VERTEX
  5
184
  8
Layer_0
  10
416.30414
  20
289.04205
  0
VERTEX
  5
185
  8
Layer_0
  10
415.94391
  20
289.28229
  0
VERTEX
  5
186
  8
Layer_0
  10
415.54086
  20
289.45685
  0
VERTEX
  5
187
  8
Layer_0
  10
415.10199
  20
289.5578
  0
VERTEX
  5
188
  8
Layer_0
  10
415.10199
  20
289.5759
  0
VERTEX
  5
189
  8
Layer_0
  10
414.91699
  20
289.5759
  0
VERTEX
  5
18a
  8
Layer_0
  10
414.84573
  20
289.57898
  0
VERTEX
  5
18b
  8
Layer_0
  10
414.77435
  20
289.58002
  0
VERTEX
  5
18c
  8
Layer_0
  10
414.63794
  20
289.5759
  0
VERTEX
  5
18d
  8
Layer_0
  10
410.15451
  20
289.5759
  0
VERTEX
  5
18e
  8
Layer_0
  10
410.01187
  20
289.58008
  0
SEQEND
  0
POLYLINE
  5
190
  8
Layer_0
  62
1
  70
1
  66
1
  10
0
  20
0
  30
0
  0
VERTEX
  5
190
  8
Layer_0
  10
363.18176
  20
289.58008
  0
VERTEX
  5
191
  8
Layer_0
  10
362.68933
  20
289.53043
  0
VERTEX
  5
192
  8
Layer_0
  10
362.23059
  20
289.38803
  0
VERTEX
  5
193
  8
Layer_0
  10
361.81543
  20
289.16272
  0
VERTEX
  5
194
  8
Layer_0
  10
361.45374
  20
288.86432
  0
VERTEX
  5
195
  8
Layer_0
  10
361.15533
  20
288.50262
  0
VERTEX
  5
196
  8
Layer_0
  10
360.93005
  20
288.08752
  0
VERTEX
  5
197
  8
Layer_0
  10
360.78766
  20
287.62878
  0
VERTEX
  5
198
  8
Layer_0
  10
360.73804
  20
287.13629
  0
VERTEX
  5
199
  8
Layer_0
  10
360.78766
  20
286.6438
  0
VERTEX
  5
19a
  8
Layer_0
  10
360.93005
  20
286.18506
  0
VERTEX
  5
19b
  8
Layer_0
  10
361.15533
  20
285.76996
  0
VERTEX
  5
19c
  8
Layer_0
  10
361.45374
  20
285.40826
  0
VERTEX
  5
19d
  8
Layer_0
  10
361.81543
  20
285.10986
  0
VERTEX
  5
19e
  8
Layer_0
  10
362.23059
  20
284.88455
  0
VERTEX
  5
19f
  8
Layer_0
  10
362.68933
  20
284.74216
  0
VERTEX
  5
1a0
  8
Layer_0
  10
363.18176
  20
284.6925
  0
VERTEX
  5
1a1
  8
Layer_0
  10
363.31818
  20
284.69662
  0
VERTEX
  5
1a2
  8
Layer_0
  10
367.80212
  20
284.69662
  0
VERTEX
  5
1a3
  8
Layer_0
  10
367.87317
  20
284.69354
  0
VERTEX
  5
1a4
  8
Layer_0
  10
367.94427
  20
284.6925
  0
VERTEX
  5
1a5
  8
Layer_0
  10
368.08069
  20
284.69662
  0
VERTEX
  5
1a6
  8
Layer_0
  10
368.27191
  20
284.69662
  0
VERTEX
  5
1a7
  8
Layer_0
  10
368.27191
  20
284.71472
  0
VERTEX
  5
1a8
  8
Layer_0
  10
368.71082
  20
284.81567
  0
VERTEX
  5
1a9
  8
Layer_0
  10
369.11389
  20
284.99023
  0
VERTEX
  5
1aa
  8
Layer_0
  10
369.47412
  20
285.23047
  0
VERTEX
  5
1ab
  8
Layer_0
  10
369.78442
  20
285.52835
  0
VERTEX
  5
1ac
  8
Layer_0
  10
370.03809
  20
285.87585
  0
VERTEX
  5
1ad
  8
Layer_0
  10
370.22784
  20
286.26501
  0
VERTEX
  5
1ae
  8
Layer_0
  10
370.3468
  20
286.68781
  0
VERTEX
  5
1af
  8
Layer_0
  10
370.38806
  20
287.13626
  0
VERTEX
  5
1b0
  8
Layer_0
  10
370.3468
  20
287.58472
  0
VERTEX
  5
1b1
  8
Layer_0
  10
370.22784
  20
288.00754
  0
VERTEX
  5
1b2
  8
Layer_0
  10
370.03809
  20
288.39667
  0
VERTEX
  5
1b3
  8
Layer_0
  10
369.78442
  20
288.7442
  0
VERTEX
  5
1b4
  8
Layer_0
  10
369.47412
  20
289.04205
  0
VERTEX
  5
1b5
  8
Layer_0
  10
369.11389
  20
289.28229
  0
VERTEX
  5
1b6
  8
Layer_0
  10
368.71082
  20
289.45688
  0
VERTEX
  5
1b7
  8
Layer_0
  10
368.27191
  20
289.55783
  0
VERTEX
  5
1b8
  8
Layer_0
  10
368.27191
  20
289.57593
  0
VERTEX
  5
1b9
  8
Layer_0
  10
368.08691
  20
289.57593
  0
VERTEX
  5
1ba
  8
Layer_0
  10
368.01563
  20
289.57901
  0
VERTEX
  5
1bb
  8
Layer_0
  10
367.94427
  20
289.58002
  0
VERTEX
  5
1bc
  8
Layer_0
  10
367.80786
  20
289.57593
  0
VERTEX
  5
1bd
  8
Layer_0
  10
363.3244
  20
289.57593
  0
VERTEX
  5
1be
  8
Layer_0
  10
363.25311
  20
289.57901
  0
VERTEX
  5
1bf
  8
Layer_0
  10
363.18176
  20
289.58008
  0
SEQEND
  0
POLYLINE
  5
1c1
  8
Layer_0
  62
1
  70
1
  66
1
  10
0
  20
0
  30
0
  0
VERTEX
  5
1c1
  8
Layer_0
  10
410.01184
  20
336.47095
  0
VERTEX
  5
1c2
  8
Layer_0
  10
409.51935
  20
336.4213
  0
VERTEX
  5
1c3
  8
Layer_0
  10
409.06061
  20
336.2789
  0
VERTEX
  5
1c4
  8
Layer_0
  10
408.64551
  20
336.05359
  0
VERTEX
  5
1c5
  8
Layer_0
  10
408.28381
  20
335.75519
  0
VERTEX
  5
1c6
  8
Layer_0
  10
407.98541
  20
335.39349
  0
VERTEX
  5
1c7
  8
Layer_0
  10
407.7601
  20
334.97839
  0
VERTEX
  5
1c8
  8
Layer_0
  10
407.61771
  20
334.51965
  0
VERTEX
  5
1c9
  8
Layer_0
  10
407.56808
  20
334.02716
  0
VERTEX
  5
1ca
  8
Layer_0
  10
407.61771
  20
333.53467
  0
VERTEX
  5
1cb
  8
Layer_0
  10
407.7601
  20
333.07593
  0
VERTEX
  5
1cc
  8
Layer_0
  10
407.98541
  20
332.66083
  0
VERTEX
  5
1cd
  8
Layer_0
  10
408.28381
  20
332.29913
  0
VERTEX
  5
1ce
  8
Layer_0
  10
408.64551
  20
332.00073
  0
VERTEX
  5
1cf
  8
Layer_0
  10
409.06061
  20
331.77542
  0
VERTEX
  5
1d0
  8
Layer_0
  10
409.51935
  20
331.63303
  0
VERTEX
  5
1d1
  8
Layer_0
  10
410.01184
  20
331.58337
  0
VERTEX
  5
1d2
  8
Layer_0
  10
410.14828
  20
331.58749
  0
VERTEX
  5
1d3
  8
Layer_0
  10
414.63226
  20
331.58749
  0
VERTEX
  5
1d4
  8
Layer_0
  10
414.70325
  20
331.58441
  0
VERTEX
  5
1d5
  8
Layer_0
  10
414.77435
  20
331.58337
  0
VERTEX
  5
1d6
  8
Layer_0
  10
414.91077
  20
331.58749
  0
VERTEX
  5
1d7
  8
Layer_0
  10
415.10199
  20
331.58749
  0
VERTEX
  5
1d8
  8
Layer_0
  10
415.10199
  20
331.60556
  0
VERTEX
  5
1d9
  8
Layer_0
  10
415.54086
  20
331.70651
  0
VERTEX
  5
1da
  8
Layer_0
  10
415.94391
  20
331.8811
  0
VERTEX
  5
1db
  8
Layer_0
  10
416.30414
  20
332.12134
  0
VERTEX
  5
1dc
  8
Layer_0
  10
416.61453
  20
332.41919
  0
VERTEX
  5
1dd
  8
Layer_0
  10
416.8681
  20
332.76672
  0
VERTEX
  5
1de
  8
Layer_0
  10
417.05792
  20
333.15585
  0
VERTEX
  5
1df
  8
Layer_0
  10
417.17694
  20
333.57867
  0
VERTEX
  5
1e0
  8
Layer_0
  10
417.21814
  20
334.02713
  0
VERTEX
  5
1e1
  8
Layer_0
  10
417.17694
  20
334.47559
  0
VERTEX
  5
1e2
  8
Layer_0
  10
417.05792
  20
334.89838
  0
VERTEX
  5
1e3
  8
Layer_0
  10
416.8681
  20
335.28754
  0
VERTEX
  5
1e4
  8
Layer_0
  10
416.61453
  20
335.63504
  0
VERTEX
  5
1e5
  8
Layer_0
  10
416.30414
  20
335.93292
  0
VERTEX
  5
1e6
  8
Layer_0
  10
415.94391
  20
336.17316
  0
VERTEX
  5
1e7
  8
Layer_0
  10
415.54086
  20
336.34772
  0
VERTEX
  5
1e8
  8
Layer_0
  10
415.10199
  20
336.44867
  0
VERTEX
  5
1e9
  8
Layer_0
  10
415.10199
  20
336.46677
  0
VERTEX
  5
1ea
  8
Layer_0
  10
414.91699
  20
336.46677
  0
VERTEX
  5
1eb
  8
Layer_0
  10
414.84573
  20
336.46985
  0
VERTEX
  5
1ec
  8
Layer_0
  10
414.77435
  20
336.47089
  0
VERTEX
  5
1ed
  8
Layer_0
  10
414.63794
  20
336.46677
  0
VERTEX
  5
1ee
  8
Layer_0
  10
410.15451
  20
336.46677
  0
VERTEX
  5
1ef
  8
Layer_0
  10
410.01184
  20
336.47095
  0
SEQEND
  0
POLYLINE
  5
1f1
  8
Layer_0
  62
1
  70
1
  66
1
  10
0
  20
0
  30
0
  0
VERTEX
  5
1f1
  8
Layer_0
  10
363.18176
  20
336.47095
  0
VERTEX
  5
1f2
  8
Layer_0
  10
362.68933
  20
336.4213
  0
VERTEX
  5
1f3
  8
Layer_0
  10
362.23059
  20
336.2789
  0
VERTEX
  5
1f4
  8
Layer_0
  10
361.81543
  20
336.05359
  0
VERTEX
  5
1f5
  8
Layer_0
  10
361.45374
  20
335.75519
  0
VERTEX
  5
1f6
  8
Layer_0
  10
361.15533
  20
335.39349
  0
VERTEX
  5
1f7
  8
Layer_0
  10
360.93005
  20
334.97839
  0
VERTEX
  5
1f8
  8
Layer_0
  10
360.78766
  20
334.51965
  0
VERTEX
  5
1f9
  8
Layer_0
  10
360.73804
  20
334.02716
  0
VERTEX
  5
1fa
  8
Layer_0
  10
360.78766
  20
333.53467
  0
VERTEX
  5
1fb
  8
Layer_0
  10
360.93005
  20
333.07593
  0
VERTEX
  5
1fc
  8
Layer_0
  10
361.15533
  20
332.66083
  0
VERTEX
  5
1fd
  8
Layer_0
  10
361.45374
  20
332.29913
  0
VERTEX
  5
1fe
  8
Layer_0
  10
361.81543
  20
332.00073
  0
VERTEX
  5
1ff
  8
Layer_0
  10
362.23059
  20
331.77542
  0
VERTEX
  5
200
  8
Layer_0
  10
362.68933
  20
331.63303
  0
VERTEX
  5
201
  8
Layer_0
  10
363.18176
  20
331.58337
  0
VERTEX
  5
202
  8
Layer_0
  10
363.31818
  20
331.58749
  0
VERTEX
  5
203
  8
Layer_0
  10
367.80212
  20
331.58749
  0
VERTEX
  5
204
  8
Layer_0
  10
367.87317
  20
331.58441
  0
VERTEX
  5
205
  8
Layer_0
  10
367.94427
  20
331.58337
  0
VERTEX
  5
206
  8
Layer_0
  10
368.08069
  20
331.58749
  0
VERTEX
  5
207
  8
Layer_0
  10
368.27191
  20
331.58749
  0
VERTEX
  5
208
  8
Layer_0
  10
368.27191
  20
331.60559
  0
VERTEX
  5
209
  8
Layer_0
  10
368.71082
  20
331.70654
  0
VERTEX
  5
20a
  8
Layer_0
  10
369.11389
  20
331.88116
  0
VERTEX
  5
20b
  8
Layer_0
  10
369.47412
  20
332.1214
  0
VERTEX
  5
20c
  8
Layer_0
  10
369.78442
  20
332.41925
  0
VERTEX
  5
20d
  8
Layer_0
  10
370.03809
  20
332.76672
  0
VERTEX
  5
20e
  8
Layer_0
  10
370.22784
  20
333.15588
  0
VERTEX
  5
20f
  8
Layer_0
  10
370.3468
  20
333.57867
  0
VERTEX
  5
210
  8
Layer_0
  10
370.38806
  20
334.02716
  0
VERTEX
  5
211
  8
Layer_0
  10
370.3468
  20
334.47559
  0
VERTEX
  5
212
  8
Layer_0
  10
370.22784
  20
334.89841
  0
VERTEX
  5
213
  8
Layer_0
  10
370.03809
  20
335.28754
  0
VERTEX
  5
214
  8
Layer_0
  10
369.78442
  20
335.63507
  0
VERTEX
  5
215
  8
Layer_0
  10
369.47412
  20
335.93292
  0
VERTEX
  5
216
  8
Layer_0
  10
369.11389
  20
336.17316
  0
VERTEX
  5
217
  8
Layer_0
  10
368.71082
  20
336.34775
  0
VERTEX
  5
218
  8
Layer_0
  10
368.27191
  20
336.4487
  0
VERTEX
  5
219
  8
Layer_0
  10
368.27191
  20
336.4668
  0
VERTEX
  5
21a
  8
Layer_0
  10
368.08691
  20
336.4668
  0
VERTEX
  5
21b
  8
Layer_0
  10
368.01563
  20
336.46991
  0
VERTEX
  5
21c
  8
Layer_0
  10
367.94427
  20
336.47092
  0
VERTEX
  5
21d
  8
Layer_0
  10
367.80786
  20
336.4668
  0
VERTEX
  5
21e
  8
Layer_0
  10
363.3244
  20
336.4668
  0
VERTEX
  5
21f
  8
Layer_0
  10
363.25311
  20
336.46991
  0
VERTEX
  5
220
  8
Layer_0
  10
363.18176
  20
336.47095
  0
SEQEND
  0
POLYLINE
  5
222
  8
Layer_0
  62
1
  70
1
  66
1
  10
0
  20
0
  30
0
  0
VERTEX
  5
222
  8
Layer_0
  10
405.90356
  20
270.14935
  0
VERTEX
  5
223
  8
Layer_0
  10
405.85391
  20
269.65686
  0
VERTEX
  5
224
  8
Layer_0
  10
405.71152
  20
269.19815
  0
VERTEX
  5
225
  8
Layer_0
  10
405.48621
  20
268.78308
  0
VERTEX
  5
226
  8
Layer_0
  10
405.18781
  20
268.42139
  0
VERTEX
  5
227
  8
Layer_0
  10
404.82611
  20
268.12299
  0
VERTEX
  5
228
  8
Layer_0
  10
404.41104
  20
267.89767
  0
VERTEX
  5
229
  8
Layer_0
  10
403.95233
  20
267.75528
  0
VERTEX
  5
22a
  8
Layer_0
  10
403.45984
  20
267.70563
  0
VERTEX
  5
22b
  8
Layer_0
  10
402.96735
  20
267.75528
  0
VERTEX
  5
22c
  8
Layer_0
  10
402.50864
  20
267.89767
  0
VERTEX
  5
22d
  8
Layer_0
  10
402.09357
  20
268.12299
  0
VERTEX
  5
22e
  8
Layer_0
  10
401.73187
  20
268.42139
  0
VERTEX
  5
22f
  8
Layer_0
  10
401.43347
  20
268.78308
  0
VERTEX
  5
230
  8
Layer_0
  10
401.20816
  20
269.19815
  0
VERTEX
  5
231
  8
Layer_0
  10
401.06577
  20
269.65686
  0
VERTEX
  5
232
  8
Layer_0
  10
401.01611
  20
270.14935
  0
VERTEX
  5
233
  8
Layer_0
  10
401.06577
  20
270.64185
  0
VERTEX
  5
234
  8
Layer_0
  10
401.20816
  20
271.10056
  0
VERTEX
  5
235
  8
Layer_0
  10
401.43347
  20
271.51563
  0
VERTEX
  5
236
  8
Layer_0
  10
401.73187
  20
271.87732
  0
VERTEX
  5
237
  8
Layer_0
  10
402.09357
  20
272.17572
  0
VERTEX
  5
238
  8
Layer_0
  10
402.50864
  20
272.40103
  0
VERTEX
  5
239
  8
Layer_0
  10
402.96735
  20
272.54343
  0
VERTEX
  5
23a
  8
Layer_0
  10
403.45984
  20
272.59308
  0
VERTEX
  5
23b
  8
Layer_0
  10
403.95233
  20
272.54343
  0
VERTEX
  5
23c
  8
Layer_0
  10
404.41104
  20
272.40103
  0
VERTEX
  5
23d
  8
Layer_0
  10
404.82611
  20
272.17572
  0
VERTEX
  5
23e
  8
Layer_0
  10
405.18781
  20
271.87732
  0
VERTEX
  5
23f
  8
Layer_0
  10
405.48621
  20
271.51563
  0
VERTEX
  5
240
  8
Layer_0
  10
405.71152
  20
271.10056
  0
VERTEX
  5
241
  8
Layer_0
  10
405.85391
  20
270.64185
  0
VERTEX
  5
242
  8
Layer_0
  10
405.90356
  20
270.14935
  0
SEQEND
  0
POLYLINE
  5
244
  8
Layer_0
  62
1
  70
1
  66
1
  10
0
  20
0
  30
0
  0
VERTEX
  5
244
  8
Layer_0
  10
385.9317
  20
270.14935
  0
VERTEX
  5
245
  8
Layer_0
  10
385.88202
  20
269.65686
  0
VERTEX
  5
246
  8
Layer_0
  10
385.73962
  20
269.19815
  0
VERTEX
  5
247
  8
Layer_0
  10
385.51434
  20
268.78308
  0
VERTEX
  5
248
  8
Layer_0
  10
385.21594
  20
268.42139
  0
VERTEX
  5
249
  8
Layer_0
  10
384.85431
  20
268.12299
  0
VERTEX
  5
24a
  8
Layer_0
  10
384.43921
  20
267.89767
  0
VERTEX
  5
24b
  8
Layer_0
  10
383.98047
  20
267.75528
  0
VERTEX
  5
24c
  8
Layer_0
  10
383.48798
  20
267.70563
  0
VERTEX
  5
24d
  8
Layer_0
  10
382.99548
  20
267.75528
  0
VERTEX
  5
24e
  8
Layer_0
  10
382.53674
  20
267.89767
  0
VERTEX
  5
24f
  8
Layer_0
  10
382.1217
  20
268.12299
  0
VERTEX
  5
250
  8
Layer_0
  10
381.76001
  20
268.42139
  0
VERTEX
  5
251
  8
Layer_0
  10
381.46161
  20
268.78308
  0
VERTEX
  5
252
  8
Layer_0
  10
381.23633
  20
269.19815
  0
VERTEX
  5
253
  8
Layer_0
  10
381.09393
  20
269.65686
  0
VERTEX
  5
254
  8
Layer_0
  10
381.04425
  20
270.14935
  0
VERTEX
  5
255
  8
Layer_0
  10
381.09393
  20
270.64185
  0
VERTEX
  5
256
  8
Layer_0
  10
381.23633
  20
271.10056
  0
VERTEX
  5
257
  8
Layer_0
  10
381.46161
  20
271.51563
  0
VERTEX
  5
258
  8
Layer_0
  10
381.76001
  20
271.87732
  0
VERTEX
  5
259
  8
Layer_0
  10
382.1217
  20
272.17572
  0
VERTEX
  5
25a
  8
Layer_0
  10
382.53674
  20
272.40103
  0
VERTEX
  5
25b
  8
Layer_0
  10
382.99548
  20
272.54343
  0
VERTEX
  5
25c
  8
Layer_0
  10
383.48798
  20
272.59308
  0
VERTEX
  5
25d
  8
Layer_0
  10
383.98047
  20
272.54343
  0
VERTEX
  5
25e
  8
Layer_0
  10
384.43921
  20
272.40103
  0
VERTEX
  5
25f
  8
Layer_0
  10
384.85431
  20
272.17572
  0
VERTEX
  5
260
  8
Layer_0
  10
385.21594
  20
271.87732
  0
VERTEX
  5
261
  8
Layer_0
  10
385.51434
  20
271.51563
  0
VERTEX
  5
262
  8
Layer_0
  10
385.73962
  20
271.10056
  0
VERTEX
  5
263
  8
Layer_0
  10
385.88202
  20
270.64185
  0
VERTEX
  5
264
  8
Layer_0
  10
385.9317
  20
270.14935
  0
SEQEND
  0
POLYLINE
  5
266
  8
Layer_0
  62
1
  70
1
  66
1
  10
0
  20
0
  30
0
  0
VERTEX
  5
266
  8
Layer_0
  10
491.18073
  20
307.32745
  0
VERTEX
  5
267
  8
Layer_0
  10
491.15094
  20
307.03192
  0
VERTEX
  5
268
  8
Layer_0
  10
491.06549
  20
306.75671
  0
VERTEX
  5
269
  8
Layer_0
  10
490.9303
  20
306.50766
  0
VERTEX
  5
26a
  8
Layer_0
  10
490.75128
  20
306.29065
  0
VERTEX
  5
26b
  8
Layer_0
  10
490.53427
  20
306.11163
  0
VERTEX
  5
26c
  8
Layer_0
  10
490.28522
  20
305.97644
  0
VERTEX
  5
26d
  8
Layer_0
  10
490.01001
  20
305.89099
  0
VERTEX
  5
26e
  8
Layer_0
  10
489.71448
  20
305.86121
  0
VERTEX
  5
26f
  8
Layer_0
  10
489.41898
  20
305.89099
  0
VERTEX
  5
270
  8
Layer_0
  10
489.14377
  20
305.97644
  0
VERTEX
  5
271
  8
Layer_0
  10
488.89471
  20
306.11163
  0
VERTEX
  5
272
  8
Layer_0
  10
488.6777
  20
306.29065
  0
VERTEX
  5
273
  8
Layer_0
  10
488.49869
  20
306.50766
  0
VERTEX
  5
274
  8
Layer_0
  10
488.36349
  20
306.75671
  0
VERTEX
  5
275
  8
Layer_0
  10
488.27808
  20
307.03192
  0
VERTEX
  5
276
  8
Layer_0
  10
488.24826
  20
307.32745
  0
VERTEX
  5
277
  8
Layer_0
  10
488.27808
  20
307.62296
  0
VERTEX
  5
278
  8
Layer_0
  10
488.36349
  20
307.89816
  0
VERTEX
  5
279
  8
Layer_0
  10
488.49869
  20
308.14722
  0
VERTEX
  5
27a
  8
Layer_0
  10
488.6777
  20
308.36423
  0
VERTEX
  5
27b
  8
Layer_0
  10
488.89471
  20
308.54324
  0
VERTEX
  5
27c
  8
Layer_0
  10
489.14377
  20
308.67844
  0
VERTEX
  5
27d
  8
Layer_0
  10
489.41898
  20
308.76385
  0
VERTEX
  5
27e
  8
Layer_0
  10
489.71448
  20
308.79367
  0
VERTEX
  5
27f
  8
Layer_0
  10
490.01001
  20
308.76385
  0
VERTEX
  5
280
  8
Layer_0
  10
490.28522
  20
308.67844
  0
VERTEX
  5
281
  8
Layer_0
  10
490.53427
  20
308.54324
  0
VERTEX
  5
282
  8
Layer_0
  10
490.75128
  20
308.36423
  0
VERTEX
  5
283
  8
Layer_0
  10
490.9303
  20
308.14722
  0
VERTEX
  5
284
  8
Layer_0
  10
491.06549
  20
307.89816
  0
VERTEX
  5
285
  8
Layer_0
  10
491.15094
  20
307.62296
  0
VERTEX
  5
286
  8
Layer_0
  10
491.18073
  20
307.32745
  0
SEQEND
  0
POLYLINE
  5
288
  8
Layer_0
  62
1
  70
1
  66
1
  10
0
  20
0
  30
0
  0
VERTEX
  5
288
  8
Layer_0
  10
470.01398
  20
307.32745
  0
VERTEX
  5
289
  8
Layer_0
  10
469.98419
  20
307.03192
  0
VERTEX
  5
28a
  8
Layer_0
  10
469.89874
  20
306.75671
  0
VERTEX
  5
28b
  8
Layer_0
  10
469.76355
  20
306.50766
  0
VERTEX
  5
28c
  8
Layer_0
  10
469.58453
  20
306.29065
  0
VERTEX
  5
28d
  8
Layer_0
  10
469.36752
  20
306.11163
  0
VERTEX
  5
28e
  8
Layer_0
  10
469.11847
  20
305.97644
  0
VERTEX
  5
28f
  8
Layer_0
  10
468.84326
  20
305.89099
  0
VERTEX
  5
290
  8
Layer_0
  10
468.54773
  20
305.86121
  0
VERTEX
  5
291
  8
Layer_0
  10
468.25223
  20
305.89099
  0
VERTEX
  5
292
  8
Layer_0
  10
467.97702
  20
305.97644
  0
VERTEX
  5
293
  8
Layer_0
  10
467.72797
  20
306.11163
  0
VERTEX
  5
294
  8
Layer_0
  10
467.51096
  20
306.29065
  0
VERTEX
  5
295
  8
Layer_0
  10
467.33194
  20
306.50766
  0
VERTEX
  5
296
  8
Layer_0
  10
467.19675
  20
306.75671
  0
VERTEX
  5
297
  8
Layer_0
  10
467.11133
  20
307.03192
  0
VERTEX
  5
298
  8
Layer_0
  10
467.08151
  20
307.32745
  0
VERTEX
  5
299
  8
Layer_0
  10
467.11133
  20
307.62296
  0
VERTEX
  5
29a
  8
Layer_0
  10
467.19675
  20
307.89816
  0
VERTEX
  5
29b
  8
Layer_0
  10
467.33194
  20
308.14722
  0
VERTEX
  5
29c
  8
Layer_0
  10
467.51096
  20
308.36423
  0
VERTEX
  5
29d
  8
Layer_0
  10
467.72797
  20
308.54324
  0
VERTEX
  5
29e
  8
Layer_0
  10
467.97702
  20
308.67844
  0
VERTEX
  5
29f
  8
Layer_0
  10
468.25223
  20
308.76385
  0
VERTEX
  5
2a0
  8
Layer_0
  10
468.54773
  20
308.79367
  0
VERTEX
  5
2a1
  8
Layer_0
  10
468.84326
  20
308.76385
  0
VERTEX
  5
2a2
  8
Layer_0
  10
469.11847
  20
308.67844
  0
VERTEX
  5
2a3
  8
Layer_0
  10
469.36752
  20
308.54324
  0
VERTEX
  5
2a4
  8
Layer_0
  10
469.58453
  20
308.36423
  0
VERTEX
  5
2a5
  8
Layer_0
  10
469.76355
  20
308.14722
  0
VERTEX
  5
2a6
  8
Layer_0
  10
469.89874
  20
307.89816
  0
VERTEX
  5
2a7
  8
Layer_0
  10
469.98419
  20
307.62296
  0
VERTEX
  5
2a8
  8
Layer_0
  10
470.01398
  20
307.32745
  0
SEQEND
  0
POLYLINE
  5
2aa
  8
Layer_0
  62
1
  70
1
  66
1
  10
0
  20
0
  30
0
  0
VERTEX
  5
2aa
  8
Layer_0
  10
479.1304
  20
300.24884
  0
VERTEX
  5
2ab
  8
Layer_0
  10
478.63739
  20
300.20355
  0
VERTEX
  5
2ac
  8
Layer_0
  10
478.17822
  20
300.07376
  0
VERTEX
  5
2ad
  8
Layer_0
  10
477.76263
  20
299.86835
  0
VERTEX
  5
2ae
  8
Layer_0
  10
477.4006
  20
299.59631
  0
VERTEX
  5
2af
  8
Layer_0
  10
477.1019
  20
299.2666
  0
VERTEX
  5
2b0
  8
Layer_0
  10
476.87634
  20
298.88818
  0
VERTEX
  5
2b1
  8
Layer_0
  10
476.7338
  20
298.46997
  0
VERTEX
  5
2b2
  8
Layer_0
  10
476.68411
  20
298.021
  0
VERTEX
  5
2b3
  8
Layer_0
  10
476.69281
  20
297.83948
  0
VERTEX
  5
2b4
  8
Layer_0
  10
476.71771
  20
297.65921
  0
VERTEX
  5
2b5
  8
Layer_0
  10
476.71771
  20
282.9455
  0
VERTEX
  5
2b6
  8
Layer_0
  10
476.69281
  20
282.76547
  0
VERTEX
  5
2b7
  8
Layer_0
  10
476.68411
  20
282.58417
  0
VERTEX
  5
2b8
  8
Layer_0
  10
476.7338
  20
282.13519
  0
VERTEX
  5
2b9
  8
Layer_0
  10
476.87634
  20
281.71698
  0
VERTEX
  5
2ba
  8
Layer_0
  10
477.1019
  20
281.33856
  0
VERTEX
  5
2bb
  8
Layer_0
  10
477.4006
  20
281.00885
  0
VERTEX
  5
2bc
  8
Layer_0
  10
477.76263
  20
280.73682
  0
VERTEX
  5
2bd
  8
Layer_0
  10
478.17822
  20
280.5314
  0
VERTEX
  5
2be
  8
Layer_0
  10
478.63739
  20
280.40161
  0
VERTEX
  5
2bf
  8
Layer_0
  10
479.1304
  20
280.35635
  0
VERTEX
  5
2c0
  8
Layer_0
  10
479.62341
  20
280.40161
  0
VERTEX
  5
2c1
  8
Layer_0
  10
480.08258
  20
280.5314
  0
VERTEX
  5
2c2
  8
Layer_0
  10
480.49817
  20
280.73682
  0
VERTEX
  5
2c3
  8
Layer_0
  10
480.8602
  20
281.00885
  0
VERTEX
  5
2c4
  8
Layer_0
  10
481.15891
  20
281.33856
  0
VERTEX
  5
2c5
  8
Layer_0
  10
481.38446
  20
281.71698
  0
VERTEX
  5
2c6
  8
Layer_0
  10
481.52701
  20
282.13519
  0
VERTEX
  5
2c7
  8
Layer_0
  10
481.57669
  20
282.58417
  0
VERTEX
  5
2c8
  8
Layer_0
  10
481.56677
  20
282.78308
  0
VERTEX
  5
2c9
  8
Layer_0
  10
481.53741
  20
282.98035
  0
VERTEX
  5
2ca
  8
Layer_0
  10
481.53741
  20
297.6319
  0
VERTEX
  5
2cb
  8
Layer_0
  10
481.56644
  20
297.82565
  0
VERTEX
  5
2cc
  8
Layer_0
  10
481.57669
  20
298.021
  0
VERTEX
  5
2cd
  8
Layer_0
  10
481.52701
  20
298.46997
  0
VERTEX
  5
2ce
  8
Layer_0
  10
481.38446
  20
298.88818
  0
VERTEX
  5
2cf
  8
Layer_0
  10
481.15891
  20
299.2666
  0
VERTEX
  5
2d0
  8
Layer_0
  10
480.8602
  20
299.59631
  0
VERTEX
  5
2d1
  8
Layer_0
  10
480.49817
  20
299.86835
  0
VERTEX
  5
2d2
  8
Layer_0
  10
480.08258
  20
300.07376
  0
VERTEX
  5
2d3
  8
Layer_0
  10
479.62341
  20
300.20355
  0
VERTEX
  5
2d4
  8
Layer_0
  10
479.1304
  20
300.24884
  0
SEQEND
  0
POLYLINE
  5
2d6
  8
Layer_0
  62
1
  66
1
  10
0
  20
0
  30
0
  0
VERTEX
  5
2d6
  8
Layer_0
  10
516.2771
  20
290.0022
  0
VERTEX
  5
2d7
  8
Layer_0
  10
516.10913
  20
289.52811
  0
VERTEX
  5
2d8
  8
Layer_0
  10
515.89832
  20
289.08197
  0
VERTEX
  5
2d9
  8
Layer_0
  10
515.64758
  20
288.66544
  0
VERTEX
  5
2da
  8
Layer_0
  10
515.36023
  20
288.28015
  0
VERTEX
  5
2db
  8
Layer_0
  10
515.03912
  20
287.92783
  0
VERTEX
  5
2dc
  8
Layer_0
  10
514.6875
  20
287.61005
  0
VERTEX
  5
2dd
  8
Layer_0
  10
514.30829
  20
287.32852
  0
VERTEX
  5
2de
  8
Layer_0
  10
513.90466
  20
287.0849
  0
VERTEX
  5
2df
  8
Layer_0
  10
513.47961
  20
286.88083
  0
VERTEX
  5
2e0
  8
Layer_0
  10
513.03632
  20
286.71802
  0
VERTEX
  5
2e1
  8
Layer_0
  10
512.57776
  20
286.59808
  0
VERTEX
  5
2e2
  8
Layer_0
  10
512.10706
  20
286.52267
  0
VERTEX
  5
2e3
  8
Layer_0
  10
511.62732
  20
286.49347
  0
VERTEX
  5
2e4
  8
Layer_0
  10
511.14154
  20
286.51215
  0
VERTEX
  5
2e5
  8
Layer_0
  10
510.6528
  20
286.58032
  0
VERTEX
  5
2e6
  8
Layer_0
  10
510.16422
  20
286.69971
  0
VERTEX
  5
2e7
  8
Layer_0
  10
509.69012
  20
286.86768
  0
VERTEX
  5
2e8
  8
Layer_0
  10
509.24399
  20
287.07858
  0
VERTEX
  5
2e9
  8
Layer_0
  10
508.82745
  20
287.32928
  0
VERTEX
  5
2ea
  8
Layer_0
  10
508.44217
  20
287.61667
  0
VERTEX
  5
2eb
  8
Layer_0
  10
508.08981
  20
287.93774
  0
VERTEX
  5
2ec
  8
Layer_0
  10
507.77203
  20
288.2894
  0
VERTEX
  5
2ed
  8
Layer_0
  10
507.49051
  20
288.66858
  0
VERTEX
  5
2ee
  8
Layer_0
  10
507.24692
  20
289.0722
  0
VERTEX
  5
2ef
  8
Layer_0
  10
507.04288
  20
289.49719
  0
VERTEX
  5
2f0
  8
Layer_0
  10
506.88007
  20
289.94049
  0
VERTEX
  5
2f1
  8
Layer_0
  10
506.76013
  20
290.39905
  0
VERTEX
  5
2f2
  8
Layer_0
  10
506.68472
  20
290.86975
  0
VERTEX
  5
2f3
  8
Layer_0
  10
506.65552
  20
291.34952
  0
VERTEX
  5
2f4
  8
Layer_0
  10
506.67419
  20
291.83533
  0
VERTEX
  5
2f5
  8
Layer_0
  10
506.74237
  20
292.32404
  0
VERTEX
  5
2f6
  8
Layer_0
  10
506.86172
  20
292.81262
  0
VERTEX
  5
2f7
  8
Layer_0
  10
507.02969
  20
293.28671
  0
VERTEX
  5
2f8
  8
Layer_0
  10
507.24057
  20
293.73285
  0
VERTEX
  5
2f9
  8
Layer_0
  10
507.49127
  20
294.14938
  0
VERTEX
  5
2fa
  8
Layer_0
  10
507.77866
  20
294.53467
  0
VERTEX
  5
2fb
  8
Layer_0
  10
508.09973
  20
294.88699
  0
VERTEX
  5
2fc
  8
Layer_0
  10
508.45139
  20
295.20477
  0
VERTEX
  5
2fd
  8
Layer_0
  10
508.83057
  20
295.4863
  0
VERTEX
  5
2fe
  8
Layer_0
  10
509.23422
  20
295.72992
  0
VERTEX
  5
2ff
  8
Layer_0
  10
509.65924
  20
295.93399
  0
VERTEX
  5
300
  8
Layer_0
  10
510.10254
  20
296.0968
  0
VERTEX
  5
301
  8
Layer_0
  10
510.5611
  20
296.21674
  0
VERTEX
  5
302
  8
Layer_0
  10
511.0318
  20
296.29214
  0
VERTEX
  5
303
  8
Layer_0
  10
511.51157
  20
296.32135
  0
VERTEX
  5
304
  8
Layer_0
  10
511.99738
  20
296.30267
  0
VERTEX
  5
305
  8
Layer_0
  10
512.48608
  20
296.2345
  0
VERTEX
  5
306
  8
Layer_0
  10
512.97467
  20
296.11511
  0
VERTEX
  5
307
  8
Layer_0
  10
513.44873
  20
295.94714
  0
VERTEX
  5
308
  8
Layer_0
  10
513.8949
  20
295.73627
  0
VERTEX
  5
309
  8
Layer_0
  10
514.3114
  20
295.4856
  0
VERTEX
  5
30a
  8
Layer_0
  10
514.69672
  20
295.19818
  0
VERTEX
  5
30b
  8
Layer_0
  10
515.04907
  20
294.87708
  0
VERTEX
  5
30c
  8
Layer_0
  10
515.36682
  20
294.52542
  0
VERTEX
  5
30d
  8
Layer_0
  10
515.64832
  20
294.14624
  0
VERTEX
  5
30e
  8
Layer_0
  10
515.89197
  20
293.74261
  0
VERTEX
  5
30f
  8
Layer_0
  10
516.09595
  20
293.31763
  0
VERTEX
  5
310
  8
Layer_0
  10
516.25879
  20
292.87433
  0
VERTEX
  5
311
  8
Layer_0
  10
516.37878
  20
292.41577
  0
VERTEX
  5
312
  8
Layer_0
  10
516.45416
  20
291.94507
  0
VERTEX
  5
313
  8
Layer_0
  10
516.4834
  20
291.4653
  0
VERTEX
  5
314
  8
Layer_0
  10
516.46472
  20
290.97949
  0
VERTEX
  5
315
  8
Layer_0
  10
516.39655
  20
290.49078
  0
VERTEX
  5
316
  8
Layer_0
  10
516.27716
  20
290.0022
  0
SEQEND
  0
POLYLINE
  5
318
  8
Layer_0
  62
1
  70
1
  66
1
  10
0
  20
0
  30
0
  0
VERTEX
  5
318
  8
Layer_0
  10
496.30603
  20
279.69235
  0
VERTEX
  5
319
  8
Layer_0
  10
496.12244
  20
279.48502
  0
VERTEX
  5
31a
  8
Layer_0
  10
495.96371
  20
279.26443
  0
VERTEX
  5
31b
  8
Layer_0
  10
495.8299
  20
279.03256
  0
VERTEX
  5
31c
  8
Layer_0
  10
495.72095
  20
278.79132
  0
VERTEX
  5
31d
  8
Layer_0
  10
495.63687
  20
278.54266
  0
VERTEX
  5
31e
  8
Layer_0
  10
495.57758
  20
278.28851
  0
VERTEX
  5
31f
  8
Layer_0
  10
495.54309
  20
278.03073
  0
VERTEX
  5
320
  8
Layer_0
  10
495.53336
  20
277.77133
  0
VERTEX
  5
321
  8
Layer_0
  10
495.5484
  20
277.51218
  0
VERTEX
  5
322
  8
Layer_0
  10
495.5882
  20
277.25519
  0
VERTEX
  5
323
  8
Layer_0
  10
495.65271
  20
277.00229
  0
VERTEX
  5
324
  8
Layer_0
  10
495.74191
  20
276.75537
  0
VERTEX
  5
325
  8
Layer_0
  10
495.85577
  20
276.51648
  0
VERTEX
  5
326
  8
Layer_0
  10
495.99432
  20
276.28741
  0
VERTEX
  5
327
  8
Layer_0
  10
496.1575
  20
276.07013
  0
VERTEX
  5
328
  8
Layer_0
  10
496.34534
  20
275.86661
  0
VERTEX
  5
329
  8
Layer_0
  10
496.5527
  20
275.68301
  0
VERTEX
  5
32a
  8
Layer_0
  10
496.77325
  20
275.52432
  0
VERTEX
  5
32b
  8
Layer_0
  10
497.0051
  20
275.3905
  0
VERTEX
  5
32c
  8
Layer_0
  10
497.24634
  20
275.28156
  0
VERTEX
  5
32d
  8
Layer_0
  10
497.495
  20
275.19748
  0
VERTEX
  5
32e
  8
Layer_0
  10
497.74915
  20
275.13818
  0
VERTEX
  5
32f
  8
Layer_0
  10
498.00693
  20
275.1037
  0
VERTEX
  5
330
  8
Layer_0
  10
498.26636
  20
275.09393
  0
VERTEX
  5
331
  8
Layer_0
  10
498.52554
  20
275.10901
  0
VERTEX
  5
332
  8
Layer_0
  10
498.78253
  20
275.1488
  0
VERTEX
  5
333
  8
Layer_0
  10
499.03543
  20
275.21329
  0
VERTEX
  5
334
  8
Layer_0
  10
499.28229
  20
275.30249
  0
VERTEX
  5
335
  8
Layer_0
  10
499.52118
  20
275.41638
  0
VERTEX
  5
336
  8
Layer_0
  10
499.75024
  20
275.55493
  0
VERTEX
  5
337
  8
Layer_0
  10
499.96753
  20
275.71811
  0
VERTEX
  5
338
  8
Layer_0
  10
500.17108
  20
275.90594
  0
VERTEX
  5
339
  8
Layer_0
  10
500.35468
  20
276.11331
  0
VERTEX
  5
33a
  8
Layer_0
  10
500.5134
  20
276.33386
  0
VERTEX
  5
33b
  8
Layer_0
  10
500.64722
  20
276.5657
  0
VERTEX
  5
33c
  8
Layer_0
  10
500.75616
  20
276.80695
  0
VERTEX
  5
33d
  8
Layer_0
  10
500.84024
  20
277.0556
  0
VERTEX
  5
33e
  8
Layer_0
  10
500.89954
  20
277.30975
  0
VERTEX
  5
33f
  8
Layer_0
  10
500.93402
  20
277.56754
  0
VERTEX
  5
340
  8
Layer_0
  10
500.94376
  20
277.82697
  0
VERTEX
  5
341
  8
Layer_0
  10
500.92871
  20
278.08615
  0
VERTEX
  5
342
  8
Layer_0
  10
500.88892
  20
278.34314
  0
VERTEX
  5
343
  8
Layer_0
  10
500.8244
  20
278.59604
  0
VERTEX
  5
344
  8
Layer_0
  10
500.7352
  20
278.8429
  0
VERTEX
  5
345
  8
Layer_0
  10
500.62134
  20
279.08179
  0
VERTEX
  5
346
  8
Layer_0
  10
500.48279
  20
279.31085
  0
VERTEX
  5
347
  8
Layer_0
  10
500.31961
  20
279.52814
  0
VERTEX
  5
348
  8
Layer_0
  10
500.13177
  20
279.73169
  0
VERTEX
  5
349
  8
Layer_0
  10
499.92441
  20
279.91528
  0
VERTEX
  5
34a
  8
Layer_0
  10
499.70386
  20
280.07401
  0
VERTEX
  5
34b
  8
Layer_0
  10
499.47202
  20
280.20782
  0
VERTEX
  5
34c
  8
Layer_0
  10
499.23077
  20
280.31677
  0
VERTEX
  5
34d
  8
Layer_0
  10
498.98212
  20
280.40085
  0
VERTEX
  5
34e
  8
Layer_0
  10
498.72797
  20
280.46014
  0
VERTEX
  5
34f
  8
Layer_0
  10
498.47018
  20
280.49463
  0
VERTEX
  5
350
  8
Layer_0
  10
498.21075
  20
280.50436
  0
VERTEX
  5
351
  8
Layer_0
  10
497.95157
  20
280.48932
  0
VERTEX
  5
352
  8
Layer_0
  10
497.69458
  20
280.44952
  0
VERTEX
  5
353
  8
Layer_0
  10
497.44168
  20
280.38501
  0
VERTEX
  5
354
  8
Layer_0
  10
497.19482
  20
280.29581
  0
VERTEX
  5
355
  8
Layer_0
  10
496.95593
  20
280.18192
  0
VERTEX
  5
356
  8
Layer_0
  10
496.72687
  20
280.04333
  0
VERTEX
  5
357
  8
Layer_0
  10
496.50958
  20
279.88016
  0
VERTEX
  5
358
  8
Layer_0
  10
496.30603
  20
279.69235
  0
SEQEND
  0
POLYLINE
  5
35a
  8
Layer_0
  62
1
  70
1
  66
1
  10
0
  20
0
  30
0
  0
VERTEX
  5
35a
  8
Layer_0
  10
522.96838
  20
306.90866
  0
VERTEX
  5
35b
  8
Layer_0
  10
522.78479
  20
306.70132
  0
VERTEX
  5
35c
  8
Layer_0
  10
522.6261
  20
306.48074
  0
VERTEX
  5
35d
  8
Layer_0
  10
522.49225
  20
306.24887
  0
VERTEX
  5
35e
  8
Layer_0
  10
522.3833
  20
306.00763
  0
VERTEX
  5
35f
  8
Layer_0
  10
522.29919
  20
305.75897
  0
VERTEX
  5
360
  8
Layer_0
  10
522.23993
  20
305.50482
  0
VERTEX
  5
361
  8
Layer_0
  10
522.20544
  20
305.24704
  0
VERTEX
  5
362
  8
Layer_0
  10
522.19568
  20
304.98764
  0
VERTEX
  5
363
  8
Layer_0
  10
522.21075
  20
304.72849
  0
VERTEX
  5
364
  8
Layer_0
  10
522.25055
  20
304.4715
  0
VERTEX
  5
365
  8
Layer_0
  10
522.31506
  20
304.2186
  0
VERTEX
  5
366
  8
Layer_0
  10
522.4043
  20
303.97168
  0
VERTEX
  5
367
  8
Layer_0
  10
522.51813
  20
303.73279
  0
VERTEX
  5
368
  8
Layer_0
  10
522.65668
  20
303.50372
  0
VERTEX
  5
369
  8
Layer_0
  10
522.81982
  20
303.28647
  0
VERTEX
  5
36a
  8
Layer_0
  10
523.00769
  20
303.08295
  0
VERTEX
  5
36b
  8
Layer_0
  10
523.21509
  20
302.89935
  0
VERTEX
  5
36c
  8
Layer_0
  10
523.43561
  20
302.74063
  0
VERTEX
  5
36d
  8
Layer_0
  10
523.66748
  20
302.60681
  0
VERTEX
  5
36e
  8
Layer_0
  10
523.90869
  20
302.49786
  0
VERTEX
  5
36f
  8
Layer_0
  10
524.15735
  20
302.41379
  0
VERTEX
  5
370
  8
Layer_0
  10
524.4115
  20
302.35449
  0
VERTEX
  5
371
  8
Layer_0
  10
524.66931
  20
302.32001
  0
VERTEX
  5
372
  8
Layer_0
  10
524.92871
  20
302.31027
  0
VERTEX
  5
373
  8
Layer_0
  10
525.18787
  20
302.32532
  0
VERTEX
  5
374
  8
Layer_0
  10
525.44489
  20
302.36511
  0
VERTEX
  5
375
  8
Layer_0
  10
525.69775
  20
302.4296
  0
VERTEX
  5
376
  8
Layer_0
  10
525.94464
  20
302.5188
  0
VERTEX
  5
377
  8
Layer_0
  10
526.18353
  20
302.63269
  0
VERTEX
  5
378
  8
Layer_0
  10
526.4126
  20
302.77124
  0
VERTEX
  5
379
  8
Layer_0
  10
526.62988
  20
302.93442
  0
VERTEX
  5
37a
  8
Layer_0
  10
526.83344
  20
303.12225
  0
VERTEX
  5
37b
  8
Layer_0
  10
527.01703
  20
303.32962
  0
VERTEX
  5
37c
  8
Layer_0
  10
527.17578
  20
303.55017
  0
VERTEX
  5
37d
  8
Layer_0
  10
527.30957
  20
303.78201
  0
VERTEX
  5
37e
  8
Layer_0
  10
527.41852
  20
304.02325
  0
VERTEX
  5
37f
  8
Layer_0
  10
527.50256
  20
304.27191
  0
VERTEX
  5
380
  8
Layer_0
  10
527.56189
  20
304.52606
  0
VERTEX
  5
381
  8
Layer_0
  10
527.59637
  20
304.78384
  0
VERTEX
  5
382
  8
Layer_0
  10
527.60608
  20
305.04327
  0
VERTEX
  5
383
  8
Layer_0
  10
527.59106
  20
305.30246
  0
VERTEX
  5
384
  8
Layer_0
  10
527.55127
  20
305.55945
  0
VERTEX
  5
385
  8
Layer_0
  10
527.48676
  20
305.81235
  0
VERTEX
  5
386
  8
Layer_0
  10
527.39758
  20
306.0592
  0
VERTEX
  5
387
  8
Layer_0
  10
527.28369
  20
306.2981
  0
VERTEX
  5
388
  8
Layer_0
  10
527.14514
  20
306.52716
  0
VERTEX
  5
389
  8
Layer_0
  10
526.98193
  20
306.74445
  0
VERTEX
  5
38a
  8
Layer_0
  10
526.79413
  20
306.948
  0
VERTEX
  5
38b
  8
Layer_0
  10
526.58679
  20
307.13159
  0
VERTEX
  5
38c
  8
Layer_0
  10
526.36621
  20
307.29031
  0
VERTEX
  5
38d
  8
Layer_0
  10
526.1344
  20
307.42413
  0
VERTEX
  5
38e
  8
Layer_0
  10
525.89313
  20
307.53308
  0
VERTEX
  5
38f
  8
Layer_0
  10
525.64447
  20
307.61716
  0
VERTEX
  5
390
  8
Layer_0
  10
525.39032
  20
307.67645
  0
VERTEX
  5
391
  8
Layer_0
  10
525.13257
  20
307.71094
  0
VERTEX
  5
392
  8
Layer_0
  10
524.87311
  20
307.72067
  0
VERTEX
  5
393
  8
Layer_0
  10
524.61389
  20
307.70563
  0
VERTEX
  5
394
  8
Layer_0
  10
524.35693
  20
307.66583
  0
VERTEX
  5
395
  8
Layer_0
  10
524.104
  20
307.60132
  0
VERTEX
  5
396
  8
Layer_0
  10
523.85718
  20
307.51212
  0
VERTEX
  5
397
  8
Layer_0
  10
523.61829
  20
307.39822
  0
VERTEX
  5
398
  8
Layer_0
  10
523.38922
  20
307.25964
  0
VERTEX
  5
399
  8
Layer_0
  10
523.17194
  20
307.09647
  0
VERTEX
  5
39a
  8
Layer_0
  10
522.96838
  20
306.90866
  0
SEQEND
  0
POLYLINE
  5
39c
  8
Layer_0
  62
1
  70
1
  66
1
  10
0
  20
0
  30
0
  0
VERTEX
  5
39c
  8
Layer_0
  10
441.87152
  20
290.00214
  0
VERTEX
  5
39d
  8
Layer_0
  10
442.03949
  20
289.52805
  0
VERTEX
  5
39e
  8
Layer_0
  10
442.25037
  20
289.08191
  0
VERTEX
  5
39f
  8
Layer_0
  10
442.50104
  20
288.66537
  0
VERTEX
  5
3a0
  8
Layer_0
  10
442.78845
  20
288.28009
  0
VERTEX
  5
3a1
  8
Layer_0
  10
443.10956
  20
287.92776
  0
VERTEX
  5
3a2
  8
Layer_0
  10
443.46121
  20
287.60999
  0
VERTEX
  5
3a3
  8
Layer_0
  10
443.84039
  20
287.32846
  0
VERTEX
  5
3a4
  8
Layer_0
  10
444.24402
  20
287.08484
  0
VERTEX
  5
3a5
  8
Layer_0
  10
444.66901
  20
286.88077
  0
VERTEX
  5
3a6
  8
Layer_0
  10
445.1123
  20
286.71796
  0
VERTEX
  5
3a7
  8
Layer_0
  10
445.57086
  20
286.59802
  0
VERTEX
  5
3a8
  8
Layer_0
  10
446.04156
  20
286.52261
  0
VERTEX
  5
3a9
  8
Layer_0
  10
446.52133
  20
286.49341
  0
VERTEX
  5
3aa
  8
Layer_0
  10
447.00714
  20
286.51208
  0
VERTEX
  5
3ab
  8
Layer_0
  10
447.49585
  20
286.58026
  0
VERTEX
  5
3ac
  8
Layer_0
  10
447.98444
  20
286.69965
  0
VERTEX
  5
3ad
  8
Layer_0
  10
448.45853
  20
286.86761
  0
VERTEX
  5
3ae
  8
Layer_0
  10
448.90466
  20
287.07852
  0
VERTEX
  5
3af
  8
Layer_0
  10
449.3212
  20
287.32922
  0
VERTEX
  5
3b0
  8
Layer_0
  10
449.70648
  20
287.61661
  0
VERTEX
  5
3b1
  8
Layer_0
  10
450.05881
  20
287.93768
  0
VERTEX
  5
3b2
  8
Layer_0
  10
450.37659
  20
288.28934
  0
VERTEX
  5
3b3
  8
Layer_0
  10
450.65811
  20
288.66852
  0
VERTEX
  5
3b4
  8
Layer_0
  10
450.90173
  20
289.07214
  0
VERTEX
  5
3b5
  8
Layer_0
  10
451.1058
  20
289.49713
  0
VERTEX
  5
3b6
  8
Layer_0
  10
451.26862
  20
289.94043
  0
VERTEX
  5
3b7
  8
Layer_0
  10
451.38855
  20
290.39899
  0
VERTEX
  5
3b8
  8
Layer_0
  10
451.46396
  20
290.86969
  0
VERTEX
  5
3b9
  8
Layer_0
  10
451.49316
  20
291.34946
  0
VERTEX
  5
3ba
  8
Layer_0
  10
451.47449
  20
291.83527
  0
VERTEX
  5
3bb
  8
Layer_0
  10
451.40631
  20
292.32397
  0
VERTEX
  5
3bc
  8
Layer_0
  10
451.28693
  20
292.81256
  0
VERTEX
  5
3bd
  8
Layer_0
  10
451.11896
  20
293.28665
  0
VERTEX
  5
3be
  8
Layer_0
  10
450.90808
  20
293.73279
  0
VERTEX
  5
3bf
  8
Layer_0
  10
450.65741
  20
294.14932
  0
VERTEX
  5
3c0
  8
Layer_0
  10
450.37
  20
294.53461
  0
VERTEX
  5
3c1
  8
Layer_0
  10
450.04889
  20
294.88693
  0
VERTEX
  5
3c2
  8
Layer_0
  10
449.69724
  20
295.20471
  0
VERTEX
  5
3c3
  8
Layer_0
  10
449.31805
  20
295.48624
  0
VERTEX
  5
3c4
  8
Layer_0
  10
448.91443
  20
295.72986
  0
VERTEX
  5
3c5
  8
Layer_0
  10
448.48944
  20
295.93393
  0
VERTEX
  5
3c6
  8
Layer_0
  10
448.04614
  20
296.09674
  0
VERTEX
  5
3c7
  8
Layer_0
  10
447.58759
  20
296.21667
  0
VERTEX
  5
3c8
  8
Layer_0
  10
447.11688
  20
296.29208
  0
VERTEX
  5
3c9
  8
Layer_0
  10
446.63712
  20
296.32129
  0
VERTEX
  5
3ca
  8
Layer_0
  10
446.15131
  20
296.30261
  0
VERTEX
  5
3cb
  8
Layer_0
  10
445.6626
  20
296.23444
  0
VERTEX
  5
3cc
  8
Layer_0
  10
445.17401
  20
296.11505
  0
VERTEX
  5
3cd
  8
Layer_0
  10
444.69992
  20
295.94708
  0
VERTEX
  5
3ce
  8
Layer_0
  10
444.25378
  20
295.73621
  0
VERTEX
  5
3cf
  8
Layer_0
  10
443.83725
  20
295.48553
  0
VERTEX
  5
3d0
  8
Layer_0
  10
443.45197
  20
295.19812
  0
VERTEX
  5
3d1
  8
Layer_0
  10
443.09964
  20
294.87701
  0
VERTEX
  5
3d2
  8
Layer_0
  10
442.78186
  20
294.52536
  0
VERTEX
  5
3d3
  8
Layer_0
  10
442.50034
  20
294.14618
  0
VERTEX
  5
3d4
  8
Layer_0
  10
442.25671
  20
293.74255
  0
VERTEX
  5
3d5
  8
Layer_0
  10
442.05264
  20
293.31757
  0
VERTEX
  5
3d6
  8
Layer_0
  10
441.88983
  20
292.87427
  0
VERTEX
  5
3d7
  8
Layer_0
  10
441.7699
  20
292.41571
  0
VERTEX
  5
3d8
  8
Layer_0
  10
441.69449
  20
291.94501
  0
VERTEX
  5
3d9
  8
Layer_0
  10
441.66528
  20
291.46524
  0
VERTEX
  5
3da
  8
Layer_0
  10
441.68396
  20
290.97943
  0
VERTEX
  5
3db
  8
Layer_0
  10
441.75214
  20
290.49072
  0
VERTEX
  5
3dc
  8
Layer_0
  10
441.87152
  20
290.00214
  0
SEQEND
  0
POLYLINE
  5
3de
  8
Layer_0
  62
1
  70
1
  66
1
  10
0
  20
0
  30
0
  0
VERTEX
  5
3de
  8
Layer_0
  10
461.84259
  20
279.69238
  0
VERTEX
  5
3df
  8
Layer_0
  10
462.02618
  20
279.48502
  0
VERTEX
  5
3e0
  8
Layer_0
  10
462.18491
  20
279.26447
  0
VERTEX
  5
3e1
  8
Layer_0
  10
462.31873
  20
279.03262
  0
VERTEX
  5
3e2
  8
Layer_0
  10
462.42767
  20
278.79138
  0
VERTEX
  5
3e3
  8
Layer_0
  10
462.51175
  20
278.54272
  0
VERTEX
  5
3e4
  8
Layer_0
  10
462.57104
  20
278.28857
  0
VERTEX
  5
3e5
  8
Layer_0
  10
462.60553
  20
278.03079
  0
VERTEX
  5
3e6
  8
Layer_0
  10
462.61526
  20
277.77136
  0
VERTEX
  5
3e7
  8
Layer_0
  10
462.60022
  20
277.51218
  0
VERTEX
  5
3e8
  8
Layer_0
  10
462.56042
  20
277.25519
  0
VERTEX
  5
3e9
  8
Layer_0
  10
462.49591
  20
277.00229
  0
VERTEX
  5
3ea
  8
Layer_0
  10
462.40671
  20
276.75543
  0
VERTEX
  5
3eb
  8
Layer_0
  10
462.29282
  20
276.51654
  0
VERTEX
  5
3ec
  8
Layer_0
  10
462.15424
  20
276.28748
  0
VERTEX
  5
3ed
  8
Layer_0
  10
461.99106
  20
276.07019
  0
VERTEX
  5
3ee
  8
Layer_0
  10
461.80325
  20
275.86664
  0
VERTEX
  5
3ef
  8
Layer_0
  10
461.59592
  20
275.68304
  0
VERTEX
  5
3f0
  8
Layer_0
  10
461.37534
  20
275.52432
  0
VERTEX
  5
3f1
  8
Layer_0
  10
461.14346
  20
275.3905
  0
VERTEX
  5
3f2
  8
Layer_0
  10
460.90222
  20
275.28156
  0
VERTEX
  5
3f3
  8
Layer_0
  10
460.65356
  20
275.19748
  0
VERTEX
  5
3f4
  8
Layer_0
  10
460.39941
  20
275.13818
  0
VERTEX
  5
3f5
  8
Layer_0
  10
460.14163
  20
275.1037
  0
VERTEX
  5
3f6
  8
Layer_0
  10
459.88223
  20
275.09396
  0
VERTEX
  5
3f7
  8
Layer_0
  10
459.62308
  20
275.10901
  0
VERTEX
  5
3f8
  8
Layer_0
  10
459.36609
  20
275.1488
  0
VERTEX
  5
3f9
  8
Layer_0
  10
459.11319
  20
275.21332
  0
VERTEX
  5
3fa
  8
Layer_0
  10
458.86627
  20
275.30252
  0
VERTEX
  5
3fb
  8
Layer_0
  10
458.62738
  20
275.41641
  0
VERTEX
  5
3fc
  8
Layer_0
  10
458.39832
  20
275.55499
  0
VERTEX
  5
3fd
  8
Layer_0
  10
458.18103
  20
275.71817
  0
VERTEX
  5
3fe
  8
Layer_0
  10
457.97751
  20
275.90598
  0
VERTEX
  5
3ff
  8
Layer_0
  10
457.79391
  20
276.11331
  0
VERTEX
  5
400
  8
Layer_0
  10
457.63522
  20
276.33389
  0
VERTEX
  5
401
  8
Layer_0
  10
457.5014
  20
276.56577
  0
VERTEX
  5
402
  8
Layer_0
  10
457.39246
  20
276.80701
  0
VERTEX
  5
403
  8
Layer_0
  10
457.30838
  20
277.05566
  0
VERTEX
  5
404
  8
Layer_0
  10
457.24908
  20
277.30981
  0
VERTEX
  5
405
  8
Layer_0
  10
457.2146
  20
277.5676
  0
VERTEX
  5
406
  8
Layer_0
  10
457.20483
  20
277.827
  0
VERTEX
  5
407
  8
Layer_0
  10
457.21991
  20
278.08615
  0
VERTEX
  5
408
  8
Layer_0
  10
457.2597
  20
278.34314
  0
VERTEX
  5
409
  8
Layer_0
  10
457.32419
  20
278.59604
  0
VERTEX
  5
40a
  8
Layer_0
  10
457.41339
  20
278.84296
  0
VERTEX
  5
40b
  8
Layer_0
  10
457.52728
  20
279.08185
  0
VERTEX
  5
40c
  8
Layer_0
  10
457.66583
  20
279.31091
  0
VERTEX
  5
40d
  8
Layer_0
  10
457.82901
  20
279.5282
  0
VERTEX
  5
40e
  8
Layer_0
  10
458.01685
  20
279.73172
  0
VERTEX
  5
40f
  8
Layer_0
  10
458.22421
  20
279.91531
  0
VERTEX
  5
410
  8
Layer_0
  10
458.44476
  20
280.07401
  0
VERTEX
  5
411
  8
Layer_0
  10
458.67661
  20
280.20782
  0
VERTEX
  5
412
  8
Layer_0
  10
458.91785
  20
280.31677
  0
VERTEX
  5
413
  8
Layer_0
  10
459.1665
  20
280.40085
  0
VERTEX
  5
414
  8
Layer_0
  10
459.42065
  20
280.46014
  0
VERTEX
  5
415
  8
Layer_0
  10
459.67844
  20
280.49463
  0
VERTEX
  5
416
  8
Layer_0
  10
459.93787
  20
280.50439
  0
VERTEX
  5
417
  8
Layer_0
  10
460.19705
  20
280.48932
  0
VERTEX
  5
418
  8
Layer_0
  10
460.45404
  20
280.44952
  0
VERTEX
  5
419
  8
Layer_0
  10
460.70694
  20
280.38504
  0
VERTEX
  5
41a
  8
Layer_0
  10
460.9538
  20
280.29584
  0
VERTEX
  5
41b
  8
Layer_0
  10
461.19269
  20
280.18195
  0
VERTEX
  5
41c
  8
Layer_0
  10
461.42175
  20
280.0434
  0
VERTEX
  5
41d
  8
Layer_0
  10
461.63904
  20
279.88022
  0
VERTEX
  5
41e
  8
Layer_0
  10
461.84259
  20
279.69238
  0
SEQEND
  0
POLYLINE
  5
420
  8
Layer_0
  62
1
  70
1
  66
1
  10
0
  20
0
  30
0
  0
VERTEX
  5
420
  8
Layer_0
  10
435.18021
  20
306.90872
  0
VERTEX
  5
421
  8
Layer_0
  10
435.3638
  20
306.70139
  0
VERTEX
  5
422
  8
Layer_0
  10
435.52249
  20
306.4808
  0
VERTEX
  5
423
  8
Layer_0
  10
435.65631
  20
306.24893
  0
VERTEX
  5
424
  8
Layer_0
  10
435.76526
  20
306.00769
  0
VERTEX
  5
425
  8
Layer_0
  10
435.84933
  20
305.75903
  0
VERTEX
  5
426
  8
Layer_0
  10
435.90863
  20
305.50488
  0
VERTEX
  5
427
  8
Layer_0
  10
435.94312
  20
305.2471
  0
VERTEX
  5
428
  8
Layer_0
  10
435.95288
  20
304.9877
  0
VERTEX
  5
429
  8
Layer_0
  10
435.93781
  20
304.72855
  0
VERTEX
  5
42a
  8
Layer_0
  10
435.89801
  20
304.47156
  0
VERTEX
  5
42b
  8
Layer_0
  10
435.83353
  20
304.21866
  0
VERTEX
  5
42c
  8
Layer_0
  10
435.74432
  20
303.97174
  0
VERTEX
  5
42d
  8
Layer_0
  10
435.63043
  20
303.73285
  0
VERTEX
  5
42e
  8
Layer_0
  10
435.49188
  20
303.50378
  0
VERTEX
  5
42f
  8
Layer_0
  10
435.3287
  20
303.2865
  0
VERTEX
  5
430
  8
Layer_0
  10
435.14087
  20
303.08298
  0
VERTEX
  5
431
  8
Layer_0
  10
434.9335
  20
302.89938
  0
VERTEX
  5
432
  8
Layer_0
  10
434.71295
  20
302.74069
  0
VERTEX
  5
433
  8
Layer_0
  10
434.48111
  20
302.60687
  0
VERTEX
  5
434
  8
Layer_0
  10
434.23987
  20
302.49792
  0
VERTEX
  5
435
  8
Layer_0
  10
433.99121
  20
302.41385
  0
VERTEX
  5
436
  8
Layer_0
  10
433.73706
  20
302.35455
  0
VERTEX
  5
437
  8
Layer_0
  10
433.47928
  20
302.32007
  0
VERTEX
  5
438
  8
Layer_0
  10
433.21985
  20
302.3103
  0
VERTEX
  5
439
  8
Layer_0
  10
432.96066
  20
302.32538
  0
VERTEX
  5
43a
  8
Layer_0
  10
432.70367
  20
302.36517
  0
VERTEX
  5
43b
  8
Layer_0
  10
432.45078
  20
302.42966
  0
VERTEX
  5
43c
  8
Layer_0
  10
432.20392
  20
302.51886
  0
VERTEX
  5
43d
  8
Layer_0
  10
431.96503
  20
302.63275
  0
VERTEX
  5
43e
  8
Layer_0
  10
431.73596
  20
302.7713
  0
VERTEX
  5
43f
  8
Layer_0
  10
431.51868
  20
302.93448
  0
VERTEX
  5
440
  8
Layer_0
  10
431.31512
  20
303.12231
  0
VERTEX
  5
441
  8
Layer_0
  10
431.13153
  20
303.32968
  0
VERTEX
  5
442
  8
Layer_0
  10
430.97281
  20
303.55023
  0
VERTEX
  5
443
  8
Layer_0
  10
430.83899
  20
303.78207
  0
VERTEX
  5
444
  8
Layer_0
  10
430.73004
  20
304.02332
  0
VERTEX
  5
445
  8
Layer_0
  10
430.64597
  20
304.27197
  0
VERTEX
  5
446
  8
Layer_0
  10
430.58667
  20
304.52612
  0
VERTEX
  5
447
  8
Layer_0
  10
430.55219
  20
304.78391
  0
VERTEX
  5
448
  8
Layer_0
  10
430.54245
  20
305.0433
  0
VERTEX
  5
449
  8
Layer_0
  10
430.5575
  20
305.30246
  0
VERTEX
  5
44a
  8
Layer_0
  10
430.59729
  20
305.55945
  0
VERTEX
  5
44b
  8
Layer_0
  10
430.6618
  20
305.81235
  0
VERTEX
  5
44c
  8
Layer_0
  10
430.75101
  20
306.05927
  0
VERTEX
  5
44d
  8
Layer_0
  10
430.8649
  20
306.29816
  0
VERTEX
  5
44e
  8
Layer_0
  10
431.00348
  20
306.52722
  0
VERTEX
  5
44f
  8
Layer_0
  10
431.16666
  20
306.74451
  0
VERTEX
  5
450
  8
Layer_0
  10
431.35446
  20
306.94803
  0
VERTEX
  5
451
  8
Layer_0
  10
431.5618
  20
307.13162
  0
VERTEX
  5
452
  8
Layer_0
  10
431.78238
  20
307.29031
  0
VERTEX
  5
453
  8
Layer_0
  10
432.01425
  20
307.42413
  0
VERTEX
  5
454
  8
Layer_0
  10
432.25549
  20
307.53308
  0
VERTEX
  5
455
  8
Layer_0
  10
432.50415
  20
307.61716
  0
VERTEX
  5
456
  8
Layer_0
  10
432.7583
  20
307.67645
  0
VERTEX
  5
457
  8
Layer_0
  10
433.01608
  20
307.71094
  0
VERTEX
  5
458
  8
Layer_0
  10
433.27548
  20
307.7207
  0
VERTEX
  5
459
  8
Layer_0
  10
433.53464
  20
307.70566
  0
VERTEX
  5
45a
  8
Layer_0
  10
433.79163
  20
307.66589
  0
VERTEX
  5
45b
  8
Layer_0
  10
434.04453
  20
307.60138
  0
VERTEX
  5
45c
  8
Layer_0
  10
434.29144
  20
307.51218
  0
VERTEX
  5
45d
  8
Layer_0
  10
434.53033
  20
307.39828
  0
VERTEX
  5
45e
  8
Layer_0
  10
434.7594
  20
307.2597
  0
VERTEX
  5
45f
  8
Layer_0
  10
434.97668
  20
307.09653
  0
VERTEX
  5
460
  8
Layer_0
  10
435.18021
  20
306.90872
  0
SEQEND
  0
POLYLINE
  5
462
  8
Layer_0
  62
1
  70
1
  66
1
  10
0
  20
0
  30
0
  0
VERTEX
  5
462
  8
Layer_0
  10
358.69861
  20
339.65564
  0
VERTEX
  5
463
  8
Layer_0
  10
358.22937
  20
339.61844
  0
VERTEX
  5
464
  8
Layer_0
  10
357.77148
  20
339.50836
  0
VERTEX
  5
465
  8
Layer_0
  10
357.33643
  20
339.32852
  0
VERTEX
  5
466
  8
Layer_0
  10
356.93536
  20
339.08255
  0
VERTEX
  5
467
  8
Layer_0
  10
356.57776
  20
338.77661
  0
VERTEX
  5
468
  8
Layer_0
  10
356.27185
  20
338.41849
  0
VERTEX
  5
469
  8
Layer_0
  10
356.02539
  20
338.01749
  0
VERTEX
  5
46a
  8
Layer_0
  10
355.84552
  20
337.58237
  0
VERTEX
  5
46b
  8
Layer_0
  10
355.73547
  20
337.12451
  0
VERTEX
  5
46c
  8
Layer_0
  10
355.69873
  20
336.6553
  0
VERTEX
  5
46d
  8
Layer_0
  10
355.69873
  20
260.38144
  0
VERTEX
  5
46e
  8
Layer_0
  10
355.5238
  20
260.37451
  0
VERTEX
  5
46f
  8
Layer_0
  10
355.50195
  20
260.371
  0
VERTEX
  5
470
  8
Layer_0
  10
355.5257
  20
260.36703
  0
VERTEX
  5
471
  8
Layer_0
  10
355.61328
  20
260.36261
  0
VERTEX
  5
472
  8
Layer_0
  10
355.7832
  20
260.35794
  0
VERTEX
  5
473
  8
Layer_0
  10
356.9704
  20
260.3429
  0
VERTEX
  5
474
  8
Layer_0
  10
360.82025
  20
260.32437
  0
VERTEX
  5
475
  8
Layer_0
  10
369.59552
  20
260.31287
  0
VERTEX
  5
476
  8
Layer_0
  10
384.68915
  20
260.31967
  0
VERTEX
  5
477
  8
Layer_0
  10
432.33035
  20
260.40485
  0
VERTEX
  5
478
  8
Layer_0
  10
521.75549
  20
260.40485
  0
VERTEX
  5
479
  8
Layer_0
  10
521.73376
  20
260.40485
  0
VERTEX
  5
47a
  8
Layer_0
  10
528.56952
  20
260.40485
  0
VERTEX
  5
47b
  8
Layer_0
  10
531.21124
  20
260.50562
  0
VERTEX
  5
47c
  8
Layer_0
  10
533.82141
  20
260.80743
  0
VERTEX
  5
47d
  8
Layer_0
  10
536.40112
  20
261.30771
  0
VERTEX
  5
47e
  8
Layer_0
  10
538.2558
  20
261.8172
  0
VERTEX
  5
47f
  8
Layer_0
  10
538.6825
  20
262.43756
  0
VERTEX
  5
480
  8
Layer_0
  10
539.0929
  20
263.08459
  0
VERTEX
  5
481
  8
Layer_0
  10
539.48706
  20
263.75726
  0
VERTEX
  5
482
  8
Layer_0
  10
539.86523
  20
264.45453
  0
VERTEX
  5
483
  8
Layer_0
  10
540.22754
  20
265.17542
  0
VERTEX
  5
484
  8
Layer_0
  10
540.57404
  20
265.91891
  0
VERTEX
  5
485
  8
Layer_0
  10
540.90491
  20
266.68396
  0
VERTEX
  5
486
  8
Layer_0
  10
541.22021
  20
267.4696
  0
VERTEX
  5
487
  8
Layer_0
  10
541.80493
  20
269.09848
  0
VERTEX
  5
488
  8
Layer_0
  10
542.3291
  20
270.79742
  0
VERTEX
  5
489
  8
Layer_0
  10
542.79382
  20
272.55841
  0
VERTEX
  5
48a
  8
Layer_0
  10
543.2002
  20
274.37329
  0
VERTEX
  5
48b
  8
Layer_0
  10
543.54919
  20
276.23395
  0
VERTEX
  5
48c
  8
Layer_0
  10
543.84198
  20
278.13229
  0
VERTEX
  5
48d
  8
Layer_0
  10
544.07947
  20
280.06024
  0
VERTEX
  5
48e
  8
Layer_0
  10
544.26276
  20
282.00964
  0
VERTEX
  5
48f
  8
Layer_0
  10
544.39294
  20
283.97241
  0
VERTEX
  5
490
  8
Layer_0
  10
544.47095
  20
285.94049
  0
VERTEX
  5
491
  8
Layer_0
  10
544.49792
  20
287.90573
  0
VERTEX
  5
492
  8
Layer_0
  10
544.47491
  20
289.86008
  0
VERTEX
  5
493
  8
Layer_0
  10
544.40289
  20
291.79538
  0
VERTEX
  5
494
  8
Layer_0
  10
544.28302
  20
293.70349
  0
VERTEX
  5
495
  8
Layer_0
  10
544.11627
  20
295.57639
  0
VERTEX
  5
496
  8
Layer_0
  10
543.90369
  20
297.40591
  0
VERTEX
  5
497
  8
Layer_0
  10
543.64636
  20
299.18399
  0
VERTEX
  5
498
  8
Layer_0
  10
543.34528
  20
300.90253
  0
VERTEX
  5
499
  8
Layer_0
  10
543.00153
  20
302.55338
  0
VERTEX
  5
49a
  8
Layer_0
  10
542.61615
  20
304.12848
  0
VERTEX
  5
49b
  8
Layer_0
  10
542.4082
  20
304.88507
  0
VERTEX
  5
49c
  8
Layer_0
  10
542.19019
  20
305.61972
  0
VERTEX
  5
49d
  8
Layer_0
  10
541.96228
  20
306.33136
  0
VERTEX
  5
49e
  8
Layer_0
  10
541.72467
  20
307.01898
  0
VERTEX
  5
49f
  8
Layer_0
  10
541.47742
  20
307.68161
  0
VERTEX
  5
4a0
  8
Layer_0
  10
541.2207
  20
308.31818
  0
VERTEX
  5
4a1
  8
Layer_0
  10
540.95459
  20
308.92767
  0
VERTEX
  5
4a2
  8
Layer_0
  10
540.67926
  20
309.50919
  0
VERTEX
  5
4a3
  8
Layer_0
  10
540.39484
  20
310.06161
  0
VERTEX
  5
4a4
  8
Layer_0
  10
540.10144
  20
310.58392
  0
VERTEX
  5
4a5
  8
Layer_0
  10
539.79919
  20
311.07513
  0
VERTEX
  5
4a6
  8
Layer_0
  10
539.48828
  20
311.5343
  0
VERTEX
  5
4a7
  8
Layer_0
  10
539.16876
  20
311.96033
  0
VERTEX
  5
4a8
  8
Layer_0
  10
538.84082
  20
312.35217
  0
VERTEX
  5
4a9
  8
Layer_0
  10
538.50452
  20
312.70886
  0
VERTEX
  5
4aa
  8
Layer_0
  10
538.1601
  20
313.02942
  0
VERTEX
  5
4ab
  8
Layer_0
  10
538.02209
  20
313.06711
  0
VERTEX
  5
4ac
  8
Layer_0
  10
511.12082
  20
313.13422
  0
VERTEX
  5
4ad
  8
Layer_0
  10
484.21933
  20
313.11688
  0
VERTEX
  5
4ae
  8
Layer_0
  10
430.41635
  20
313.00073
  0
VERTEX
  5
4af
  8
Layer_0
  10
429.90338
  20
313.21109
  0
VERTEX
  5
4b0
  8
Layer_0
  10
429.41312
  20
313.43951
  0
VERTEX
  5
4b1
  8
Layer_0
  10
428.94507
  20
313.68536
  0
VERTEX
  5
4b2
  8
Layer_0
  10
428.49872
  20
313.94815
  0
VERTEX
  5
4b3
  8
Layer_0
  10
428.07352
  20
314.22723
  0
VERTEX
  5
4b4
  8
Layer_0
  10
427.66891
  20
314.52197
  0
VERTEX
  5
4b5
  8
Layer_0
  10
427.28439
  20
314.83179
  0
VERTEX
  5
4b6
  8
Layer_0
  10
426.91943
  20
315.15613
  0
VERTEX
  5
4b7
  8
Layer_0
  10
426.24606
  20
315.84592
  0
VERTEX
  5
4b8
  8
Layer_0
  10
425.64453
  20
316.58658
  0
VERTEX
  5
4b9
  8
Layer_0
  10
425.11066
  20
317.37335
  0
VERTEX
  5
4ba
  8
Layer_0
  10
424.64014
  20
318.20142
  0
VERTEX
  5
4bb
  8
Layer_0
  10
424.22876
  20
319.0661
  0
VERTEX
  5
4bc
  8
Layer_0
  10
423.87225
  20
319.96265
  0
VERTEX
  5
4bd
  8
Layer_0
  10
423.56641
  20
320.88623
  0
VERTEX
  5
4be
  8
Layer_0
  10
423.30698
  20
321.83209
  0
VERTEX
  5
4bf
  8
Layer_0
  10
423.08972
  20
322.79559
  0
VERTEX
  5
4c0
  8
Layer_0
  10
422.91037
  20
323.77185
  0
VERTEX
  5
4c1
  8
Layer_0
  10
422.76471
  20
324.75616
  0
VERTEX
  5
4c2
  8
Layer_0
  10
422.64853
  20
325.74377
  0
VERTEX
  5
4c3
  8
Layer_0
  10
422.48752
  20
327.70984
  0
VERTEX
  5
4c4
  8
Layer_0
  10
422.39337
  20
329.6319
  0
VERTEX
  5
4c5
  8
Layer_0
  10
422.36078
  20
330.56458
  0
VERTEX
  5
4c6
  8
Layer_0
  10
422.30341
  20
332.34943
  0
VERTEX
  5
4c7
  8
Layer_0
  10
422.27008
  20
333.19208
  0
VERTEX
  5
4c8
  8
Layer_0
  10
422.22809
  20
333.99521
  0
VERTEX
  5
4c9
  8
Layer_0
  10
422.1731
  20
334.75403
  0
VERTEX
  5
4ca
  8
Layer_0
  10
422.10089
  20
335.46381
  0
VERTEX
  5
4cb
  8
Layer_0
  10
422.00723
  20
336.11981
  0
VERTEX
  5
4cc
  8
Layer_0
  10
421.88788
  20
336.71722
  0
VERTEX
  5
4cd
  8
Layer_0
  10
421.73862
  20
337.25137
  0
VERTEX
  5
4ce
  8
Layer_0
  10
421.55518
  20
337.71741
  0
VERTEX
  5
4cf
  8
Layer_0
  10
421.33331
  20
338.11066
  0
VERTEX
  5
4d0
  8
Layer_0
  10
421.18286
  20
338.42859
  0
VERTEX
  5
4d1
  8
Layer_0
  10
421.10596
  20
338.70154
  0
VERTEX
  5
4d2
  8
Layer_0
  10
421.06787
  20
338.9328
  0
VERTEX
  5
4d3
  8
Layer_0
  10
421.03369
  20
339.12573
  0
VERTEX
  5
4d4
  8
Layer_0
  10
420.96872
  20
339.28363
  0
VERTEX
  5
4d5
  8
Layer_0
  10
420.83804
  20
339.40985
  0
VERTEX
  5
4d6
  8
Layer_0
  10
420.73718
  20
339.4621
  0
VERTEX
  5
4d7
  8
Layer_0
  10
420.6069
  20
339.50769
  0
VERTEX
  5
4d8
  8
Layer_0
  10
420.44278
  20
339.547
  0
VERTEX
  5
4d9
  8
Layer_0
  10
420.24048
  20
339.58044
  0
VERTEX
  5
4da
  8
Layer_0
  10
419.99567
  20
339.60846
  0
VERTEX
  5
4db
  8
Layer_0
  10
419.70395
  20
339.63153
  0
VERTEX
  5
4dc
  8
Layer_0
  10
419.36102
  20
339.64996
  0
VERTEX
  5
4dd
  8
Layer_0
  10
418.96252
  20
339.66418
  0
VERTEX
  5
4de
  8
Layer_0
  10
418.50409
  20
339.67465
  0
VERTEX
  5
4df
  8
Layer_0
  10
417.98135
  20
339.68176
  0
VERTEX
  5
4e0
  8
Layer_0
  10
417.39001
  20
339.68594
  0
VERTEX
  5
4e1
  8
Layer_0
  10
416.72571
  20
339.68762
  0
VERTEX
  5
4e2
  8
Layer_0
  10
415.98401
  20
339.68716
  0
VERTEX
  5
4e3
  8
Layer_0
  10
408.26154
  20
339.65985
  0
VERTEX
  5
4e4
  8
Layer_0
  10
359.77612
  20
339.65985
  0
VERTEX
  5
4e5
  8
Layer_0
  10
358.69861
  20
339.65564
  0
SEQEND
  0
ENDSEC
  0
EOF
